<svg viewBox="-0.5 -0.5 21 9" xmlns="http://www.w3.org/2000/svg">
	<path fill="none" stroke="#000" stroke-width="0.5" stroke-linecap="round" stroke-linejoin="round" d="
		M 0 7
		a 1 1 0 0 0  1 1
		a 1 1 0 0 0  1 -1
		a 1 1 0 0 0 -1 -1
		a 1 1 0 0 1 -1 -1
		a 1 1 0 0 1  1 -1
		a 1 1 0 0 1  1  1

		M 3 0
		l 0 8
		m 0 -3
		a 1 1 0 0 1  1 -1
		a 1 1 0 0 1  1  1
		l 0 3

		M 8 7
		a 1 1 0 0 1 -1  1
		a 1 1 0 0 1 -1 -1
		l 0 -2
		a 1 1 0 0 1  1 -1
		a 1 1 0 0 1  1  1
		l 0 3

		M 11 5
		a 1 1 0 0 0 -1 -1
		a 1 1 0 0 0 -1  1
		l 0 2
		a 1 1 0 0 0  1  1
		a 1 1 0 0 0  1 -1
		l 0 -7

		M 12 6
		l 1 0
		a 1 1 0 0 0  1 -1
		a 1 1 0 0 0 -1 -1
		a 1 1 0 0 0 -1  1
		l 0 2
		a 1 1 0 0 0  1  1
		a 1 1 0 0 0  1 -1

		M 15 8
		l 0 -3
		a 1 1 0 0 1  1 -1
		a 1 1 0 0 1  1  1

		M 18 7
		a 1 1 0 0 0  1 1
		a 1 1 0 0 0  1 -1
		a 1 1 0 0 0 -1 -1
		a 1 1 0 0 1 -1 -1
		a 1 1 0 0 1  1 -1
		a 1 1 0 0 1  1  1
	"/>
</svg>
