<svg viewBox="0 0 885 220" xmlns="http://www.w3.org/2000/svg" fill-rule="evenodd" clip-rule="evenodd" stroke-linejoin="round" stroke-miterlimit="1.414"><g fill-rule="nonzero"><path d="M35.84 70.801c0-1.888-.131-3.256-.391-4.102-.26-.846-.391-1.628-.391-2.344 0-.976.505-1.774 1.514-2.392 1.009-.619 2.23-.928 3.662-.928 3.32 0 5.957.863 7.91 2.588 1.953 1.725 2.93 3.792 2.93 6.201v45.801c.065 2.083.244 4.004.537 5.762.293 1.757.798 3.255 1.514 4.492a7.55 7.55 0 0 0 2.929 2.881c1.237.683 2.833 1.025 4.786 1.025 1.888 0 3.466-.374 4.736-1.123a8.707 8.707 0 0 0 3.076-3.076c.781-1.302 1.335-2.816 1.66-4.541.326-1.725.489-3.532.489-5.42V70.801c0-1.888-.131-3.256-.391-4.102-.26-.846-.391-1.628-.391-2.344 0-.976.521-1.774 1.563-2.392 1.041-.619 2.278-.928 3.711-.928 3.32 0 5.941.863 7.861 2.588 1.921 1.725 2.881 3.792 2.881 6.201v45.801c0 3.125-.309 6.299-.928 9.521-.618 3.223-1.806 6.153-3.564 8.789-1.758 2.637-4.232 4.802-7.422 6.495-3.19 1.692-7.357 2.539-12.5 2.539-2.149 0-4.167-.261-6.055-.782-1.888-.52-3.613-1.22-5.176-2.099-1.562-.879-2.929-1.888-4.101-3.028-1.172-1.139-2.116-2.36-2.832-3.662-.651 1.302-1.612 2.523-2.881 3.662-1.27 1.14-2.718 2.149-4.346 3.028a25.04 25.04 0 0 1-5.273 2.099 21.21 21.21 0 0 1-5.664.782c-3.711 0-6.885-.424-9.522-1.27-2.636-.846-4.866-2.002-6.689-3.467-1.823-1.465-3.272-3.141-4.346-5.029a27.112 27.112 0 0 1-2.49-5.859 30.562 30.562 0 0 1-1.123-6.153 74.241 74.241 0 0 1-.244-5.761V70.801c0-1.888-.147-3.256-.44-4.102C.146 65.853 0 65.071 0 64.355c0-.976.521-1.774 1.562-2.392 1.042-.619 2.279-.928 3.711-.928 3.321 0 5.941.863 7.862 2.588 1.92 1.725 2.88 3.792 2.88 6.201v45.801c0 1.758.114 3.499.342 5.224.228 1.726.684 3.239 1.367 4.541.684 1.303 1.677 2.361 2.979 3.174 1.302.814 3.027 1.221 5.176 1.221 1.888 0 3.466-.374 4.736-1.123a8.699 8.699 0 0 0 3.076-3.076c.781-1.302 1.335-2.816 1.66-4.541.326-1.725.489-3.532.489-5.42V70.801zM173.633 104.394c.13-.781.569-1.432 1.318-1.953.749-.521 1.611-.879 2.588-1.074.976-.195 2.002-.195 3.076 0a5.994 5.994 0 0 1 2.832 1.318c.814.684 1.4 1.628 1.758 2.832.358 1.205.309 2.751-.147 4.639a27.213 27.213 0 0 1-2.88 7.666 24.812 24.812 0 0 1-5.03 6.299c-2.018 1.823-4.394 3.255-7.129 4.297-2.734 1.042-5.794 1.562-9.179 1.562a42.12 42.12 0 0 1-5.127-.293 22.312 22.312 0 0 1-4.639-1.074c-2.474 4.297-5.664 7.764-9.57 10.401-3.907 2.636-8.724 3.955-14.453 3.955-5.079 0-9.441-.993-13.086-2.979-3.646-1.986-6.674-4.687-9.082-8.105-2.409-3.418-4.183-7.373-5.323-11.866-1.139-4.492-1.709-9.244-1.709-14.257 0-7.357.863-13.949 2.588-19.776 1.726-5.827 3.727-10.775 6.006-14.844 2.279-4.069 4.541-7.177 6.787-9.326 2.246-2.148 3.923-3.222 5.03-3.222 1.302 0 2.49.569 3.564 1.709a10.347 10.347 0 0 1 2.344 4.004c.488 1.529.618 3.076.39 4.638-.228 1.563-.993 2.767-2.295 3.613a256.261 256.261 0 0 1-2.783 4.297c-1.074 1.628-2.083 3.662-3.027 6.104-.944 2.441-1.742 5.42-2.393 8.935-.651 3.516-.976 7.748-.976 12.696 0 4.231.374 7.91 1.123 11.035.748 3.125 1.79 5.745 3.125 7.861 1.334 2.116 2.864 3.695 4.59 4.737 1.725 1.041 3.564 1.562 5.517 1.562 2.865 0 5.225-.7 7.08-2.1 1.856-1.399 3.435-3.239 4.737-5.517-4.688-4.037-8.252-9.164-10.694-15.381-2.441-6.217-3.662-12.939-3.662-20.166 0-3.125.342-6.104 1.026-8.936.683-2.832 1.692-5.322 3.027-7.47 1.335-2.149 3.011-3.858 5.029-5.127 2.018-1.27 4.362-1.905 7.031-1.905 2.344 0 4.558.847 6.641 2.54 2.083 1.692 3.906 4.036 5.469 7.031 1.562 2.995 2.783 6.543 3.662 10.644.879 4.102 1.318 8.562 1.318 13.379 0 3.711-.228 7.39-.683 11.035a68.74 68.74 0 0 1-2.149 10.547c.716.261 1.384.407 2.002.44.619.032 1.286.049 2.002.049 2.149 0 4.053-.391 5.713-1.172 1.66-.782 3.076-1.823 4.248-3.125 1.172-1.302 2.116-2.832 2.832-4.59a26.089 26.089 0 0 0 1.563-5.567zM135.449 85.84c0 4.492.7 8.756 2.1 12.793 1.399 4.036 3.239 7.552 5.517 10.547a75.53 75.53 0 0 0 .586-9.18c0-3.386-.049-6.527-.146-9.424-.098-2.897-.326-5.387-.684-7.471-.358-2.083-.846-3.727-1.465-4.931-.618-1.205-1.448-1.807-2.49-1.807-2.279 0-3.418 3.158-3.418 9.473z"/><path d="M217.285 142.969c-2.344 0-4.736-.358-7.178-1.075-2.441-.716-4.655-1.953-6.64-3.711-1.986-1.757-3.614-4.085-4.883-6.982-1.27-2.897-1.905-6.559-1.905-10.986 0-6.446.863-13.265 2.588-20.459 1.726-7.194 4.216-15.121 7.471-23.78h-17.48a371.18 371.18 0 0 1-.342 7.422c-.163 2.995-.44 6.185-.83 9.571a165.895 165.895 0 0 1-1.514 10.254c-.618 3.45-1.383 6.64-2.295 9.57-.651 2.083-1.676 3.288-3.076 3.613-1.4.326-2.783.082-4.15-.732-1.368-.814-2.474-2.002-3.321-3.565-.846-1.562-1.041-3.19-.586-4.883.521-2.018.977-4.475 1.368-7.373.39-2.897.699-5.957.927-9.179.228-3.223.407-6.446.537-9.668.131-3.223.228-6.104.293-8.643-2.474-1.367-4.524-3.109-6.152-5.224-1.628-2.116-2.441-4.639-2.441-7.569 0-1.367.276-2.62.83-3.76a9.357 9.357 0 0 1 2.197-2.929c.911-.814 1.986-1.433 3.223-1.856a11.69 11.69 0 0 1 3.808-.635c1.172 0 2.393.163 3.662.489 1.27.325 2.474.911 3.614 1.758 1.139.846 2.164 1.953 3.076 3.32.911 1.367 1.66 3.06 2.246 5.078 1.627.195 3.011.342 4.15.439 1.14.098 2.1.18 2.881.245a24.26 24.26 0 0 0 1.953.097h12.012c.586 0 1.448.358 2.588 1.074 1.139.717 2.262 1.644 3.369 2.784a18.449 18.449 0 0 1 2.783 3.662c.749 1.302 1.026 2.539.83 3.711 0 .39-.228 1.334-.683 2.832a359.352 359.352 0 0 0-1.661 5.664 401.658 401.658 0 0 0-2.148 7.861 158.61 158.61 0 0 0-2.148 9.326 152.598 152.598 0 0 0-1.661 10.108 78.762 78.762 0 0 0-.683 10.205c0 1.367.163 2.702.488 4.004.326 1.302.814 2.457 1.465 3.467a7.289 7.289 0 0 0 2.49 2.392c1.009.586 2.197.879 3.565.879 2.278 0 4.231-.716 5.859-2.148 1.628-1.433 2.995-3.223 4.102-5.372 1.106-2.148 2.002-4.475 2.685-6.982a115.371 115.371 0 0 0 1.709-7.08c.391-2.083 1.042-3.597 1.953-4.541.912-.944 1.856-1.416 2.832-1.416.782 0 1.595.244 2.442.732a9.075 9.075 0 0 1 2.295 1.905c.683.781 1.237 1.66 1.66 2.636.423.977.635 1.954.635 2.93 0 .326-.033.586-.098.781a1.852 1.852 0 0 0-.098.586c-.911 3.321-2.099 6.804-3.564 10.449a44.62 44.62 0 0 1-5.615 10.059 30.44 30.44 0 0 1-8.204 7.617c-3.19 2.019-6.933 3.028-11.23 3.028z"/><path d="M250.293 78.223c.716-1.368 1.416-3.207 2.099-5.518a112.93 112.93 0 0 0 1.953-7.666 181.98 181.98 0 0 0 1.709-8.789 252.7 252.7 0 0 0 1.368-8.985c.39-2.929.7-5.68.927-8.251.228-2.572.342-4.769.342-6.592 0-6.641-.488-11.507-1.465-14.6-.976-3.092-2.278-4.639-3.906-4.639-.521 0-.976.261-1.367.782s-.716 1.188-.977 2.002c-.26.813-.439 1.692-.537 2.636a25.504 25.504 0 0 0-.146 2.588v57.032zm28.418 30.175c.39-1.953.993-3.369 1.806-4.248.814-.879 1.693-1.367 2.637-1.465.944-.097 1.904.131 2.881.684a8.594 8.594 0 0 1 2.539 2.197 9.592 9.592 0 0 1 1.611 3.076c.358 1.14.407 2.263.147 3.37-.912 2.669-2.214 5.794-3.906 9.375-1.693 3.58-3.842 6.966-6.446 10.156a37.68 37.68 0 0 1-9.179 8.105c-3.516 2.214-7.553 3.321-12.11 3.321-3.841 0-7.226-.635-10.156-1.905-2.93-1.269-5.387-3.06-7.373-5.371-1.986-2.311-3.483-5.078-4.492-8.301-1.009-3.222-1.514-6.819-1.514-10.791V25.586c0-3.711.472-7.145 1.416-10.303.944-3.157 2.246-5.859 3.906-8.105 1.66-2.246 3.597-4.004 5.811-5.274C248.502.635 250.846 0 253.32 0c2.93 0 5.404.537 7.422 1.611 2.018 1.074 3.678 2.49 4.98 4.248 1.303 1.758 2.328 3.776 3.077 6.055a39.606 39.606 0 0 1 1.611 6.982c.325 2.377.521 4.72.586 7.032.065 2.311.098 4.41.098 6.298 0 4.883-.456 10.01-1.368 15.381a172.018 172.018 0 0 1-3.466 15.869 219.827 219.827 0 0 1-4.59 14.991c-1.66 4.785-3.255 9.033-4.785 12.744-1.53 3.711-2.898 6.738-4.102 9.082-1.204 2.344-2.035 3.711-2.49 4.101v11.621c0 4.037.846 7.341 2.539 9.913 1.693 2.571 4.394 3.857 8.105 3.857 2.279 0 4.411-.7 6.397-2.1 1.985-1.399 3.743-3.157 5.273-5.273a34.154 34.154 0 0 0 3.858-6.934c1.041-2.506 1.79-4.866 2.246-7.08z"/><path d="M301.562 142.969c-3.906 0-7.454-.684-10.644-2.051-3.19-1.367-5.908-3.402-8.155-6.104-2.246-2.701-3.971-6.054-5.175-10.058-1.205-4.004-1.807-8.643-1.807-13.916 0-7.683 1.074-14.535 3.223-20.557 2.148-6.022 5.078-11.198 8.789-15.527 3.711-4.33 8.008-7.78 12.89-10.352a47.502 47.502 0 0 1 15.528-5.029V14.16c0-1.432-.114-2.572-.342-3.418-.228-.846-.456-1.514-.684-2.002-.228-.488-.455-.879-.683-1.172-.228-.293-.342-.602-.342-.928 0-.39.195-.716.586-.976.391-.26.911-.488 1.562-.684a13.353 13.353 0 0 1 2.1-.439 16.924 16.924 0 0 1 2.197-.147c3.321 0 5.941.863 7.862 2.588 1.92 1.726 2.88 3.793 2.88 6.201v107.422c0 1.107.131 2.198.391 3.272a9.759 9.759 0 0 0 1.221 2.93 6.768 6.768 0 0 0 2.148 2.148c.879.553 1.905.83 3.076.83 2.019 0 3.76-.716 5.225-2.148 1.465-1.433 2.734-3.223 3.809-5.372 1.074-2.148 1.953-4.475 2.636-6.982a114.644 114.644 0 0 0 1.709-7.08c.391-2.083 1.042-3.597 1.953-4.541.912-.944 1.856-1.416 2.832-1.416.782 0 1.595.244 2.442.732a9.075 9.075 0 0 1 2.295 1.905c.683.781 1.237 1.66 1.66 2.636.423.977.635 1.954.635 2.93v.488c0 .196-.065.489-.196.879-.846 3.321-2.002 6.804-3.466 10.449a43.542 43.542 0 0 1-5.664 10.059 31.138 31.138 0 0 1-8.252 7.617c-3.191 2.019-6.934 3.028-11.231 3.028-3.45 0-6.478-.717-9.082-2.149-2.604-1.432-4.655-3.32-6.152-5.664a28.564 28.564 0 0 1-7.666 5.615c-2.897 1.465-6.267 2.198-10.108 2.198zm3.028-13.184c2.604 0 4.866-.749 6.787-2.246 1.92-1.497 3.532-3.353 4.834-5.566V72.558c-3.255.586-6.397 1.677-9.424 3.272-3.027 1.595-5.697 3.825-8.008 6.689-2.311 2.865-4.15 6.495-5.517 10.889-1.368 4.395-2.051 9.717-2.051 15.967 0 3.646.374 6.754 1.123 9.326.748 2.572 1.725 4.671 2.929 6.299 1.205 1.627 2.621 2.832 4.249 3.613a11.6 11.6 0 0 0 5.078 1.172zM418.262 86.426c0-4.037.439-7.536 1.318-10.498.879-2.963 2.099-5.404 3.662-7.325 1.562-1.92 3.369-3.336 5.42-4.248 2.051-.911 4.248-1.367 6.592-1.367 2.669 0 5.273.651 7.812 1.953 2.539 1.302 4.802 3.288 6.787 5.957 1.986 2.67 3.581 6.055 4.785 10.157 1.205 4.101 1.807 8.951 1.807 14.55a93.26 93.26 0 0 1-.732 11.67c-.489 3.874-1.254 7.569-2.295 11.084a7.12 7.12 0 0 0 2.099.44c.684.032 1.384.049 2.1.049 2.148 0 4.053-.391 5.713-1.172a13.802 13.802 0 0 0 4.297-3.125c1.204-1.302 2.164-2.832 2.881-4.59a26.029 26.029 0 0 0 1.562-5.567c.13-.781.57-1.432 1.318-1.953.749-.521 1.612-.879 2.588-1.074.977-.195 2.002-.195 3.077 0 1.074.195 2.001.635 2.783 1.318.781.684 1.351 1.628 1.709 2.832.358 1.205.342 2.751-.049 4.639a27.184 27.184 0 0 1-2.881 7.666 24.808 24.808 0 0 1-5.029 6.299c-2.019 1.823-4.395 3.255-7.129 4.297-2.735 1.042-5.794 1.562-9.18 1.562a45.83 45.83 0 0 1-5.273-.293 26.1 26.1 0 0 1-4.981-1.074c-2.474 4.297-5.696 7.764-9.668 10.401-3.971 2.636-8.886 3.955-14.746 3.955-4.622 0-8.675-.814-12.158-2.442-3.483-1.627-6.413-3.922-8.789-6.885-2.376-2.962-4.167-6.494-5.371-10.595-1.205-4.102-1.807-8.594-1.807-13.477V14.16c0-1.432-.114-2.572-.342-3.418-.227-.846-.455-1.514-.683-2.002-.228-.488-.456-.879-.684-1.172-.228-.293-.342-.602-.342-.928 0-.39.196-.716.586-.976.391-.26.912-.488 1.563-.684a13.364 13.364 0 0 1 2.099-.439 16.94 16.94 0 0 1 2.198-.147c3.32 0 5.94.863 7.861 2.588 1.921 1.726 2.881 3.793 2.881 6.201v93.653c0 3.32.293 6.38.879 9.179.586 2.8 1.465 5.225 2.637 7.276 1.171 2.051 2.653 3.646 4.443 4.785 1.79 1.139 3.89 1.709 6.299 1.709 2.474 0 4.59-.635 6.347-1.904 1.758-1.27 3.223-2.979 4.395-5.127a39.522 39.522 0 0 1-7.666-7.08 46.522 46.522 0 0 1-5.762-8.789 46.21 46.21 0 0 1-3.662-9.961 44.334 44.334 0 0 1-1.269-10.498zm12.402-.782c0 4.818.862 9.375 2.588 13.672 1.725 4.297 4.052 8.008 6.982 11.133.391-2.344.651-4.671.781-6.982.131-2.312.196-4.411.196-6.299 0-6.706-.7-11.882-2.1-15.528-1.4-3.645-3.011-5.468-4.834-5.468-1.302 0-2.23.862-2.783 2.588-.553 1.725-.83 4.02-.83 6.884z"/><path d="M527.051 142.969c-2.279 0-4.346-.358-6.202-1.075-1.855-.716-3.483-1.709-4.882-2.978a16.26 16.26 0 0 1-3.467-4.492c-.912-1.726-1.53-3.597-1.856-5.616-2.409 4.232-5.241 7.683-8.496 10.352-3.255 2.669-7.096 4.004-11.523 4.004-3.321 0-6.299-.684-8.936-2.051-2.636-1.367-4.866-3.304-6.689-5.81-1.823-2.507-3.207-5.534-4.151-9.082-.944-3.549-1.416-7.504-1.416-11.866 0-5.273.375-10.579 1.123-15.918.749-5.338 1.579-10.156 2.491-14.453a189.878 189.878 0 0 1 3.613-14.551c.325-.846.57-1.709.732-2.587a5.235 5.235 0 0 1 1.123-2.393c.586-.716 1.514-1.302 2.784-1.758 1.269-.456 3.239-.683 5.908-.683 2.474 0 4.069.439 4.785 1.318.716.879.993 1.904.83 3.076-.163 1.172-.553 2.376-1.172 3.613-.618 1.237-1.025 2.246-1.221 3.028a968.415 968.415 0 0 0-2.441 10.156 128.714 128.714 0 0 0-1.807 9.229 123.58 123.58 0 0 0-1.123 9.667c-.26 3.353-.39 7.113-.39 11.28 0 5.469.797 9.603 2.392 12.402 1.595 2.8 3.858 4.199 6.787 4.199 2.019 0 3.89-.748 5.616-2.246 1.725-1.497 3.287-3.499 4.687-6.006 1.4-2.506 2.621-5.371 3.662-8.593a70.477 70.477 0 0 0 2.442-10.108V70.801c0-1.433-.114-2.572-.342-3.418-.228-.847-.456-1.514-.684-2.002-.228-.489-.455-.879-.683-1.172a1.623 1.623 0 0 1-.342-1.026c0-.325.195-.618.586-.878.39-.261.911-.489 1.562-.684a13.241 13.241 0 0 1 2.1-.439 16.924 16.924 0 0 1 2.197-.147c3.321 0 5.941.863 7.862 2.588 1.92 1.725 2.88 3.792 2.88 6.201v50.781c0 .456.033 1.188.098 2.198.065 1.009.26 2.034.586 3.076a7.144 7.144 0 0 0 1.563 2.734c.716.781 1.725 1.172 3.027 1.172 2.018 0 3.76-.716 5.224-2.148 1.465-1.433 2.735-3.223 3.809-5.372 1.074-2.148 1.953-4.475 2.637-6.982a116.108 116.108 0 0 0 1.709-7.08c.39-2.083 1.041-3.597 1.953-4.541.911-.944 1.855-1.416 2.832-1.416.781 0 1.595.244 2.441.732a9.04 9.04 0 0 1 2.295 1.905 10.02 10.02 0 0 1 1.66 2.636c.424.977.635 1.954.635 2.93v.488c0 .196-.065.489-.195.879-.912 3.321-2.1 6.804-3.565 10.449a44.543 44.543 0 0 1-5.615 10.059 30.436 30.436 0 0 1-8.203 7.617c-3.19 2.019-6.934 3.028-11.23 3.028z"/><path d="M555.371 41.211c-1.628 0-3.174-.326-4.639-.977a12.094 12.094 0 0 1-3.808-2.636 13.145 13.145 0 0 1-2.588-3.858c-.651-1.465-.977-3.044-.977-4.736 0-1.758.326-3.386.977-4.883.651-1.497 1.513-2.783 2.588-3.857a11.822 11.822 0 0 1 3.808-2.54 11.813 11.813 0 0 1 4.639-.927c1.758 0 3.385.309 4.883.927 1.497.619 2.783 1.465 3.857 2.54 1.074 1.074 1.921 2.36 2.539 3.857.619 1.497.928 3.125.928 4.883 0 1.692-.309 3.271-.928 4.736a12.415 12.415 0 0 1-2.539 3.858c-1.074 1.106-2.36 1.985-3.857 2.636-1.498.651-3.125.977-4.883.977zm4.59 79.394c0 .456.032 1.188.097 2.198.065 1.009.261 2.034.586 3.076a7.157 7.157 0 0 0 1.563 2.734c.716.781 1.725 1.172 3.027 1.172 1.953 0 3.662-.716 5.127-2.148 1.465-1.433 2.734-3.223 3.809-5.372 1.074-2.148 1.969-4.475 2.685-6.982a97.394 97.394 0 0 0 1.758-7.08c.391-2.018.993-3.483 1.807-4.395.814-.911 1.692-1.416 2.636-1.513.944-.098 1.888.146 2.832.732a9.925 9.925 0 0 1 2.54 2.295 9.562 9.562 0 0 1 1.66 3.174c.358 1.172.407 2.279.146 3.32-.911 3.321-2.099 6.804-3.564 10.449a44.585 44.585 0 0 1-5.616 10.059 30.436 30.436 0 0 1-8.203 7.617c-3.19 2.019-6.933 3.028-11.23 3.028-2.669 0-5.046-.505-7.129-1.514-2.083-1.009-3.841-2.36-5.273-4.053-1.433-1.692-2.523-3.678-3.272-5.957-.749-2.278-1.123-4.687-1.123-7.226V70.801c0-1.888-.146-3.256-.439-4.102-.293-.846-.44-1.628-.44-2.344 0-.976.521-1.774 1.563-2.392 1.041-.619 2.278-.928 3.711-.928 3.32 0 5.94.863 7.861 2.588 1.92 1.725 2.881 3.792 2.881 6.201v50.781z"/><path d="M594.531 78.223c.716-1.368 1.416-3.207 2.1-5.518a114.128 114.128 0 0 0 1.953-7.666c.618-2.8 1.188-5.729 1.712-8.789.52-3.06.97-6.055 1.36-8.985.39-2.929.7-5.68.93-8.251.23-2.572.34-4.769.34-6.592 0-6.641-.49-11.507-1.46-14.6-.98-3.092-2.28-4.639-3.908-4.639-.52 0-.976.261-1.367.782-.39.521-.716 1.188-.976 2.002-.261.813-.44 1.692-.537 2.636a25.237 25.237 0 0 0-.147 2.588v57.032zm28.415 30.175c.39-1.953 1-3.369 1.81-4.248s1.69-1.367 2.64-1.465c.94-.097 1.9.131 2.88.684a8.737 8.737 0 0 1 2.54 2.197 9.75 9.75 0 0 1 1.61 3.076c.36 1.14.41 2.263.14 3.37-.91 2.669-2.21 5.794-3.9 9.375a49.55 49.55 0 0 1-6.45 10.156 37.52 37.52 0 0 1-9.18 8.105c-3.51 2.214-7.55 3.321-12.11 3.321-3.838 0-7.223-.635-10.153-1.905-2.929-1.269-5.387-3.06-7.373-5.371-1.985-2.311-3.483-5.078-4.492-8.301-1.009-3.222-1.514-6.819-1.514-10.791V25.586c0-3.711.472-7.145 1.416-10.303.944-3.157 2.246-5.859 3.907-8.105 1.66-2.246 3.597-4.004 5.81-5.274C592.741.635 595.084 0 597.558 0c2.928 0 5.408.537 7.418 1.611 2.02 1.074 3.68 2.49 4.99 4.248 1.3 1.758 2.32 3.776 3.07 6.055a38.906 38.906 0 0 1 1.61 6.982c.33 2.377.52 4.72.59 7.032.06 2.311.1 4.41.1 6.298 0 4.883-.46 10.01-1.37 15.381a171.378 171.378 0 0 1-3.47 15.869 219.827 219.827 0 0 1-4.59 14.991c-1.66 4.785-3.25 9.033-4.78 12.744-1.533 3.711-2.9 6.738-4.105 9.082-1.204 2.344-2.034 3.711-2.49 4.101v11.621c0 4.037.846 7.341 2.539 9.913 1.693 2.571 4.396 3.857 8.106 3.857 2.28 0 4.41-.7 6.4-2.1 1.98-1.399 3.74-3.157 5.27-5.273a34.065 34.065 0 0 0 3.86-6.934c1.04-2.506 1.79-4.866 2.24-7.08z"/><path d="M645.806 142.969c-3.91 0-7.46-.684-10.65-2.051-3.19-1.367-5.91-3.402-8.15-6.104-2.25-2.701-3.98-6.054-5.18-10.058-1.2-4.004-1.81-8.643-1.81-13.916 0-7.683 1.08-14.535 3.23-20.557 2.14-6.022 5.07-11.198 8.79-15.527 3.71-4.33 8-7.78 12.89-10.352a47.427 47.427 0 0 1 15.52-5.029V14.16c0-1.432-.11-2.572-.34-3.418-.23-.846-.45-1.514-.68-2.002-.23-.488-.46-.879-.69-1.172-.22-.293-.34-.602-.34-.928 0-.39.2-.716.59-.976.39-.26.91-.488 1.56-.684.65-.195 1.35-.341 2.1-.439.75-.098 1.48-.147 2.2-.147 3.32 0 5.94.863 7.86 2.588 1.92 1.726 2.88 3.793 2.88 6.201v107.422c0 1.107.13 2.198.39 3.272a9.86 9.86 0 0 0 1.22 2.93 6.734 6.734 0 0 0 2.15 2.148c.88.553 1.9.83 3.08.83 2.01 0 3.75-.716 5.22-2.148 1.47-1.433 2.74-3.223 3.81-5.372 1.07-2.148 1.95-4.475 2.64-6.982.68-2.506 1.25-4.866 1.71-7.08.38-2.083 1.04-3.597 1.95-4.541.91-.944 1.85-1.416 2.83-1.416.78 0 1.59.244 2.44.732a9.131 9.131 0 0 1 2.3 1.905c.68.781 1.23 1.66 1.66 2.636.42.977.63 1.954.63 2.93v.488c0 .196-.06.489-.19.879-.85 3.321-2.01 6.804-3.47 10.449-1.47 3.646-3.35 6.999-5.66 10.059-2.32 3.06-5.07 5.599-8.26 7.617-3.19 2.019-6.93 3.028-11.23 3.028-3.45 0-6.47-.717-9.08-2.149-2.6-1.432-4.65-3.32-6.15-5.664a28.631 28.631 0 0 1-7.67 5.615c-2.9 1.465-6.26 2.198-10.1 2.198zm3.02-13.184c2.61 0 4.87-.749 6.79-2.246 1.92-1.497 3.53-3.353 4.83-5.566V72.558c-3.25.586-6.39 1.677-9.42 3.272-3.03 1.595-5.7 3.825-8.01 6.689-2.31 2.865-4.15 6.495-5.52 10.889-1.36 4.395-2.05 9.717-2.05 15.967 0 3.646.38 6.754 1.13 9.326.75 2.572 1.72 4.671 2.93 6.299 1.2 1.627 2.62 2.832 4.24 3.613 1.63.781 3.32 1.172 5.08 1.172z"/><path d="M707.226 41.211c-1.63 0-3.17-.326-4.64-.977a12.229 12.229 0 0 1-3.81-2.636 13.43 13.43 0 0 1-2.59-3.858c-.65-1.465-.97-3.044-.97-4.736 0-1.758.32-3.386.97-4.883.66-1.497 1.52-2.783 2.59-3.857a11.952 11.952 0 0 1 3.81-2.54c1.47-.618 3.01-.927 4.64-.927 1.76 0 3.39.309 4.88.927 1.5.619 2.79 1.465 3.86 2.54 1.08 1.074 1.92 2.36 2.54 3.857.62 1.497.93 3.125.93 4.883 0 1.692-.31 3.271-.93 4.736a12.348 12.348 0 0 1-2.54 3.858c-1.07 1.106-2.36 1.985-3.86 2.636-1.49.651-3.12.977-4.88.977zm4.59 79.394c0 .456.03 1.188.1 2.198.06 1.009.26 2.034.58 3.076a7.172 7.172 0 0 0 1.57 2.734c.71.781 1.72 1.172 3.02 1.172 1.96 0 3.67-.716 5.13-2.148 1.46-1.433 2.73-3.223 3.81-5.372a40.186 40.186 0 0 0 2.68-6.982 92.522 92.522 0 0 0 1.76-7.08c.39-2.018.99-3.483 1.81-4.395.81-.911 1.69-1.416 2.64-1.513.94-.098 1.88.146 2.83.732.94.586 1.79 1.351 2.54 2.295s1.3 2.002 1.66 3.174c.36 1.172.4 2.279.14 3.32-.91 3.321-2.1 6.804-3.56 10.449-1.47 3.646-3.34 6.999-5.62 10.059a30.308 30.308 0 0 1-8.2 7.617c-3.19 2.019-6.93 3.028-11.23 3.028-2.67 0-5.05-.505-7.13-1.514s-3.84-2.36-5.27-4.053c-1.43-1.692-2.52-3.678-3.27-5.957-.75-2.278-1.13-4.687-1.13-7.226V70.801c0-1.888-.14-3.256-.44-4.102-.29-.846-.43-1.628-.43-2.344 0-.976.52-1.774 1.56-2.392 1.04-.619 2.28-.928 3.71-.928 3.32 0 5.94.863 7.86 2.588s2.88 3.792 2.88 6.201v50.781z"/><path d="M731.246 70.801c0-1.888-.14-3.256-.44-4.102-.29-.846-.43-1.628-.43-2.344 0-.976.52-1.774 1.56-2.392 1.04-.619 2.28-.928 3.71-.928 3.32 0 5.94.863 7.86 2.588s2.88 3.792 2.88 6.201v8.984a70.138 70.138 0 0 1 4.44-7.812c1.6-2.409 3.32-4.508 5.18-6.299 1.86-1.79 3.84-3.19 5.96-4.199 2.11-1.009 4.41-1.514 6.88-1.514 3.32 0 6.06.619 8.21 1.856 2.14 1.237 3.84 2.832 5.07 4.785 1.24 1.953 2.1 4.134 2.59 6.543.49 2.409.73 4.752.73 7.031v41.406c0 .456.04 1.188.1 2.198.07 1.009.26 2.034.59 3.076a7.458 7.458 0 0 0 1.51 2.734c.68.781 1.68 1.172 2.98 1.172 2.02 0 3.76-.716 5.22-2.148 1.47-1.433 2.74-3.223 3.81-5.372 1.08-2.148 1.96-4.475 2.64-6.982.68-2.506 1.25-4.866 1.71-7.08.39-2.083 1.04-3.597 1.95-4.541.91-.944 1.86-1.416 2.83-1.416.78 0 1.6.244 2.44.732a8.96 8.96 0 0 1 2.3 1.905c.68.781 1.24 1.66 1.66 2.636.42.977.63 1.954.63 2.93v.488c0 .196-.06.489-.19.879-.85 3.321-2 6.804-3.47 10.449a43.382 43.382 0 0 1-5.66 10.059 31.1 31.1 0 0 1-8.25 7.617c-3.19 2.019-6.94 3.028-11.23 3.028-2.67 0-5.03-.505-7.09-1.514a16.727 16.727 0 0 1-5.27-4.053c-1.46-1.692-2.57-3.678-3.32-5.957-.75-2.278-1.12-4.687-1.12-7.226V83.594c0-1.563-.03-3.028-.1-4.395-.06-1.367-.24-2.572-.54-3.613-.29-1.042-.71-1.872-1.27-2.49-.55-.619-1.31-.928-2.29-.928-1.43 0-3.19.976-5.27 2.93-2.09 1.953-4.14 4.492-6.16 7.617-2.01 3.125-3.79 6.657-5.32 10.595-1.53 3.939-2.49 7.894-2.88 11.866v29.199c0 .976-.02 1.969-.05 2.978-.03 1.01-.23 1.921-.58 2.735-.36.814-.92 1.497-1.66 2.051-.75.553-1.84.83-3.28.83-.97 0-2.03-.114-3.17-.342a8.726 8.726 0 0 1-3.12-1.27c-.95-.618-1.73-1.497-2.35-2.636-.62-1.14-.93-2.653-.93-4.541V70.801z"/><path d="M815.426 196.777c0-5.078.67-9.57 2-13.476 1.34-3.907 3.15-7.487 5.43-10.743 2.27-3.255 4.91-6.298 7.91-9.13 2.99-2.832 6.15-5.713 9.47-8.643v-20.996c-2.02 2.018-4.38 3.727-7.08 5.127s-5.81 2.099-9.33 2.099c-3.9 0-7.34-.781-10.3-2.343a22.112 22.112 0 0 1-7.47-6.397c-2.02-2.702-3.53-5.892-4.54-9.57-1.01-3.678-1.52-7.634-1.52-11.865 0-8.334 1.34-15.821 4.01-22.461 2.67-6.641 6.21-12.289 10.64-16.944 4.43-4.655 9.49-8.219 15.19-10.693 5.69-2.474 11.6-3.711 17.72-3.711 2.74 0 4.95.733 6.64 2.197 1.7 1.465 2.54 3.532 2.54 6.202 0 1.692-.18 2.88-.54 3.564-.35.684-1.02 1.025-2 1.025-.91 0-1.85-.065-2.83-.195s-1.98-.195-3.03-.195c-3.77 0-7.61.83-11.52 2.49-3.91 1.66-7.44 4.199-10.6 7.617-3.15 3.418-5.74 7.748-7.76 12.988-2.02 5.241-3.03 11.475-3.03 18.702 0 5.208 1.01 9.244 3.03 12.109 2.02 2.865 4.79 4.297 8.3 4.297 2.02 0 3.78-.602 5.28-1.807 1.49-1.204 2.8-2.718 3.9-4.541 1.11-1.823 2-3.825 2.69-6.006a58.55 58.55 0 0 0 1.61-6.298V86.621c0-1.888-.15-3.255-.44-4.102-.29-.846-.44-1.627-.44-2.343 0-.977.52-1.791 1.56-2.442 1.04-.651 2.28-.976 3.71-.976 3.32 0 5.94.862 7.86 2.588 1.93 1.725 2.89 3.824 2.89 6.298v54.395c3.64-4.037 6.98-8.626 10.01-13.77 3.02-5.143 5.54-11.165 7.56-18.066.65-2.083 1.37-3.597 2.15-4.541.78-.944 1.69-1.416 2.74-1.416.78 0 1.58.244 2.39.732a9.428 9.428 0 0 1 2.24 1.905c.69.781 1.24 1.66 1.67 2.636.42.977.63 1.954.63 2.93v.781c0 .391-.07.782-.2 1.172-1.69 5.794-3.66 10.921-5.9 15.381-2.25 4.46-4.64 8.447-7.18 11.963s-5.18 6.657-7.91 9.424a139.006 139.006 0 0 1-8.2 7.666v34.57c0 5.274-.61 9.717-1.81 13.33-1.21 3.613-2.78 6.543-4.74 8.789-1.95 2.246-4.18 3.858-6.69 4.834-2.5.977-5.03 1.465-7.57 1.465-2.79 0-5.37-.602-7.71-1.807a18.8 18.8 0 0 1-6.05-4.931c-1.7-2.084-3.02-4.525-3.96-7.324-.94-2.8-1.42-5.795-1.42-8.985zm19.14 10.449c1.63 0 2.84-.651 3.62-1.953.78-1.302 1.32-2.815 1.61-4.541.29-1.725.44-3.467.44-5.224v-25.489a40.193 40.193 0 0 0-7.86 11.036c-1.99 4.101-2.98 9.147-2.98 15.136 0 3.125.45 5.746 1.37 7.862.91 2.115 2.18 3.173 3.8 3.173z"/></g></svg>