<?xml version="1.0" encoding="UTF-8" standalone="no"?>
<!DOCTYPE svg PUBLIC "-//W3C//DTD SVG 1.1//EN" "http://www.w3.org/Graphics/SVG/1.1/DTD/svg11.dtd">
<svg width="100%" height="100%" viewBox="0 0 465 89" version="1.1" xmlns="http://www.w3.org/2000/svg" xmlns:xlink="http://www.w3.org/1999/xlink" xml:space="preserve" xmlns:serif="http://www.serif.com/" style="fill-rule:evenodd;clip-rule:evenodd;stroke-linejoin:round;stroke-miterlimit:1.41421;">
    <g transform="matrix(1,0,0,1,-3.9,70.7)">
        <path d="M68.6,-35.3C68.6,-30.5 67.75,-25.95 66.05,-21.65C64.35,-17.35 61.967,-13.6 58.9,-10.4C55.833,-7.2 52.117,-4.667 47.75,-2.8C43.383,-0.933 38.567,0 33.3,0L3.9,0L3.9,-70.7L33.3,-70.7C38.567,-70.7 43.383,-69.783 47.75,-67.95C52.117,-66.117 55.833,-63.6 58.9,-60.4C61.967,-57.2 64.35,-53.45 66.05,-49.15C67.75,-44.85 68.6,-40.233 68.6,-35.3ZM45.1,-23.6C45.1,-25.2 44.783,-26.717 44.15,-28.15C43.517,-29.583 42.667,-30.817 41.6,-31.85C40.533,-32.883 39.283,-33.717 37.85,-34.35C36.417,-34.983 34.9,-35.3 33.3,-35.3C31.7,-35.3 30.183,-34.983 28.75,-34.35C27.317,-33.717 26.067,-32.883 25,-31.85C23.933,-30.817 23.083,-29.583 22.45,-28.15C21.817,-26.717 21.5,-25.2 21.5,-23.6C21.5,-22 21.817,-20.467 22.45,-19C23.083,-17.533 23.933,-16.267 25,-15.2C26.067,-14.133 27.317,-13.283 28.75,-12.65C30.183,-12.017 31.7,-11.7 33.3,-11.7C34.967,-11.7 36.517,-12 37.95,-12.6C39.383,-13.2 40.633,-14.033 41.7,-15.1C42.767,-16.167 43.6,-17.433 44.2,-18.9C44.8,-20.367 45.1,-21.933 45.1,-23.6Z" style="fill:white;fill-rule:nonzero;"/>
        <path d="M74.3,-54.4L92.1,-54.4L92.1,-21C92.1,-17.867 93.567,-16.3 96.5,-16.3C99.433,-16.3 100.9,-17.867 100.9,-21L100.9,-54.4L118.6,-54.4L118.6,0L91.5,0C86.033,0 81.8,-1.417 78.8,-4.25C75.8,-7.083 74.3,-11.033 74.3,-16.1L74.3,-54.4Z" style="fill:white;fill-rule:nonzero;"/>
        <path d="M178.3,-39.1C179.033,-37.233 179.567,-35.367 179.9,-33.5C180.233,-31.633 180.4,-29.733 180.4,-27.8C180.4,-25.067 180.1,-22.367 179.5,-19.7L161.4,-19.7C161.067,-21.833 160.1,-23.617 158.5,-25.05C156.9,-26.483 154.933,-27.2 152.6,-27.2C151.4,-27.2 150.267,-26.967 149.2,-26.5C148.133,-26.033 147.2,-25.4 146.4,-24.6C145.6,-23.8 144.967,-22.85 144.5,-21.75C144.033,-20.65 143.8,-19.467 143.8,-18.2C143.8,-16.933 144.033,-15.75 144.5,-14.65C144.967,-13.55 145.6,-12.583 146.4,-11.75C147.2,-10.917 148.133,-10.267 149.2,-9.8C150.267,-9.333 151.4,-9.1 152.6,-9.1C153.933,-9.1 155.15,-9.35 156.25,-9.85C157.35,-10.35 158.3,-11.033 159.1,-11.9L176.3,-11.9C173.9,-7.833 170.65,-4.6 166.55,-2.2C162.45,0.2 157.8,1.4 152.6,1.4C148.667,1.4 145,0.667 141.6,-0.8C138.2,-2.267 135.25,-4.283 132.75,-6.85C130.25,-9.417 128.283,-12.45 126.85,-15.95C125.417,-19.45 124.7,-23.2 124.7,-27.2C124.7,-31.267 125.4,-35.033 126.8,-38.5C128.2,-41.967 130.15,-44.983 132.65,-47.55C135.15,-50.117 138.1,-52.133 141.5,-53.6C144.9,-55.067 148.6,-55.8 152.6,-55.8C155.6,-55.8 158.417,-55.4 161.05,-54.6C163.683,-53.8 166.1,-52.667 168.3,-51.2C170.5,-49.733 172.45,-47.967 174.15,-45.9C175.85,-43.833 177.233,-41.567 178.3,-39.1Z" style="fill:white;fill-rule:nonzero;"/>
        <path d="M235.1,0L214.1,0L207.6,-18.8C207.467,-19.2 207.25,-19.483 206.95,-19.65C206.65,-19.817 206.333,-19.9 206,-19.9C205.533,-19.9 205.117,-19.75 204.75,-19.45C204.383,-19.15 204.2,-18.733 204.2,-18.2L204.2,0L186.5,0L186.5,-70.7L204.2,-70.7L204.2,-37.9L211.8,-54.4L231.2,-54.4L222.2,-35L235.1,0Z" style="fill:white;fill-rule:nonzero;"/>
        <path d="M240.2,-54.4L269.5,-54.4C273.567,-54.4 277.233,-53.683 280.5,-52.25C283.767,-50.817 286.55,-48.85 288.85,-46.35C291.15,-43.85 292.917,-40.95 294.15,-37.65C295.383,-34.35 296,-30.867 296,-27.2C296,-23.267 295.35,-19.567 294.05,-16.1C292.75,-12.633 290.917,-9.6 288.55,-7C286.183,-4.4 283.317,-2.35 279.95,-0.85C276.583,0.65 272.8,1.4 268.6,1.4C265,1.4 261.433,0.833 257.9,-0.3L257.9,17.7L240.2,17.7L240.2,-54.4ZM257.9,-17.6C257.9,-15.067 258.733,-12.967 260.4,-11.3C262.067,-9.633 264.167,-8.8 266.7,-8.8C269.233,-8.8 271.333,-9.633 273,-11.3C274.667,-12.967 275.5,-15.067 275.5,-17.6C275.5,-20.133 274.667,-22.25 273,-23.95C271.333,-25.65 269.233,-26.5 266.7,-26.5C264.233,-26.5 262.15,-25.65 260.45,-23.95C258.75,-22.25 257.9,-20.133 257.9,-17.6Z" style="fill:white;fill-rule:nonzero;"/>
        <path d="M356.3,-27.2C356.3,-23.2 355.6,-19.45 354.2,-15.95C352.8,-12.45 350.85,-9.417 348.35,-6.85C345.85,-4.283 342.883,-2.267 339.45,-0.8C336.017,0.667 332.3,1.4 328.3,1.4C324.367,1.4 320.7,0.667 317.3,-0.8C313.9,-2.267 310.95,-4.283 308.45,-6.85C305.95,-9.417 303.983,-12.45 302.55,-15.95C301.117,-19.45 300.4,-23.2 300.4,-27.2C300.4,-31.267 301.1,-35.033 302.5,-38.5C303.9,-41.967 305.85,-44.983 308.35,-47.55C310.85,-50.117 313.8,-52.133 317.2,-53.6C320.6,-55.067 324.3,-55.8 328.3,-55.8C332.3,-55.8 336.017,-55.067 339.45,-53.6C342.883,-52.133 345.85,-50.117 348.35,-47.55C350.85,-44.983 352.8,-41.967 354.2,-38.5C355.6,-35.033 356.3,-31.267 356.3,-27.2ZM337.2,-18.2C337.2,-20.733 336.35,-22.867 334.65,-24.6C332.95,-26.333 330.833,-27.2 328.3,-27.2C327.1,-27.2 325.967,-26.967 324.9,-26.5C323.833,-26.033 322.9,-25.4 322.1,-24.6C321.3,-23.8 320.667,-22.85 320.2,-21.75C319.733,-20.65 319.5,-19.467 319.5,-18.2C319.5,-16.933 319.733,-15.75 320.2,-14.65C320.667,-13.55 321.3,-12.583 322.1,-11.75C322.9,-10.917 323.833,-10.267 324.9,-9.8C325.967,-9.333 327.1,-9.1 328.3,-9.1C329.567,-9.1 330.733,-9.333 331.8,-9.8C332.867,-10.267 333.8,-10.917 334.6,-11.75C335.4,-12.583 336.033,-13.55 336.5,-14.65C336.967,-15.75 337.2,-16.933 337.2,-18.2Z" style="fill:white;fill-rule:nonzero;"/>
        <path d="M406.7,0L388.8,0L388.8,-33.4C388.8,-36.533 387.333,-38.1 384.4,-38.1C381.467,-38.1 380,-36.533 380,-33.4L380,0L362.4,0L362.4,-54.4L389.4,-54.4C394.933,-54.4 399.2,-53 402.2,-50.2C405.2,-47.4 406.7,-43.467 406.7,-38.4L406.7,0Z" style="fill:white;fill-rule:nonzero;"/>
        <path d="M468.3,0L439.1,0C434.967,0 431.267,-0.717 428,-2.15C424.733,-3.583 421.967,-5.55 419.7,-8.05C417.433,-10.55 415.683,-13.433 414.45,-16.7C413.217,-19.967 412.6,-23.467 412.6,-27.2C412.6,-31.133 413.233,-34.833 414.5,-38.3C415.767,-41.767 417.6,-44.8 420,-47.4C422.4,-50 425.283,-52.05 428.65,-53.55C432.017,-55.05 435.8,-55.8 440,-55.8C443.667,-55.8 447.2,-55.233 450.6,-54.1L450.6,-70.7L468.3,-70.7L468.3,0ZM450.6,-17.7C450.6,-20.233 449.767,-22.333 448.1,-24C446.433,-25.667 444.333,-26.5 441.8,-26.5C439.267,-26.5 437.167,-25.667 435.5,-24C433.833,-22.333 433,-20.233 433,-17.7C433,-15.167 433.833,-13.05 435.5,-11.35C437.167,-9.65 439.267,-8.8 441.8,-8.8C444.267,-8.8 446.35,-9.65 448.05,-11.35C449.75,-13.05 450.6,-15.167 450.6,-17.7Z" style="fill:white;fill-rule:nonzero;"/>
    </g>
</svg>
