<?xml version="1.0" encoding="UTF-8" standalone="no"?>
<!DOCTYPE svg PUBLIC "-//W3C//DTD SVG 1.1//EN" "http://www.w3.org/Graphics/SVG/1.1/DTD/svg11.dtd">
<svg width="100%" height="100%" viewBox="0 0 48 48" version="1.1" xmlns="http://www.w3.org/2000/svg" xmlns:xlink="http://www.w3.org/1999/xlink" xml:space="preserve" xmlns:serif="http://www.serif.com/" style="fill-rule:evenodd;clip-rule:evenodd;stroke-linejoin:round;stroke-miterlimit:1.41421;">
    <g transform="matrix(1.09609,0,0,1.09609,-0.35448,-2.22985)">
        <g transform="matrix(0.140768,0.0371442,-0.0371442,0.140768,-195.273,-57.4722)">
            <path d="M1568.25,143.227C1557.16,114.58 1550.42,82.742 1557.39,52.268C1560.63,33.179 1573.89,16.04 1591.68,8.281C1608.05,1.028 1626.42,-1.253 1644.17,0.63C1671.55,4.859 1695.97,22.108 1711.13,45.01C1702.11,40.781 1692.33,35.389 1682.03,37.885C1673.49,39.701 1667.91,47.477 1665.34,55.346C1660.58,67.709 1661.12,81.161 1661.43,94.168C1662.29,115.824 1665.88,137.259 1670.31,158.439C1676.19,186.322 1680.39,215.577 1673.53,243.678C1668.73,264.046 1656.35,282.901 1638.31,293.836C1620.07,305.182 1598.3,309.48 1577.04,309.649C1567.91,309.492 1558.62,310.529 1549.68,308.037C1566.55,301.55 1582.04,288.776 1586.83,270.735C1588.66,261.695 1590.55,252.6 1591.55,243.426C1592.07,208.729 1581.96,174.791 1568.25,143.227ZM1583.76,47.28C1591.65,42.47 1600.18,38.695 1609.25,36.78C1608.78,47.357 1608.3,57.95 1609.18,68.529C1615.83,62.565 1622.82,56.992 1630.04,51.713C1632.94,64.314 1637,76.758 1643.47,88.009C1644.47,73.064 1644.66,57.308 1651.8,43.736C1656.51,33.778 1666.56,27.806 1677.13,25.942C1667.56,20.194 1656.67,17.23 1645.68,15.801C1630.76,12.451 1614.4,13.904 1600.98,21.494C1591.58,26.901 1586.01,36.931 1583.76,47.28Z" style="fill:white;fill-rule:nonzero;"/>
        </g>
        <g transform="matrix(1.07249,0,0,1.07249,-4.12397,3.85396)">
            <path d="M12.879,32.081C10.4,32.081 8.382,31.321 6.825,29.8C5.267,28.279 4.489,26.253 4.489,23.722L4.489,23.285C4.489,21.587 4.817,20.068 5.473,18.73C6.129,17.391 7.059,16.36 8.262,15.636C9.465,14.912 10.838,14.55 12.379,14.55C14.692,14.55 16.512,15.279 17.84,16.738C19.169,18.196 19.833,20.264 19.833,22.941L19.833,24.785L9.067,24.785C9.213,25.889 9.653,26.774 10.387,27.441C11.122,28.108 12.051,28.441 13.176,28.441C14.916,28.441 16.275,27.811 17.254,26.55L19.473,29.035C18.796,29.993 17.879,30.74 16.723,31.277C15.567,31.813 14.286,32.081 12.879,32.081ZM12.364,18.191C11.468,18.191 10.741,18.494 10.184,19.101C9.627,19.708 9.27,20.576 9.114,21.706L15.395,21.706L15.395,21.345C15.374,20.341 15.103,19.564 14.583,19.015C14.062,18.466 13.322,18.191 12.364,18.191Z" style="fill:white;fill-rule:nonzero;"/>
        </g>
    </g>
</svg>
