<svg viewBox="0 0 48 48" xmlns="http://www.w3.org/2000/svg" fill="#fff"><path d="M28.92 22.475c-1.452-3.752-2.335-7.923-1.423-11.914.425-2.501 2.162-4.746 4.492-5.762 2.145-.95 4.551-1.249 6.877-1.003 3.585.554 6.784 2.814 8.77 5.814-1.182-.554-2.462-1.26-3.811-.933-1.119.237-1.851 1.256-2.188 2.287-.622 1.619-.551 3.381-.511 5.085.112 2.837.583 5.645 1.164 8.419.77 3.652 1.32 7.485.42 11.165-.628 2.668-2.25 5.138-4.613 6.571-2.389 1.486-5.241 2.049-8.025 2.071-1.197-.021-2.413.115-3.584-.211 2.209-.85 4.239-2.523 4.866-4.886.24-1.185.487-2.376.618-3.578.069-4.545-1.256-8.99-3.052-13.125zM16.137 33.94c.086 1.726.466 2.989 1.139 3.788.674.798 1.712 1.198 3.116 1.198 2.035 0 3.733-.695 5.094-2.085l2.385 3.675c-.745 1.031-1.827 1.866-3.245 2.504-1.418.637-2.959.956-4.62.956-3.124 0-5.559-.931-7.307-2.794-1.748-1.862-2.622-4.527-2.622-7.994v-1.849c0-3.667.802-6.497 2.407-8.488 1.604-1.992 3.904-2.988 6.898-2.988 2.923 0 5.122.934 6.598 2.801s2.228 4.631 2.256 8.293v2.983H16.137zM5.973 43.546H3.566V22.442H.364v-2.149h3.202v-3.051c.029-2.307.562-4.076 1.601-5.309 1.039-1.232 2.475-1.848 4.309-1.848.831 0 1.598.122 2.3.366l-.172 2.192a7.93 7.93 0 0 0-1.935-.237c-1.16 0-2.066.434-2.718 1.3-.652.867-.978 2.11-.978 3.729v2.858h4.556v2.149H5.973v21.104zm10.207-13.84h6.082v-.559c-.029-1.389-.258-2.442-.688-3.159-.429-.716-1.174-1.074-2.235-1.074-1.06 0-1.83.379-2.31 1.139-.48.759-.763 1.977-.849 3.653zM30.952 9.907c1.034-.63 2.151-1.124 3.339-1.375-.061 1.385-.125 2.773-.009 4.159a34.656 34.656 0 0 1 2.732-2.203c.38 1.65.912 3.28 1.76 4.754.13-1.957.156-4.021 1.09-5.799.617-1.304 1.933-2.087 3.318-2.331-1.253-.753-2.68-1.141-4.119-1.328-1.954-.439-4.098-.249-5.856.745-1.231.709-1.961 2.023-2.255 3.378z"/></svg>