<svg viewBox="0 0 1714 310" xmlns="http://www.w3.org/2000/svg" fill-rule="evenodd" clip-rule="evenodd" stroke-linejoin="round" stroke-miterlimit="1.414"><path d="M1568.245 143.226c-11.082-28.647-17.82-60.485-10.858-90.96 3.243-19.088 16.505-36.227 34.294-43.986 16.371-7.254 34.74-9.534 52.494-7.652 27.374 4.23 51.793 21.478 66.954 44.38-9.023-4.228-18.798-9.62-29.097-7.124-8.543 1.816-14.126 9.592-16.697 17.46-4.751 12.364-4.21 25.816-3.9 38.823.853 21.656 4.445 43.091 8.878 64.27 5.882 27.884 10.078 57.14 3.213 85.24-4.796 20.368-17.18 39.224-35.217 50.159-18.238 11.346-40.01 15.644-61.27 15.813-9.131-.158-18.42.88-27.354-1.613 16.864-6.487 32.356-19.26 37.148-37.302 1.83-9.04 3.713-18.134 4.717-27.309.52-34.697-9.59-68.635-23.305-100.199m15.519-95.947c7.889-4.81 16.414-8.585 25.485-10.5-.464 10.577-.952 21.17-.067 31.749 6.646-5.964 13.638-11.537 20.855-16.816 2.9 12.6 6.964 25.045 13.437 36.296.997-14.945 1.19-30.701 8.321-44.273 4.712-9.958 14.76-15.93 25.33-17.795-9.563-5.747-20.455-8.71-31.447-10.14-14.915-3.35-31.278-1.897-44.702 5.693-9.396 5.407-14.971 15.437-17.212 25.786z" fill-rule="nonzero"/><g fill-rule="nonzero"><path d="M21.66 304.082V142.975H-2.79v-16.407h24.45v-23.297c.22-17.609 4.29-31.117 12.22-40.523 7.93-9.406 18.9-14.109 32.9-14.109 6.34 0 12.19.929 17.55 2.789l-1.31 16.734a60.743 60.743 0 0 0-14.77-1.805c-8.86 0-15.78 3.309-20.75 9.926-4.98 6.617-7.47 16.106-7.47 28.465v21.82h34.78v16.407H40.03v161.107H21.66zM86.89 206.302c0-25.59 5.8-45.827 17.39-60.702s27.4-22.313 47.41-22.313c20.13 0 35.96 7.328 47.5 21.984 11.54 14.657 17.36 34.841 17.47 60.541v18.87c0 26.03-5.82 46.32-17.47 60.86-11.65 14.55-27.37 21.82-47.17 21.82-19.79 0-35.49-7.11-47.08-21.32-11.6-14.22-17.61-33.8-18.05-58.74v-21zm18.37 18.28c0 20.43 4.13 36.49 12.39 48.19 8.26 11.69 19.72 17.53 34.37 17.53 14.99 0 26.44-5.63 34.37-16.88 7.93-11.25 11.95-27.37 12.06-48.34v-18.85c0-20.43-4.16-36.52-12.47-48.265-8.31-11.745-19.74-17.617-34.29-17.617-14.11 0-25.32 5.735-33.63 17.207-8.31 11.471-12.58 27.255-12.8 47.365v19.66zM286 198.262l38.88-71.694h21.49L296 213.682l52.34 90.4h-21.33l-40.85-74.65-41.02 74.65h-21.32l52.17-90.4-50.21-87.114h21.33L286 198.262zM430.31 307.362c-23.85 0-42.44-7.11-55.79-21.32-13.34-14.22-20.01-34.57-20.01-61.04v-14.11c0-28 6.12-49.597 18.37-64.8 12.25-15.203 29.81-22.805 52.67-22.805 22.31 0 39.1 7.126 50.36 21.378 11.27 14.252 17.01 35.357 17.23 63.317v22.77h-92.37c.66 13.18 3.56 22.82 8.7 28.91 5.14 6.1 13.07 9.15 23.79 9.15 15.53 0 28.49-5.31 38.88-15.92l18.21 28.06c-5.69 7.87-13.94 14.25-24.77 19.11-10.83 4.87-22.59 7.3-35.27 7.3zm-29.21-108.93h46.43v-4.27c-.22-10.61-1.97-18.648-5.25-24.117-3.28-5.469-8.97-8.203-17.06-8.203-8.09 0-13.97 2.898-17.64 8.695-3.66 5.797-5.82 15.095-6.48 27.895zM581.18 256.502c0-3.93-1.89-7.57-5.66-10.91-3.78-3.33-12.17-7.84-25.19-13.53-19.14-7.77-32.29-15.81-39.45-24.12-7.17-8.31-10.75-18.65-10.75-31.007 0-15.531 5.6-28.355 16.82-38.472 11.21-10.117 26.05-15.176 44.54-15.176 19.47 0 35.05 5.031 46.76 15.094 11.7 10.062 17.55 23.57 17.55 40.523h-46.43c0-14.437-6.01-21.656-18.04-21.656-4.93 0-8.97 1.531-12.15 4.594-3.17 3.062-4.75 7.328-4.75 12.797 0 3.937 1.75 7.413 5.25 10.423 3.5 3 11.75 7.3 24.77 12.87 18.92 7 32.29 14.8 40.11 23.38 7.82 8.59 11.73 19.72 11.73 33.39 0 15.86-5.96 28.6-17.88 38.23-11.92 9.62-27.56 14.43-46.92 14.43-13.02 0-24.5-2.54-34.45-7.63-9.96-5.08-17.75-12.16-23.38-21.24-5.64-9.08-8.45-18.87-8.45-29.37h44.13c.22 8.1 2.11 14.17 5.66 18.21 3.56 4.05 9.38 6.07 17.47 6.07 12.47 0 18.71-5.63 18.71-16.9zM716.96 256.502c0-3.93-1.89-7.57-5.67-10.91-3.77-3.33-12.16-7.84-25.18-13.53-19.14-7.77-32.29-15.81-39.46-24.12-7.16-8.31-10.74-18.65-10.74-31.007 0-15.531 5.6-28.355 16.81-38.472 11.22-10.117 26.06-15.176 44.55-15.176 19.47 0 35.05 5.031 46.75 15.094 11.71 10.062 17.56 23.57 17.56 40.523h-46.43c0-14.437-6.02-21.656-18.05-21.656-4.92 0-8.97 1.531-12.14 4.594-3.17 3.062-4.75 7.328-4.75 12.797 0 3.937 1.75 7.413 5.25 10.423 3.5 3 11.75 7.3 24.77 12.87 18.92 7 32.29 14.8 40.11 23.38 7.82 8.59 11.73 19.72 11.73 33.39 0 15.86-5.96 28.6-17.88 38.23-11.92 9.62-27.56 14.43-46.92 14.43-13.02 0-24.5-2.54-34.46-7.63-9.95-5.08-17.74-12.16-23.37-21.24-5.64-9.08-8.45-18.87-8.45-29.37h44.13c.22 8.1 2.1 14.17 5.66 18.21 3.55 4.05 9.38 6.07 17.47 6.07 12.47 0 18.71-5.63 18.71-16.9zM845.84 307.362c-23.84 0-42.43-7.11-55.78-21.32-13.34-14.22-20.02-34.57-20.02-61.04v-14.11c0-28 6.13-49.597 18.38-64.8 12.25-15.203 29.81-22.805 52.66-22.805 22.32 0 39.11 7.126 50.37 21.378 11.27 14.252 17.01 35.357 17.23 63.317v22.77h-92.37c.66 13.18 3.56 22.82 8.7 28.91 5.14 6.1 13.07 9.15 23.78 9.15 15.54 0 28.5-5.31 38.89-15.92l18.21 28.06c-5.69 7.87-13.95 14.25-24.77 19.11-10.83 4.87-22.59 7.3-35.28 7.3zm-29.2-108.93h46.43v-4.27c-.22-10.61-1.97-18.648-5.25-24.117-3.28-5.469-8.97-8.203-17.06-8.203-8.1 0-13.98 2.898-17.64 8.695-3.66 5.797-5.83 15.095-6.48 27.895zM960.62 126.568l1.31 17.555c10.5-13.891 24.23-20.836 41.18-20.836 30.52 0 46.21 21.383 47.09 64.145v116.65h-46.6v-113.2c0-10.06-1.5-17.364-4.51-21.904-3.01-4.539-8.28-6.808-15.83-6.808-8.42 0-14.98 4.32-19.69 12.961v128.951h-46.59V126.568h43.64zM1120.68 82.928v43.64h23.79v34.782h-23.79v88.232c0 7.01.96 11.84 2.87 14.46 1.91 2.63 5.61 3.95 11.08 3.95 4.48 0 8.14-.39 10.99-1.15l-.33 36.09c-7.88 2.96-16.41 4.43-25.6 4.43-29.96 0-45.11-17.19-45.44-51.57V161.35h-20.51v-34.782h20.51v-43.64h46.43zM1201.83 304.082h-46.6V126.568h46.6v177.514zM1153.1 80.631c0-7.219 2.3-13.125 6.89-17.719 4.59-4.594 10.72-6.891 18.37-6.891 7.66 0 13.79 2.297 18.38 6.891 4.59 4.594 6.89 10.5 6.89 17.719 0 7.109-2.27 13.015-6.81 17.719-4.54 4.703-10.69 7.054-18.46 7.054-7.76 0-13.91-2.351-18.45-7.054-4.54-4.704-6.81-10.61-6.81-17.719zM1305.28 304.082c-1.31-2.73-2.62-7.33-3.93-13.78-8.32 11.38-19.58 17.06-33.8 17.06-14.88 0-27.21-4.92-37-14.76-9.79-9.85-14.68-22.59-14.68-38.23 0-18.59 5.93-32.98 17.8-43.15 11.87-10.17 28.96-15.36 51.27-15.58h14.11v-14.28c0-7.981-1.37-13.614-4.1-16.895-2.74-3.282-6.73-4.922-11.98-4.922-11.59 0-17.39 6.781-17.39 20.347h-46.43c0-16.41 6.15-29.945 18.46-40.609 12.3-10.664 27.86-15.996 46.67-15.996 19.47 0 34.54 5.059 45.2 15.176 10.67 10.117 16 24.582 16 43.399v83.5c.22 15.32 2.4 27.29 6.56 35.93v2.79h-46.76zm-27.4-33.14c5.14 0 9.52-1.04 13.13-3.12 3.61-2.07 6.29-4.53 8.04-7.38v-36.91h-11.16c-7.87 0-14.08 2.51-18.62 7.54-4.54 5.03-6.81 11.76-6.81 20.18 0 13.13 5.14 19.69 15.42 19.69zM1364.44 52.084h46.594v252h-46.594zM1508.75 256.502c0-3.93-1.88-7.57-5.66-10.91-3.77-3.33-12.16-7.84-25.18-13.53-19.14-7.77-32.29-15.81-39.46-24.12-7.16-8.31-10.74-18.65-10.74-31.007 0-15.531 5.6-28.355 16.81-38.472 11.21-10.117 26.06-15.176 44.55-15.176 19.46 0 35.05 5.031 46.75 15.094 11.71 10.062 17.56 23.57 17.56 40.523h-46.43c0-14.437-6.02-21.656-18.05-21.656-4.92 0-8.97 1.531-12.14 4.594-3.17 3.062-4.76 7.328-4.76 12.797 0 3.937 1.75 7.413 5.25 10.423 3.5 3 11.76 7.3 24.78 12.87 18.92 7 32.29 14.8 40.11 23.38 7.82 8.59 11.73 19.72 11.73 33.39 0 15.86-5.96 28.6-17.88 38.23-11.92 9.62-27.56 14.43-46.92 14.43-13.02 0-24.5-2.54-34.46-7.63-9.95-5.08-17.74-12.16-23.38-21.24-5.63-9.08-8.45-18.87-8.45-29.37h44.14c.22 8.1 2.1 14.17 5.66 18.21 3.55 4.05 9.38 6.07 17.47 6.07 12.47 0 18.7-5.63 18.7-16.9z"/></g></svg>