<svg viewBox="0 0 244 112" xmlns="http://www.w3.org/2000/svg" xmlns:serif="http://www.serif.com/" fill-rule="evenodd" clip-rule="evenodd" stroke-linejoin="round" stroke-miterlimit="1.414" fill="#fff"><path serif:id="caitlyn and maki" d="M100.289 13.102c4.388.068 8.29 3.257 10.54 7.185 4.028-5.309 13.21-6.835 18.934-5.6 4.726 1.02 7.779 7.048 9.842 11.066 6.309 12.322 3.293 27.531 3.18 38.965-.09 5.933-2.535 11.63-2.557 17.592 0 0-.225 1.842-1.216 2.753-1.928 1.766-5.753.72-6.233-2.15-.045-.272-.038-.342-.053-.617v-2.047c.053-1.202.233-1.472.293-1.902.735-5.287 2.183-10.357 2.288-15.782.262-11.567 2.64-23.738-2.438-33.506-1.343-2.58-2.791-5.303-4.877-7.036 0 0-2.858-.24-4.943.007-3.128.373-6.084 1.56-7.374 5.042-.488 1.328-.833 2.708-1.095 4.1 0 0 .247 2.04.24 3.587-.008 1.657-.165 3.308-.18 4.964l-.008 1.945c-.135 1.015-.3 1.28-.615 1.759-1.53 2.312-5.836 1.866-6.706-.963-.286-.915-.203-1.124-.263-1.579-.375-3.1-.533-6.234-.12-9.333 0 0-.953-6.8-4.463-9.967-1.343-1.21-3.526-1.32-5.214.315-6.001 5.81-7.33 15.437-7.742 24.56-.33 7.42.203 14.87 1.073 22.222.428 3.318 1.98 6.447 2.055 9.825 0 0-.42 3.22-2.813 3.839-2.363.609-4.486-1.507-4.718-4.15-.323-3.293-1.733-6.318-2.116-9.89-1.628-15.332-2.715-31.326 4.471-45.305 2.566-4.987 6.407-9.682 12.415-9.895.135-.003.278-.005.413-.004zm68.595 35.253c.637.044.81.107 1.148.233 2.31.862 2.723 4.09 3.135 6.774.803 5.137-.465 10.883 2.258 15.44.435.723.848.574 1.268.668 2.543.562 3.9 4.29 1.823 6.336-1.636 1.607-4.569 1.222-6.662-.095 0 0-.69.891-1.44 1.524-5.589 4.705-15.28 2.257-18.161-5.701-3.136-8.678 1.125-19.883 8.589-23.5 1.658-.807 3.578-1.088 5.424-.83 0 0 1.493-.868 2.618-.849zm25.055-36.767c.248 1.43.51 3.315.54 5.101.06 8.349 0 16.703.195 25.06 2.37-.962 4.951-1.62 7.322-.537 7.351 3.36 8.477 17.373-.833 20.222-.795.242-1.935.462-1.935.462 3.758 3.543 7.366 6.976 10.847 11.31 2.183 2.7 1.74 1.81 2.018 2.162 1.628 2.066.27 5.8-2.61 6.059-1.83.162-.578.383-2.153-.438-2.694-1.404-4.179-4.629-6.377-7.203-1.688-1.943-3.788-3.588-5.731-5.373l-.233-.217c0 2.917.023 5.814.45 8.806 0 0 .09 3-2.025 4.049-2.873 1.424-5.536-1.712-6.241-6.133-.713-4.452-1.14-8.956-1.53-13.455-.39-4.477-.368-9.12 1.642-13.134l.03-.06c-.232-10.524-.165-21.016-.337-31.505-.053-1.57-.233-3.14-.413-4.704l-.052-1.542c.105-.541-.616.035.742-1.71 1.178-1.506 1.74-1.448 3.12-1.445.421.035.594-.006 1.441.354 0 0 .885.31 1.65 1.512 0 0 .233.96.473 2.358 0 .017-.007.036-.007.048l.007-.047v-.001c.008-.049.015-.093 0 .001zm27.786 35.751c.645.069.825.14 1.163.282 2.88 1.214 2.288 5.812 2.43 9.639.158 4.075.368 8.154.375 12.24v8.19c-.09 3.31-5.52 5.18-7.164 1.55-.21-.464-.315-.732-.337-1.55 0-8.821-.48-17.712-.51-26.313 0 0 .547-4.22 4.043-4.038zm-57.245 9.329c-.622.138-.945.51-1.32.853-4.448 4.019-6.414 12.202-2.25 15.87 1.687 1.485 4.86 1.051 5.288-1.14.39-1.975.3-4.028.195-6.066 0 0-.315-4.347-.9-8.07-.105-.742.09-.276-.413-.768-.255-.249-.51-.696-.6-.679zm45.265 17.319c.773.158.33.068.33.068-1.058-.223-.48-.086-.33-.068zm-10.72-25.842c-1.515.54-3.045 1.088-4.133 2.249 0 0 .015 2.018.045 4.235 0 0-.803.56.968.234 1.695-.3 3.863-.213 4.305-2.34.346-1.618-.037-3.632-1.147-4.384 0 0-.023 0-.038.006zm19.272-42.218C221.5 2.047 226.759-.024 231.86 0c5.033.063 10 3.267 11.23 8.33 2.055 8.48-5.972 16.826-11.718 23.414-3.045 3.366-7.216 7.512-10.69 6.823a4.098 4.098 0 0 1-4.388-1.187l-.24-.271c-4.531-4.894-10.457-8.662-13.48-14.634-2.349-4.657-2.799-10.424-.72-15.205 1.372-3.168 4.83-5.166 8.371-5.156 3.076.054 6.084 1.408 8.072 3.813zm1.793 24.415a4.183 4.183 0 0 1 1.74.034c4.839-3.75 9.302-8.534 12.408-13.722 1.493-2.493 2.805-5.976.802-8.08-1.402-1.48-3.758-1.205-5.506-.823-3.21.703-5.866 2.617-6.946 6.328 0 0 1.388 5.727-3.293 5.7-1.966-.012-3.811-1.48-4.276-3.573a9.831 9.831 0 0 1-.128-.814c-.217-.697-.307-1.373-.495-1.697-1.29-2.17-2.888-5.466-5.356-3.825-.57.38-.593 1.328-.743 2.184-.99 5.595 3.353 10.821 7.27 14.346 1.447 1.303 3.12 2.612 4.523 3.941v.001z" fill-rule="nonzero"/><path d="M47.997 56.246c3.376.473 4.054 5.468 3.901 9.94-.089 3.438.424 6.807.144 10.384-.792 10.352-1.212 21.21-6.374 29.873-3.343 5.61-12.103 7.186-16.379 1.741-1.677-2.136-2.374-4.94-2.18-7.696 0 0 .886-3.382 3.506-3.55 2.16-.14 4.136 1.815 3.97 4.162-.09 1.494.558 3.888 2.844 3.159 1.83-.583 2.62-2.955 3.46-5.076 2.683-6.778 3.021-14.313 3.563-21.696-.414.269-.451.274-.655.379-3.631 1.864-8.596 1.065-11.218-2.294-3.333-4.27-3.03-10.18-2.623-15.288 0 0 .267-1.886 1.331-2.789 2.05-1.739 5.985-.378 6.168 2.633.051.837-.045 1.033-.077 1.466a48 48 0 0 0-.103 2.146c-.014.581-.013 1.161.004 1.742.014.433.037.867.074 1.3.027.323.062.645.106.966a14.383 14.383 0 0 0 .258 1.368c.294 1.173.38 2.564 2.444 2.129 2.41-.508 2.148-4.66 3.104-8.278.356-1.404.625-3.484.625-3.484.315-1.87 1.577-3.252 3.844-3.254l.263.018v-.001zM6.102 20.812c3.157.279 2.158.443 3.052 1.871l.316.706c.285.948.197.995.212 1.347.304 6.959-.384 13.852-.347 20.669.018 3.311.174 6.62.35 9.927 1.01-.433 1.28-.504 1.93-.682 6.295-1.722 14.098 2.198 14.573 9.649.443 6.942-3.05 14.446-8.289 18.605-2.722 2.16-6.842 2.257-10.24.996 0 0-1.452.728-2.861.323-2.807-.807-3.877-4.678-4.4-7.389-.99-5.144-.073-11.134 2.09-15.046l.03-.052c-.422-8.394-.912-16.853-.358-25.23.21-3.647.13-7.345.043-11.004 0 0-.25-1.235.294-2.512l.901-1.223c.72-.6 1.196-.98 2.704-.955zm8.877 40.868c-1.825.044-3.554.99-4.837 2.3 0 0 .18 4.278.068 7.851a91.42 91.42 0 0 1-.209 3.916c-.098 1.304.264.15.882 1.275 1.017.155 2.463-.104 2.463-.104 3.546-3.4 5.856-8.715 5.314-12.561-.22-1.574-1.716-2.693-3.68-2.677h-.001z" fill-rule="nonzero" serif:id="by the"/></svg>