<?xml version="1.0" encoding="UTF-8" standalone="no"?>
<!DOCTYPE svg PUBLIC "-//W3C//DTD SVG 1.1//EN" "http://www.w3.org/Graphics/SVG/1.1/DTD/svg11.dtd">
<svg width="100%" height="100%" viewBox="0 0 1937 441" version="1.1" xmlns="http://www.w3.org/2000/svg" xmlns:xlink="http://www.w3.org/1999/xlink" xml:space="preserve" xmlns:serif="http://www.serif.com/" style="fill-rule:evenodd;clip-rule:evenodd;stroke-linejoin:round;stroke-miterlimit:1.41421;">
    <path d="M1108.52,440.002L1080.83,440.002L1080.83,91.445L1106.66,91.445L1108.05,127.045C1126.2,100.209 1152.5,86.791 1186.93,86.791C1217.03,86.791 1240.64,98.193 1257.78,120.995C1274.92,143.798 1283.5,175.443 1283.5,215.93L1283.5,219.885C1283.5,259.131 1274.81,290.271 1257.43,313.307C1240.06,336.342 1216.79,347.86 1187.63,347.86C1153.19,347.86 1126.82,335.761 1108.52,311.562L1108.52,440.002ZM5.718,186.814C7.437,186.619 9.625,186.736 12.28,187.283C30.366,190.681 41.772,200.798 44.819,218.416C49.311,244.47 50.014,270.837 49.428,297.166C48.022,362.048 83.921,388.455 136.968,398.26C163.335,403.142 190.211,405.173 216.811,398.65C254.936,389.275 278.413,360.212 276.343,325.642C274.507,295.798 240.288,272.869 211.186,282.087C203.608,284.509 197.944,289.041 196.968,297.126C195.952,305.681 200.288,311.658 209.194,311.658C218.218,311.658 222.28,308.376 220.757,299.392C220.171,296.072 220.093,293.064 223.53,291.541C227.359,289.861 231.264,290.487 234.389,293.337C240.053,298.494 242.827,304.978 243.257,312.634C244.975,341.697 223.725,370.798 196.46,374.822C160.796,380.095 134.389,362.322 126.069,329.978C122.866,317.4 123.139,305.134 127.905,292.947C128.764,290.72 131.46,288.064 128.452,285.72C126.108,283.884 123.178,284.94 120.6,285.72C109.428,288.923 99.116,295.291 90.718,302.673C83.608,308.962 76.538,312.361 68.374,304.431C61.147,297.439 60.991,288.376 68.764,280.095C90.796,256.58 119.038,245.251 150.093,241.033C160.836,239.548 169.936,238.572 179.116,238.572C205.249,238.806 230.913,240.251 252.436,247.478C317.749,269.314 337.553,345.174 291.421,395.994C271.264,418.22 242.788,433.064 213.648,437.166C171.499,443.064 129.819,439.861 89.428,426.033C38.686,408.611 8.883,367.83 7.553,314.978C6.577,276.072 6.616,237.126 0.405,198.572C-0.767,191.345 0.483,187.439 5.718,186.814ZM1880.09,91.445L1932.21,91.445L1932.21,114.248L1880.09,114.248L1880.09,282.197C1880.09,296.174 1882.61,306.58 1887.65,313.412C1892.69,320.245 1901.11,323.661 1912.9,323.661C1917.55,323.661 1925.08,322.886 1935.47,321.334L1936.63,343.941C1929.34,346.554 1919.41,347.86 1906.85,347.86C1887.77,347.86 1873.89,342.314 1865.2,331.223C1856.51,320.132 1852.17,303.806 1852.17,282.244L1852.17,114.248L1805.87,114.248L1805.87,91.445L1852.17,91.445L1852.17,26.992L1880.09,26.992L1880.09,91.445ZM1017.08,161.947L989.153,161.947C989.153,147.211 982.987,134.956 970.655,125.184C958.323,115.411 942.772,110.525 924.002,110.525C905.698,110.525 891,114.597 879.909,122.741C868.818,130.884 863.272,141.471 863.272,154.502C863.272,167.066 867.887,176.8 877.117,183.703C886.347,190.606 903.177,196.927 927.609,202.667C952.04,208.406 970.345,214.533 982.522,221.049C994.699,227.564 1003.73,235.397 1009.63,244.549C1015.52,253.702 1018.47,264.793 1018.47,277.823C1018.47,299.074 1009.9,316.06 992.76,328.78C975.619,341.5 953.243,347.86 925.631,347.86C896.313,347.86 872.541,340.763 854.314,326.57C836.087,312.376 826.974,294.421 826.974,272.704L854.896,272.704C855.982,288.992 862.846,301.673 875.488,310.747C888.13,319.822 904.845,324.359 925.631,324.359C945.021,324.359 960.688,320.093 972.633,311.562C984.577,303.03 990.549,292.249 990.549,279.219C990.549,265.413 985.004,254.322 973.912,245.946C962.821,237.569 946.107,231.015 923.77,226.284C901.432,221.553 884.097,216.123 871.765,209.996C859.433,203.869 850.281,196.384 844.309,187.542C838.337,178.701 835.351,167.997 835.351,155.432C835.351,135.577 843.65,119.173 860.247,106.22C876.845,93.268 898.097,86.791 924.002,86.791C952.079,86.791 974.61,93.733 991.596,107.616C1008.58,121.5 1017.08,139.61 1017.08,161.947ZM1781.2,176.374L1754.44,176.374C1753.2,156.673 1746.11,140.773 1733.15,128.674C1720.2,116.575 1703.87,110.525 1684.17,110.525C1659.04,110.525 1639.54,119.599 1625.65,137.749C1611.77,155.898 1604.83,181.338 1604.83,214.068L1604.83,222.212C1604.83,254.322 1611.77,279.374 1625.65,297.368C1639.54,315.362 1659.12,324.359 1684.41,324.359C1703.8,324.359 1720.05,318.891 1733.15,307.955C1746.26,297.019 1753.36,282.864 1754.44,265.491L1781.2,265.491C1780.43,280.848 1775.62,294.847 1766.78,307.49C1757.93,320.132 1746.18,330.021 1731.52,337.157C1716.87,344.292 1701.16,347.86 1684.41,347.86C1651.37,347.86 1625.19,336.381 1605.88,313.423C1586.56,290.465 1576.91,259.596 1576.91,220.816L1576.91,212.439C1576.91,187.62 1581.25,165.67 1589.94,146.59C1598.62,127.511 1611.07,112.774 1627.28,102.381C1643.49,91.988 1662.46,86.791 1684.17,86.791C1711.79,86.791 1734.55,95.013 1752.47,111.456C1770.38,127.898 1779.96,149.538 1781.2,176.374ZM1357.49,219.187L1357.49,224.539C1357.49,253.081 1365.67,276.853 1382.04,295.856C1398.4,314.858 1418.99,324.359 1443.81,324.359C1458.7,324.359 1471.85,321.645 1483.25,316.215C1494.65,310.786 1505.01,302.099 1514.32,290.155L1531.77,303.418C1511.29,333.046 1481.59,347.86 1442.65,347.86C1421.24,347.86 1401.89,342.586 1384.6,332.038C1367.3,321.489 1353.84,306.792 1344.23,287.945C1334.61,269.097 1329.8,247.962 1329.8,224.539L1329.8,214.533C1329.8,190.335 1334.49,168.54 1343.88,149.15C1353.26,129.76 1366.33,114.519 1383.08,103.428C1399.84,92.337 1417.99,86.791 1437.53,86.791C1468.09,86.791 1492.33,97.223 1510.24,118.087C1528.16,138.951 1537.12,167.454 1537.12,203.597L1537.12,219.187L1357.49,219.187ZM526.21,343.206L498.288,343.206L498.288,91.445L526.21,91.445L526.21,343.206ZM605.694,343.206L578.005,343.206L578.005,91.445L604.53,91.445L605.461,134.491C614.923,118.979 626.713,107.151 640.829,99.007C654.945,90.863 670.534,86.791 687.598,86.791C714.589,86.791 734.677,94.392 747.862,109.594C761.048,124.796 767.718,147.599 767.873,178.002L767.873,343.206L740.184,343.206L740.184,177.77C740.029,155.277 735.259,138.524 725.874,127.511C716.489,116.497 701.481,110.99 680.85,110.99C663.631,110.99 648.391,116.381 635.128,127.162C621.865,137.942 612.054,152.485 605.694,170.789L605.694,343.206ZM1255.57,214.999C1255.57,182.889 1248.98,157.526 1235.8,138.912C1222.61,120.297 1204.23,110.99 1180.65,110.99C1163.59,110.99 1148.93,115.101 1136.67,123.322C1124.42,131.544 1115.03,143.488 1108.52,159.155L1108.52,279.917C1115.19,294.343 1124.73,305.357 1137.14,312.958C1149.55,320.559 1164.21,324.359 1181.12,324.359C1204.54,324.359 1222.8,315.013 1235.91,296.321C1249.02,277.629 1255.57,250.522 1255.57,214.999ZM311.616,87.711C303.491,87.165 298.647,92.791 295.053,99.665C292.553,104.391 290.561,109.469 289.428,114.625C281.148,151.422 270.952,187.79 263.686,224.821C261.694,234.782 263.686,241.541 273.452,244.821C284.077,248.375 287.944,240.836 291.382,233.141C303.1,206.852 311.147,179.431 318.218,151.696C321.889,137.36 328.335,123.688 329.936,108.844C330.757,97.985 325.796,91.149 315.288,88.375C313.999,88.025 312.788,87.79 311.616,87.711ZM59.702,30.29C69.117,30.094 77.594,35.954 81.811,46.852C89.507,66.579 91.538,87.633 95.835,108.102C102.71,140.915 109.311,173.805 113.803,207.047C114.233,210.446 114.585,213.844 114.78,217.282C115.288,226.149 112.945,233.258 102.905,235.485C93.218,237.672 84.468,233.141 80.874,223.258C72.475,200.29 65.249,176.93 59.428,153.258C52.594,125.485 46.147,97.594 39.624,69.743C38.53,64.978 38.022,60.016 37.75,58.258C37.75,40.719 43.218,33.298 55.6,30.758C56.953,30.491 58.325,30.335 59.702,30.29ZM238.569,25.604C230.21,26.306 223.843,32.634 221.069,44.354C218.843,54.001 217.789,63.884 216.655,73.728C211.811,116.892 205.522,159.939 203.96,205.408C203.96,206.111 204.038,208.768 203.96,211.423C203.57,221.267 207.944,227.4 218.061,229.353C229.546,231.541 233.491,224.08 235.601,215.447C244.781,178.767 249.428,141.307 254.781,103.962C257.397,85.876 261.733,67.986 261.928,49.626C262.085,35.33 254.819,26.853 242.28,25.603C241.047,25.486 239.804,25.486 238.57,25.603L238.569,25.604ZM144.663,0.134C134.858,0.916 129.273,6.58 126.733,15.525C124.624,22.947 124.155,30.486 124.897,38.181C128.687,76.814 132.085,115.486 136.225,154.081C138.375,173.767 140.522,193.494 145.445,212.712C147.827,221.932 154.897,225.134 164.116,224.626C172.944,224.158 177.007,219.314 178.53,211.033C180.835,198.884 179.507,186.697 180.405,170.251C178.061,127.322 175.6,80.173 172.749,33.025C172.28,25.525 170.991,17.947 167.124,11.033C162.164,2.166 154.35,-0.686 144.664,0.134L144.663,0.134ZM1437.53,110.525C1416.59,110.525 1398.94,118.203 1384.6,133.56C1370.25,148.917 1361.52,169.548 1358.42,195.454L1509.43,195.454L1509.43,192.429C1508.65,168.23 1501.75,148.529 1488.72,133.328C1475.69,118.126 1458.63,110.525 1437.53,110.525ZM493.402,18.732C493.402,13.489 495.108,9.057 498.521,5.434C501.934,1.812 506.587,0.001 512.482,0.001C518.377,0.001 523.069,1.812 526.559,5.434C530.049,9.057 531.795,13.489 531.795,18.73C531.795,23.971 530.049,28.365 526.559,31.911C523.069,35.457 518.377,37.23 512.482,37.23C506.587,37.23 501.934,35.457 498.521,31.911C495.108,28.365 493.402,23.972 493.402,18.732Z" style="fill-rule:nonzero;"/>
</svg>
