<svg viewBox="0 0 1522 611" xmlns="http://www.w3.org/2000/svg" fill-rule="evenodd" clip-rule="evenodd" stroke-linejoin="round" stroke-miterlimit="1.414"><path d="M1325.329.123c17.09 2.626 30.38 17.266 31.07 34.81.07 96.472 8.81 192.024 11.4 287.88 48.9-19.515 108.68 32.196 135.46 86.69 30.48 62.033 25.34 147.75-43.07 183.675-23.47 12.324-50.34 16.943-77.1 17.117 0 0-19.68-1.717-28.89-13.747-5.09-6.649-7.76-15.18-7.14-23.51 0 0-27.85 1.553-38.88-18.55l-12.2-24.39c-17.88-36.412-11.12-81.144 3.22-121.65 0 0-.72-24.089-.83-44.063-.79-108.978-11.83-218.048-12.1-326.696 0 0 .74-19.1 11.71-28.889 7.32-6.528 17.09-9.457 27.35-8.677zm-196.77 345.822c7.23.478 14.2 2.865 19.86 7.218 0 0 26.94-3.462 38.69 15.208 12.95 20.57 11.2 23.74 15.74 31.893 13.32 24.336 17.03 53.264 30.91 77.103 3.92 6.732 12.3 8.348 12.3 8.348 25.85 3.352 41.86 39.213 21.01 59.83-17.39 17.172-50.44 10.165-70.84-5.594 0 0-4.48 6.916-8.68 11.58-46.59 51.675-146.37 47.414-185.03-18.164-35.51-60.224 11.55-151.139 85.22-179.69 12.98-5.032 26.84-7.989 40.82-7.732zm-404.73-39.883c73.944 1.176 133.213 129.007 33.262 172.628-16.897 7.374-35.512 10.065-53.86 10.193 6.76 15.272 30.727 19.487 51.96 22.766 19.514 3.02 39.294 4.068 59.075 4.224l4.968.055c25.062 1.855 42.547 34.87 26.08 56.358-13.085 17.072-39.928 14.206-65.053 12.535-42.078-2.81-86.82-7.337-118.75-35.998-61.62-55.31-37.982-182.06 10.056-222.787 14.528-12.315 32.74-20.102 52.262-19.974zm-602.91 3.462c26.144 1.773 44.263 37.083 24.253 58.792-8.853 9.615-24.777 9.798-34.098 12.434-22.104 6.263-32.426 30.847-37.036 50.875-7.053 30.654-2.608 68.416 27.632 80.272 21.03 8.246 48.82 6.667 64.844-3.306 4.82-3.003 9.54-7.586 15.53-9.404 23.646-7.18 51.93 18.128 43.592 44.227-6.254 19.542-29.855 31.27-51.17 36.834-56.725 14.822-122.413 2.121-153.854-50.012-50.157-83.155-4.437-212.456 90.242-220.39 3.186-.276 4.03-.44 10.065-.322zm157.888 6.07c5.95.405 7.732 1.038 11.047 2.324 12.067 4.656 21.058 16.447 22.28 29.442.587 6.345.155 8.366.183 12.25.45 48.938 1.322 101.182 18.862 141.707 0 0 15.272 7.173 27.697 3.306l.184-.064c16.906-25.878 26.76-56.027 28.192-87.094.55-12.159.58-24.336.588-36.513 0 0 1.313-17.54 12.682-26.962 19.515-16.19 56.12-3.012 57.414 25.382 2.49 54.448-7.09 112.257-38.863 161.544-32.38 50.232-124.553 46.88-150.257-7.338-15.06-31.783-20.222-67.607-23.455-103.34-2.323-25.694-3.13-51.508-3.205-77.295 0 0 .882-18.596 11.415-28.21 6.41-5.86 12.462-8.909 23.61-9.175.542.01 1.084.027 1.626.037zM900.177 18.31C919 21.047 931.39 38.261 931.48 58.2c.918 108.646 23.548 216.127 24.248 323.37.3 45.245 4.86 90.381 8.95 135.765l1.74 5.363c2.08 8.008 1.53 10.194 1.43 14.62-.11 4.85-.47 9.725-2.11 14.408-1.27 3.683.62.634-3.71 7.843 0 0-.3 1.48-5.7 6.842l-8.943 6.08c-11.837 5.16-7.585 3.81-18.155 3.231 0 0-1.56.47-9.1-2.057 0 0-1.782.074-8.78-4.775 0 0-1.442-.395-6.355-6.116l-3.012-4.362c-3.37-6.07-3.04-6.465-3.637-8.586-4.646-16.558-4.316-34.62-5.702-52.308-6.107-78.003-6.888-158.853-15.06-237.315-7.08-67.929-16.017-135.325-16.246-204.28-.055-16.218 12.195-35.477 31.168-37.598 4.904-.548 6.088-.127 7.668-.014h.002zm-322.18 280.324c.78 33.52 1.36 67.056 1.386 100.603-.156 47.046-2.323 94.248-5.776 141.652 0 0-.377 5.822-1.506 9.615-1.304 4.353.652 1.79-4.803 10.267 0 0-7.934 9.91-17.026 13.196-5.18 1.874-5.38 1.516-7.108 1.764-11.295 1.57-22.903-2.94-30.993-11.379l-6.768-11.277c-3.885-11.543-.35-41.104.845-67.892 5.914-133.387-2.37-266.003-3.03-398.545-.157-30.544 8.622-47.606 31.158-50.106 4.904-.544 6.088-.12 7.668-.007 7.797 1.14 9 2.014 12.205 3.66 11.396 5.843 18.577 18.242 19.064 31.17.046 52.062 1.414 104.25 2.838 156.522 19.836 3.572 39.525 8.706 59.324 8.77 0 0 41.306 11.672 34.06 42.968-4.233 18.275-23.38 28.13-44.373 26.843-15.924-.973-31.535-4.794-47.165-7.824zm813.922 90.253c-10.01 6.53-16.01 18.431-21.41 30.167l-.25.533c1.8 27.605 4.29 55.164 4.35 82.76v36.467l-.08 2.185s28.22.156 46.75-7.052c9.15-3.564 17.59-9.358 22.93-17.596 26.03-40.12-7.79-103.945-52-127.482 0 0-.04-.138-.29.018zm-262.89 27.1c-31.31.983-60.17 29.25-67.95 59.664-1.67 6.493-2.13 13.674.72 19.928 11.64 25.52 51.25 27.412 71.91 10.625 2.38-1.938 3.28-4.812 4.16-7.586 6.92-22.177 9.59-46.182 1.22-68.13-1.75-2.168-2.04-2.158-2.66-2.875-3.78-4.417-6.63-11.69-7.4-11.626zm-406.038-39.8c-12.195.165-18.34 24.694-22.012 42.114 0 0 53.787 4.83 33.482-31.535-2.736-4.904-6.795-10.597-11.47-10.58v.001z" fill-rule="nonzero"/></svg>