<svg viewBox="0 0 730 142" xmlns="http://www.w3.org/2000/svg" fill-rule="evenodd" clip-rule="evenodd" stroke-linejoin="round" stroke-miterlimit="1.414"><g fill-rule="nonzero"><path d="M50.879.586c14.974 0 24.935 6.25 29.883 18.75 2.734 6.12 4.102 20.02 4.102 41.7.455 15.299.683 27.539.683 36.718 0 15.495-1.041 26.726-3.125 33.692-.586 1.237-1.855 2.734-3.808 4.492-6.25 3.906-13.868 5.859-22.852 5.859h-4.785c-10.352 0-20.703-2.604-31.055-7.812C6.641 126.368 0 115.398 0 101.075c0-19.336 9.245-32.064 27.735-38.184 6.315-1.823 12.532-2.734 18.652-2.734H50c4.623 0 9.929.52 15.918 1.562 0-22.917-1.725-36.751-5.175-41.504-2.019-4.101-5.664-6.152-10.938-6.152-9.961 0-16.732 4.394-20.312 13.183 0 1.889-1.628 3.744-4.883 5.567-1.758.651-3.483.976-5.176.976-4.167 0-7.096-1.595-8.789-4.785a2.049 2.049 0 0 1-.293-1.074v-.879c.391-3.711 2.767-8.268 7.129-13.672C25.619 4.851 36.752.586 50.879.586zM19.043 100.684c0 7.422 2.67 13.704 8.008 18.848 7.292 5.794 16.048 8.691 26.27 8.691h2.05c5.99-.26 8.985-.846 8.985-1.758 1.497-7.422 2.246-16.992 2.246-28.711 0-2.474-.098-9.668-.293-21.582-6.315-1.627-12.337-2.441-18.066-2.441h-1.465c-13.021 0-21.42 4.492-25.196 13.476-1.692 4.623-2.539 9.115-2.539 13.477z" fill="#e91e63"/><path d="M104.59.196c4.492 0 7.683 1.823 9.571 5.468 7.942 53.646 15.983 91.049 24.121 112.207l2.148 5.176h.098c4.687-9.961 9.635-29.655 14.843-59.082 2.409-14.453 5.209-33.984 8.399-58.594 1.758-3.32 4.785-4.98 9.082-4.98 4.297 0 7.422 1.66 9.375 4.98.325.456.488 1.042.488 1.758v.293c-5.924 48.698-12.077 83.887-18.457 105.567-3.19 10.481-6.347 17.773-9.472 21.875-3.581 4.622-7.943 6.933-13.086 6.933h-1.368c-9.049 0-16.211-7.747-21.484-23.242C111.361 98.438 103.972 64.486 96.68 16.7c-.911-5.73-1.367-9.148-1.367-10.254v-.293c0-2.018 1.693-3.776 5.078-5.274 1.563-.455 2.962-.683 4.199-.683z" fill="#9c27b0"/><path d="M235.45.586c14.974 0 24.935 6.25 29.882 18.75 2.732 6.12 4.102 20.02 4.102 41.7.46 15.299.68 27.539.68 36.718 0 15.495-1.04 26.726-3.12 33.692-.59 1.237-1.857 2.734-3.81 4.492-6.25 3.906-13.867 5.859-22.852 5.859h-4.785c-10.351 0-20.703-2.604-31.054-7.812-13.282-7.617-19.922-18.587-19.922-32.91 0-19.336 9.244-32.064 27.734-38.184 6.315-1.823 12.533-2.734 18.652-2.734h3.614c4.622 0 9.928.52 15.918 1.562 0-22.917-1.726-36.751-5.176-41.504-2.018-4.101-5.664-6.152-10.938-6.152-9.961 0-16.731 4.394-20.312 13.183 0 1.889-1.628 3.744-4.883 5.567-1.758.651-3.483.976-5.176.976-4.166 0-7.096-1.595-8.789-4.785a2.049 2.049 0 0 1-.293-1.074v-.879c.391-3.711 2.767-8.268 7.129-13.672C210.189 4.851 221.322.586 235.45.586zm-31.836 100.098c0 7.422 2.669 13.704 8.007 18.848 7.292 5.794 16.049 8.691 26.27 8.691h2.051c5.989-.26 8.984-.846 8.984-1.758 1.498-7.422 2.246-16.992 2.246-28.711 0-2.474-.097-9.668-.293-21.582-6.315-1.627-12.337-2.441-18.066-2.441h-1.465c-13.021 0-21.419 4.492-25.195 13.476-1.693 4.623-2.539 9.115-2.539 13.477z" fill="#e91e63"/><path d="M319.434.196c4.36 0 7.55 1.725 9.57 5.175.2.782.29 1.368.29 1.758v25.586h23.83c5.08 0 8.43 1.856 10.06 5.567.13.39.2.748.2 1.074v.879c-1.05 3.971-4.33 5.957-9.87 5.957h-24.22v89.551c0 1.822-1.36 3.483-4.1 4.98-1.43.716-3.16 1.074-5.17 1.074-4.3 0-7.39-1.595-9.28-4.785-.26-.456-.39-1.042-.39-1.758V46.192h-22.85c-4.82 0-8.21-1.628-10.16-4.883-.26-.456-.39-1.042-.39-1.758v-1.074c0-2.279 1.95-4.069 5.86-5.371.78-.261 1.98-.391 3.61-.391h23.93V6.055c0-2.344 2.08-4.232 6.25-5.664 1.23-.13 2.18-.195 2.83-.195z" fill="#9c27b0"/><path d="M411.914.586c14.97 0 24.93 6.25 29.88 18.75 2.74 6.12 4.11 20.02 4.11 41.7.45 15.299.68 27.539.68 36.718 0 15.495-1.04 26.726-3.13 33.692-.58 1.237-1.85 2.734-3.8 4.492-6.25 3.906-13.87 5.859-22.86 5.859h-4.78c-10.35 0-20.71-2.604-31.06-7.812-13.28-7.617-19.92-18.587-19.92-32.91 0-19.336 9.25-32.064 27.74-38.184 6.31-1.823 12.53-2.734 18.65-2.734h3.61c4.62 0 9.93.52 15.92 1.562 0-22.917-1.73-36.751-5.18-41.504-2.01-4.101-5.66-6.152-10.93-6.152-9.96 0-16.74 4.394-20.32 13.183 0 1.889-1.62 3.744-4.88 5.567-1.76.651-3.48.976-5.17.976-4.17 0-7.1-1.595-8.79-4.785a2.01 2.01 0 0 1-.3-1.074v-.879c.39-3.711 2.77-8.268 7.13-13.672 8.14-8.528 19.27-12.793 33.4-12.793zm-31.84 100.098c0 7.422 2.67 13.704 8.01 18.848 7.29 5.794 16.05 8.691 26.27 8.691h2.05c5.99-.26 8.99-.846 8.99-1.758 1.49-7.422 2.24-16.992 2.24-28.711 0-2.474-.1-9.668-.29-21.582-6.31-1.627-12.34-2.441-18.07-2.441h-1.46c-13.02 0-21.42 4.492-25.2 13.476-1.69 4.623-2.54 9.115-2.54 13.477z" fill="#e91e63"/><path d="M506.744 0c18.81 0 31.51 12.858 38.08 38.575v1.367c0 3.125-2.64 5.273-7.91 6.445-.78.065-1.46.098-2.05.098-4.3 0-7.26-1.693-8.89-5.078-1.89-6.706-3.94-12.11-6.15-16.211-4.43-7.748-8.92-11.621-13.48-11.621-4.68 0-8.72 3.418-12.1 10.254-1.57 3.059-3.23 8.528-4.99 16.406-3.64 16.862-5.47 48.567-5.47 95.117 0 2.604-2.44 4.655-7.32 6.152-1.24.196-2.15.293-2.73.293-3.71 0-6.51-1.399-8.4-4.199-.39-.716-.59-1.367-.59-1.953 0-53.516 2.38-88.119 7.13-103.809 1.17-4.362 2.57-8.398 4.2-12.109 1.63-3.451 4.04-6.934 7.23-10.449 4.36-3.907 8.56-6.413 12.6-7.52C500.004.586 503.614 0 506.744 0z" fill="#9c27b0"/><path d="M622.074 0c4.49 0 7.68 1.823 9.57 5.469l.19.977c0 29.297-.16 72.037-.49 128.222 0 1.172-1.3 2.67-3.9 4.493-1.3.651-4.92 1.302-10.84 1.953-3.19.39-7.42.618-12.7.683-29.75-.455-49.22-10.156-58.4-29.101-2.99-6.576-4.49-14.421-4.49-23.535 0-26.107 11.07-43.653 33.21-52.637 8.85-3.255 18.49-4.883 28.9-4.883h.2c2.8 0 5.95.13 9.47.391V6.153c0-2.474 2.02-4.395 6.05-5.762 1.18-.26 2.25-.391 3.23-.391zm-62.02 89.942c0 10.872 2.9 19.726 8.7 26.562 7.48 7.813 18.97 11.719 34.47 11.719 3.71-.065 6.77-.228 9.18-.488.06-4.623.1-7.259.1-7.91 0-11.719.06-36.426.19-74.121h-.19c-3.65-.391-6.51-.586-8.6-.586-19.79 0-33.04 7.584-39.74 22.753-2.74 7.162-4.11 14.519-4.11 22.071z" fill="#e91e63"/><path d="M689.354 0c21.88 0 33.79 1.107 35.74 3.321 2.61 1.497 3.91 3.092 3.91 4.785v1.465c0 3.06-8.5 18.75-25.49 47.07-17.71 29.753-30.6 51.855-38.67 66.309-.78 1.302-1.59 2.832-2.44 4.589 4.23.391 9.7.619 16.4.684 7.75 0 19.96-.456 36.63-1.367 3.84 0 6.67 1.53 8.49 4.59.26.911.39 1.595.39 2.05 0 3.321-2.63 5.599-7.91 6.836-14.25.977-27.15 1.465-38.67 1.465-17.45 0-28.25-1.497-32.42-4.492-2.48-1.953-3.71-3.743-3.71-5.371v-1.367c0-1.888 2.37-7.031 7.13-15.43 8.59-15.039 24.02-41.374 46.29-79.004 4.55-7.682 8.72-15.071 12.5-22.168h-.2c-6.31-.26-12.76-.39-19.33-.39-6.19 0-16.96.13-32.33.39-3.71 0-6.48-1.4-8.3-4.199-.26-.651-.39-1.172-.39-1.562V7.129c0-3.125 2.73-5.306 8.2-6.543 10.29-.39 21.68-.586 34.18-.586z" fill="#9c27b0"/></g></svg>