<svg viewBox="0 0 345 74" xmlns="http://www.w3.org/2000/svg" fill-rule="evenodd" clip-rule="evenodd" stroke-linejoin="round" stroke-miterlimit="1.414"><g fill-rule="nonzero"><path d="M7.275 11.084l.22 2.954c1.872-2.295 4.403-3.443 7.593-3.443 3.401 0 5.737 1.343 7.007 4.029 1.855-2.686 4.5-4.029 7.934-4.029 2.865 0 4.997.834 6.397 2.503 1.399 1.668 2.099 4.179 2.099 7.531V37.5h-7.08V20.654c0-1.497-.293-2.592-.879-3.284-.586-.692-1.619-1.037-3.1-1.037-2.116 0-3.581 1.009-4.395 3.027l.025 18.14H16.04V20.678c0-1.53-.301-2.636-.903-3.32-.603-.684-1.628-1.025-3.077-1.025-2.002 0-3.45.83-4.345 2.49V37.5H.659V11.084h6.616zM50.561 11.084l.22 2.954c1.872-2.295 4.403-3.443 7.593-3.443 3.402 0 5.737 1.343 7.007 4.029 1.855-2.686 4.5-4.029 7.934-4.029 2.865 0 4.997.834 6.397 2.503 1.4 1.668 2.099 4.179 2.099 7.531V37.5h-7.08V20.654c0-1.497-.293-2.592-.879-3.284-.586-.692-1.619-1.037-3.1-1.037-2.116 0-3.581 1.009-4.395 3.027l.025 18.14h-7.056V20.678c0-1.53-.301-2.636-.903-3.32-.603-.684-1.628-1.025-3.076-1.025-2.002 0-3.451.83-4.346 2.49V37.5h-7.056V11.084h6.616zM86.133 24.096c0-4.118.923-7.397 2.771-9.839 1.847-2.441 4.374-3.662 7.58-3.662 2.572 0 4.696.961 6.372 2.881V0h7.08v37.5h-6.372l-.341-2.808c-1.758 2.197-4.021 3.296-6.788 3.296-3.108 0-5.603-1.225-7.483-3.674-1.879-2.45-2.819-5.856-2.819-10.218zm7.055.526c0 2.477.432 4.376 1.294 5.697.863 1.32 2.116 1.98 3.76 1.98 2.181 0 3.719-.921 4.614-2.763v-10.44c-.879-1.842-2.4-2.763-4.565-2.763-3.402 0-5.103 2.763-5.103 8.289zM143.164 37.5c-.326-.635-.562-1.425-.708-2.369-1.709 1.905-3.931 2.857-6.665 2.857-2.588 0-4.732-.749-6.433-2.246-1.701-1.498-2.552-3.386-2.552-5.664 0-2.8 1.038-4.948 3.113-6.446 2.075-1.497 5.074-2.254 8.997-2.27h3.247v-1.514c0-1.22-.313-2.197-.94-2.929-.627-.733-1.615-1.099-2.966-1.099-1.188 0-2.12.285-2.796.854-.675.57-1.013 1.351-1.013 2.344h-7.056c0-1.53.472-2.946 1.416-4.248s2.279-2.323 4.004-3.064c1.726-.74 3.662-1.111 5.811-1.111 3.255 0 5.839.818 7.751 2.454 1.913 1.636 2.869 3.935 2.869 6.897v11.45c.016 2.507.366 4.403 1.05 5.689v.415h-7.129zm-5.835-4.908a6.086 6.086 0 0 0 2.881-.695c.879-.464 1.53-1.087 1.953-1.868v-4.541h-2.637c-3.532 0-5.412 1.221-5.639 3.662l-.025.415c0 .879.309 1.603.928 2.173.618.57 1.465.854 2.539.854zM164.184 28.881l4.908-17.797h7.373L167.554 37.5h-6.739l-8.911-26.416h7.373l4.907 17.797zM194.507 37.5c-.326-.635-.562-1.425-.708-2.369-1.709 1.905-3.931 2.857-6.665 2.857-2.588 0-4.733-.749-6.433-2.246-1.701-1.498-2.552-3.386-2.552-5.664 0-2.8 1.038-4.948 3.113-6.446 2.075-1.497 5.074-2.254 8.997-2.27h3.247v-1.514c0-1.22-.314-2.197-.94-2.929-.627-.733-1.616-1.099-2.967-1.099-1.188 0-2.119.285-2.795.854-.675.57-1.013 1.351-1.013 2.344h-7.056c0-1.53.472-2.946 1.416-4.248s2.279-2.323 4.004-3.064c1.725-.74 3.662-1.111 5.811-1.111 3.255 0 5.839.818 7.751 2.454 1.913 1.636 2.869 3.935 2.869 6.897v11.45c.016 2.507.366 4.403 1.05 5.689v.415h-7.129zm-5.835-4.908a6.09 6.09 0 0 0 2.881-.695c.878-.464 1.53-1.087 1.953-1.868v-4.541h-2.637c-3.532 0-5.412 1.221-5.64 3.662l-.024.415c0 .879.309 1.603.928 2.173.618.57 1.465.854 2.539.854zM214.453 4.589v6.495h4.517v5.175h-4.517v13.184c0 .977.187 1.676.562 2.1.374.423 1.09.634 2.148.634.781 0 1.473-.057 2.075-.171v5.347a14.525 14.525 0 0 1-4.272.635c-4.948 0-7.471-2.498-7.569-7.495V16.259h-3.857v-5.175h3.857V4.589h7.056zM238.208 37.5c-.326-.635-.562-1.425-.708-2.369-1.709 1.905-3.931 2.857-6.665 2.857-2.588 0-4.732-.749-6.433-2.246-1.701-1.498-2.552-3.386-2.552-5.664 0-2.8 1.038-4.948 3.113-6.446 2.075-1.497 5.074-2.254 8.997-2.27h3.247v-1.514c0-1.22-.313-2.197-.94-2.929-.627-.733-1.615-1.099-2.966-1.099-1.189 0-2.12.285-2.796.854-.675.57-1.013 1.351-1.013 2.344h-7.056c0-1.53.472-2.946 1.416-4.248s2.279-2.323 4.004-3.064c1.726-.74 3.662-1.111 5.811-1.111 3.255 0 5.839.818 7.751 2.454 1.913 1.636 2.869 3.935 2.869 6.897v11.45c.016 2.507.366 4.403 1.05 5.689v.415h-7.129zm-5.835-4.908a6.086 6.086 0 0 0 2.881-.695c.879-.464 1.53-1.087 1.953-1.868v-4.541h-2.637c-3.532 0-5.412 1.221-5.639 3.662l-.025.415c0 .879.309 1.603.928 2.173.618.57 1.465.854 2.539.854zM264.551 17.7a19.228 19.228 0 0 0-2.539-.196c-2.67 0-4.419.904-5.249 2.71V37.5h-7.056V11.084h6.665l.195 3.149c1.416-2.425 3.378-3.638 5.884-3.638.781 0 1.514.106 2.197.318l-.097 6.787zM282.251 30.2c0-.863-.427-1.542-1.282-2.039-.854-.496-2.226-.94-4.114-1.33-6.282-1.319-9.424-3.988-9.424-8.008 0-2.344.973-4.301 2.918-5.872 1.945-1.57 4.488-2.356 7.629-2.356 3.353 0 6.035.79 8.045 2.368 2.01 1.579 3.015 3.63 3.015 6.153h-7.056c0-1.009-.325-1.843-.976-2.503-.651-.659-1.669-.988-3.052-.988-1.188 0-2.108.268-2.759.805-.651.537-.976 1.221-.976 2.051 0 .781.37 1.412 1.11 1.892.741.48 1.99.895 3.748 1.245 1.758.35 3.239.745 4.443 1.184 3.728 1.368 5.591 3.736 5.591 7.105 0 2.409-1.033 4.358-3.1 5.847-2.067 1.489-4.737 2.234-8.008 2.234-2.214 0-4.179-.395-5.896-1.184-1.717-.79-3.064-1.872-4.041-3.247-.976-1.376-1.465-2.861-1.465-4.456h6.69c.065 1.253.529 2.214 1.391 2.881.863.667 2.019 1.001 3.467 1.001 1.351 0 2.373-.256 3.064-.769.692-.513 1.038-1.184 1.038-2.014zM7.661 54.082a7.323 7.323 0 0 0-1.333-.103c-.938 0-1.702.205-2.293.615-.59.41-1.032.962-1.325 1.656V67.5H0V51.65h2.637l.044 1.831a4.767 4.767 0 0 1 1.538-1.553c.615-.381 1.362-.571 2.241-.571.195 0 .42.022.674.066.254.044.429.09.527.139v2.52zM16.45 67.793c-1.103 0-2.102-.191-2.996-.572a6.688 6.688 0 0 1-2.292-1.589 7.03 7.03 0 0 1-1.465-2.424c-.342-.938-.513-1.963-.513-3.077v-.615c0-1.289.193-2.441.579-3.457.386-1.015.901-1.87 1.545-2.563a6.692 6.692 0 0 1 2.212-1.59 6.362 6.362 0 0 1 2.593-.549c1.133 0 2.11.198 2.93.593.82.396 1.496.94 2.029 1.634.532.693.925 1.513 1.179 2.461.254.947.381 1.977.381 3.09v1.216H11.894c.02.733.14 1.416.359 2.051.22.635.532 1.186.938 1.655.405.469.893.84 1.465 1.114.571.273 1.218.41 1.941.41.957 0 1.767-.196 2.431-.586a6.109 6.109 0 0 0 1.743-1.553l1.656 1.289a7.236 7.236 0 0 1-.923 1.135 6.295 6.295 0 0 1-1.267.982 6.686 6.686 0 0 1-1.663.688c-.625.171-1.333.257-2.124.257zm-.337-14.209c-.547 0-1.05.1-1.509.3-.459.2-.869.491-1.23.871a4.7 4.7 0 0 0-.901 1.421 7.222 7.222 0 0 0-.491 1.949h7.94v-.205a7.525 7.525 0 0 0-.257-1.568 4.242 4.242 0 0 0-.659-1.391 3.39 3.39 0 0 0-1.15-.997c-.468-.253-1.05-.38-1.743-.38zM28.315 51.65l.074 1.758a5.738 5.738 0 0 1 1.984-1.509c.777-.361 1.683-.542 2.718-.542 1.025 0 1.931.203 2.717.608.786.405 1.389 1.052 1.809 1.941a5.999 5.999 0 0 1 2.058-1.846c.845-.469 1.843-.703 2.996-.703.849 0 1.601.11 2.256.33a4.083 4.083 0 0 1 1.662 1.032c.454.469.799 1.065 1.033 1.787.234.723.351 1.582.351 2.579V67.5h-2.709V57.07c0-.664-.081-1.216-.242-1.655-.161-.44-.388-.791-.681-1.055a2.422 2.422 0 0 0-1.07-.549 5.838 5.838 0 0 0-1.391-.154c-.557 0-1.05.088-1.48.264a3.44 3.44 0 0 0-1.106.71 3.36 3.36 0 0 0-.732 1.055 4.235 4.235 0 0 0-.344 1.296V67.5h-2.725V57.085c0-.616-.081-1.141-.242-1.575a2.705 2.705 0 0 0-.681-1.062 2.674 2.674 0 0 0-1.062-.601 4.773 4.773 0 0 0-1.399-.19c-.967 0-1.743.21-2.329.63a3.887 3.887 0 0 0-1.318 1.64V67.5h-2.71V51.65h2.563zM55.005 67.5h-2.71V51.65h2.71V67.5zm-2.93-20.054c0-.44.134-.811.403-1.113.268-.303.666-.454 1.194-.454.527 0 .927.151 1.201.454.273.302.41.673.41 1.113 0 .439-.137.806-.41 1.099-.274.292-.674.439-1.201.439-.528 0-.926-.147-1.194-.439-.269-.293-.403-.66-.403-1.099zM64.658 57.436l3.516-5.786h3.164l-5.186 7.837 5.347 8.013h-3.135l-3.662-5.933L61.04 67.5h-3.15l5.347-8.013-5.185-7.837h3.134l3.472 5.786zM80.493 67.793c-1.103 0-2.102-.191-2.996-.572a6.688 6.688 0 0 1-2.292-1.589 7.03 7.03 0 0 1-1.465-2.424c-.342-.938-.513-1.963-.513-3.077v-.615c0-1.289.193-2.441.579-3.457.386-1.015.901-1.87 1.545-2.563a6.692 6.692 0 0 1 2.212-1.59 6.362 6.362 0 0 1 2.593-.549c1.133 0 2.109.198 2.93.593.82.396 1.496.94 2.029 1.634.532.693.925 1.513 1.179 2.461.254.947.381 1.977.381 3.09v1.216H75.937c.02.733.14 1.416.359 2.051.22.635.532 1.186.938 1.655.405.469.893.84 1.465 1.114.571.273 1.218.41 1.941.41.957 0 1.767-.196 2.431-.586a6.109 6.109 0 0 0 1.743-1.553l1.656 1.289a7.236 7.236 0 0 1-.923 1.135 6.295 6.295 0 0 1-1.267.982 6.686 6.686 0 0 1-1.663.688c-.625.171-1.333.257-2.124.257zm-.337-14.209c-.547 0-1.05.1-1.509.3-.459.2-.869.491-1.23.871a4.7 4.7 0 0 0-.901 1.421 7.222 7.222 0 0 0-.491 1.949h7.94v-.205a7.525 7.525 0 0 0-.257-1.568 4.242 4.242 0 0 0-.659-1.391 3.39 3.39 0 0 0-1.15-.997c-.468-.253-1.05-.38-1.743-.38zM89.15 59.443c0-1.211.149-2.312.447-3.303.298-.991.72-1.841 1.267-2.549a5.803 5.803 0 0 1 1.97-1.648c.767-.391 1.624-.586 2.571-.586.967 0 1.812.164 2.534.491a5.346 5.346 0 0 1 1.875 1.413V45h2.71v22.5h-2.49l-.132-1.7a5.292 5.292 0 0 1-1.904 1.48c-.742.342-1.616.513-2.622.513-.928 0-1.775-.201-2.542-.601a5.88 5.88 0 0 1-1.97-1.677c-.547-.718-.969-1.568-1.267-2.549-.298-.982-.447-2.053-.447-3.215v-.308zm2.71.308c0 .791.081 1.535.242 2.233.161.699.413 1.307.754 1.824.342.518.777.928 1.304 1.231.527.302 1.157.454 1.89.454.478 0 .908-.056 1.289-.169a3.75 3.75 0 0 0 1.032-.476c.308-.205.581-.449.821-.732.239-.283.447-.596.622-.938v-7.28a5.191 5.191 0 0 0-.615-.894 3.766 3.766 0 0 0-.813-.71 3.94 3.94 0 0 0-1.033-.469 4.502 4.502 0 0 0-1.274-.168c-.742 0-1.379.154-1.912.461a3.83 3.83 0 0 0-1.311 1.253 5.721 5.721 0 0 0-.754 1.838 9.922 9.922 0 0 0-.242 2.234v.308zM127.573 59.751c0 1.162-.137 2.233-.41 3.215-.273.981-.674 1.831-1.201 2.549a5.623 5.623 0 0 1-1.934 1.677c-.762.4-1.631.601-2.607.601-1.045 0-1.948-.184-2.71-.55a5.34 5.34 0 0 1-1.934-1.574l-.132 1.831h-2.49V45h2.71v8.393a5.383 5.383 0 0 1 1.904-1.509c.743-.351 1.617-.527 2.622-.527.997 0 1.878.195 2.644.586.767.391 1.412.94 1.934 1.648.523.708.921 1.558 1.194 2.549.273.991.41 2.092.41 3.303v.308zm-2.71-.308c0-.791-.073-1.536-.22-2.234a5.651 5.651 0 0 0-.71-1.838 3.652 3.652 0 0 0-1.282-1.253c-.527-.307-1.172-.461-1.933-.461-.498 0-.948.063-1.348.19a3.835 3.835 0 0 0-1.904 1.319c-.235.302-.435.63-.601.981v6.856c.176.351.383.678.623.981a3.865 3.865 0 0 0 1.911 1.318c.401.127.85.191 1.348.191.732 0 1.357-.152 1.875-.454a3.738 3.738 0 0 0 1.274-1.231c.332-.517.577-1.125.733-1.824.156-.698.234-1.442.234-2.233v-.308zM136.011 63.53l3.691-11.88h2.9l-6.372 18.296c-.146.391-.337.815-.571 1.274a5.47 5.47 0 0 1-.915 1.282 4.93 4.93 0 0 1-1.355.996c-.528.269-1.148.403-1.861.403-.107 0-.234-.01-.381-.029a16.608 16.608 0 0 1-.849-.139 4.138 4.138 0 0 1-.293-.066v-2.198c.039.01.093.017.161.022a42.652 42.652 0 0 0 .571.037c.459 0 .864-.044 1.216-.132.352-.088.664-.232.937-.432.274-.2.511-.466.711-.798.2-.332.383-.743.549-1.231l.601-1.611-5.654-15.674h2.959l3.955 11.88zM162.173 63.471c0-.869-.349-1.567-1.048-2.094-.698-.528-1.75-.94-3.156-1.238-1.407-.298-2.498-.64-3.274-1.026-.777-.385-1.353-.857-1.729-1.413-.376-.557-.564-1.231-.564-2.022 0-1.25.523-2.282 1.568-3.098 1.045-.815 2.382-1.223 4.013-1.223 1.768 0 3.186.437 4.256 1.311 1.069.874 1.604 2.014 1.604 3.42h-1.758c0-.927-.388-1.699-1.165-2.314-.776-.615-1.755-.923-2.937-.923-1.152 0-2.077.257-2.776.769-.698.513-1.047 1.179-1.047 2 0 .791.291 1.404.872 1.838.581.435 1.64.833 3.178 1.194s2.691.747 3.457 1.157c.767.41 1.336.903 1.707 1.48.371.576.557 1.274.557 2.094 0 1.338-.54 2.408-1.619 3.208-1.079.801-2.488 1.202-4.226 1.202-1.846 0-3.342-.447-4.49-1.341-1.147-.893-1.721-2.024-1.721-3.391h1.758c.068 1.026.5 1.824 1.296 2.395s1.848.857 3.157.857c1.22 0 2.207-.268 2.959-.806.752-.537 1.128-1.215 1.128-2.036zM178.066 65.493c-1.054 1.533-2.739 2.3-5.053 2.3-1.69 0-2.974-.491-3.853-1.473-.879-.981-1.328-2.434-1.348-4.358V51.65h1.744v10.093c0 3.017 1.22 4.526 3.662 4.526 2.539 0 4.145-1.05 4.819-3.149V51.65h1.758V67.5h-1.699l-.03-2.007zM197.109 59.736c0 2.471-.547 4.431-1.64 5.881-1.094 1.45-2.564 2.176-4.41 2.176-2.207 0-3.877-.821-5.009-2.461l-.074 2.168h-1.64V45h1.743v8.95c1.113-1.729 2.764-2.593 4.951-2.593 1.875 0 3.357.715 4.446 2.146 1.089 1.431 1.633 3.42 1.633 5.969v.264zm-1.758-.308c0-2.09-.405-3.703-1.215-4.841-.811-1.138-1.954-1.707-3.428-1.707-1.123 0-2.075.276-2.857.828-.781.552-1.372 1.36-1.772 2.424v7.149c.879 1.992 2.432 2.988 4.658 2.988 1.445 0 2.576-.571 3.391-1.714.816-1.142 1.223-2.851 1.223-5.127zM206.836 66.313c1.22 0 2.243-.344 3.069-1.033.825-.688 1.272-1.579 1.34-2.673h1.685a4.962 4.962 0 0 1-.909 2.644c-.556.796-1.296 1.419-2.219 1.868a6.693 6.693 0 0 1-2.966.674c-2.08 0-3.728-.723-4.944-2.168-1.216-1.446-1.824-3.389-1.824-5.83v-.528c0-1.562.274-2.944.821-4.145.546-1.201 1.33-2.129 2.351-2.784 1.02-.654 2.214-.981 3.581-.981 1.738 0 3.172.518 4.299 1.553 1.128 1.035 1.731 2.397 1.81 4.087h-1.685c-.078-1.241-.525-2.242-1.34-3.003-.816-.762-1.844-1.143-3.084-1.143-1.582 0-2.81.571-3.684 1.714-.874 1.143-1.311 2.744-1.311 4.805v.512c0 2.022.437 3.599 1.311 4.732.874 1.133 2.107 1.699 3.699 1.699zM215.464 59.34c0-1.523.295-2.895.886-4.116.591-1.22 1.426-2.17 2.505-2.849 1.079-.679 2.302-1.018 3.669-1.018 2.11 0 3.819.74 5.127 2.219 1.309 1.48 1.963 3.44 1.963 5.882v.366c0 1.533-.295 2.912-.886 4.138s-1.423 2.17-2.498 2.834c-1.074.665-2.299.997-3.676.997-2.1 0-3.807-.74-5.12-2.22-1.314-1.479-1.97-3.44-1.97-5.881v-.352zm1.758.484c0 1.894.49 3.45 1.472 4.665.981 1.216 2.268 1.824 3.86 1.824 1.582 0 2.863-.608 3.845-1.824.981-1.215 1.472-2.819 1.472-4.812v-.337c0-1.211-.225-2.319-.674-3.325-.449-1.006-1.079-1.784-1.89-2.336-.81-.552-1.738-.828-2.783-.828-1.562 0-2.837.613-3.823 1.839-.986 1.225-1.479 2.829-1.479 4.812v.322zM234.829 51.65l.059 2.578c.585-.957 1.318-1.675 2.197-2.153.879-.479 1.855-.718 2.93-.718 2.5 0 4.086 1.025 4.76 3.076.567-.986 1.323-1.745 2.271-2.278.947-.532 1.992-.798 3.135-.798 3.398 0 5.131 1.855 5.2 5.566V67.5h-1.758V57.055c-.01-1.416-.315-2.466-.916-3.149-.6-.684-1.579-1.026-2.937-1.026-1.259.02-2.324.428-3.193 1.224-.869.796-1.353 1.765-1.45 2.907V67.5h-1.758V56.923c-.01-1.357-.33-2.37-.959-3.039-.63-.669-1.6-1.004-2.908-1.004-1.104 0-2.051.315-2.842.945-.791.63-1.377 1.565-1.758 2.805V67.5h-1.758V51.65h1.685zM264.756 65.083l4.819-13.433h1.802l-5.918 15.85h-1.421l-5.947-15.85h1.801l4.864 13.433zM281.572 53.144a6.574 6.574 0 0 0-1.186-.102c-1.094 0-2.019.305-2.776.915-.757.61-1.297 1.497-1.619 2.659V67.5h-1.743V51.65h1.714l.029 2.52c.928-1.875 2.417-2.813 4.468-2.813.488 0 .874.064 1.157.19l-.044 1.597zM282.378 66.445c0-.342.11-.632.329-.872.22-.239.525-.359.916-.359s.698.12.923.359c.224.24.337.53.337.872 0 .342-.113.622-.337.842-.225.22-.532.33-.923.33s-.696-.11-.916-.33c-.219-.22-.329-.5-.329-.842zM295.561 66.313c1.221 0 2.244-.344 3.069-1.033.825-.688 1.272-1.579 1.341-2.673h1.684a4.96 4.96 0 0 1-.908 2.644c-.557.796-1.296 1.419-2.219 1.868a6.694 6.694 0 0 1-2.967.674c-2.08 0-3.728-.723-4.943-2.168-1.216-1.446-1.824-3.389-1.824-5.83v-.528c0-1.562.273-2.944.82-4.145.547-1.201 1.331-2.129 2.351-2.784 1.021-.654 2.215-.981 3.582-.981 1.738 0 3.171.518 4.299 1.553 1.128 1.035 1.731 2.397 1.809 4.087h-1.684c-.079-1.241-.525-2.242-1.341-3.003-.815-.762-1.843-1.143-3.083-1.143-1.582 0-2.81.571-3.684 1.714-.874 1.143-1.311 2.744-1.311 4.805v.512c0 2.022.437 3.599 1.311 4.732.874 1.133 2.107 1.699 3.698 1.699zM304.189 59.34c0-1.523.296-2.895.887-4.116.59-1.22 1.425-2.17 2.504-2.849 1.08-.679 2.303-1.018 3.67-1.018 2.109 0 3.818.74 5.127 2.219 1.308 1.48 1.963 3.44 1.963 5.882v.366c0 1.533-.296 2.912-.887 4.138-.59 1.226-1.423 2.17-2.497 2.834-1.074.665-2.3.997-3.677.997-2.099 0-3.806-.74-5.119-2.22-1.314-1.479-1.971-3.44-1.971-5.881v-.352zm1.758.484c0 1.894.491 3.45 1.472 4.665.982 1.216 2.268 1.824 3.86 1.824 1.582 0 2.864-.608 3.845-1.824.982-1.215 1.473-2.819 1.473-4.812v-.337c0-1.211-.225-2.319-.674-3.325-.45-1.006-1.079-1.784-1.89-2.336-.81-.552-1.738-.828-2.783-.828-1.563 0-2.837.613-3.823 1.839-.987 1.225-1.48 2.829-1.48 4.812v.322zM323.555 51.65l.058 2.578c.586-.957 1.318-1.675 2.197-2.153.879-.479 1.856-.718 2.93-.718 2.5 0 4.087 1.025 4.761 3.076.566-.986 1.323-1.745 2.27-2.278.948-.532 1.993-.798 3.135-.798 3.399 0 5.132 1.855 5.2 5.566V67.5h-1.758V57.055c-.009-1.416-.314-2.466-.915-3.149-.601-.684-1.58-1.026-2.937-1.026-1.26.02-2.324.428-3.193 1.224-.87.796-1.353 1.765-1.451 2.907V67.5h-1.757V56.923c-.01-1.357-.33-2.37-.96-3.039-.63-.669-1.599-1.004-2.908-1.004-1.103 0-2.05.315-2.841.945-.791.63-1.377 1.565-1.758 2.805V67.5h-1.758V51.65h1.685z"/></g></svg>