<svg viewBox="0 0 344 141" xmlns="http://www.w3.org/2000/svg" fill-rule="evenodd" clip-rule="evenodd" stroke-linejoin="round" stroke-miterlimit="1.414"><path fill="#bf00ff" d="M0 0h343.51v140.014H0z"/><path d="M71.983 77.784v-29.8c0-3-.7-5.433-2.1-7.3-1.4-1.866-3.267-2.8-5.6-2.8-2.4 0-4.384 1-5.95 3-1.567 2-2.35 4.5-2.35 7.5v29.4h-13v-29.6c0-2-.134-3.633-.4-4.9-.267-1.266-.717-2.266-1.35-3-.634-.733-1.45-1.25-2.45-1.55-1-.3-2.2-.45-3.6-.45-5.267 0-7.9 3.2-7.9 9.6v29.9h-13v-49.2h12.2v7.2c1.666-3.266 3.666-5.5 6-6.7 2.333-1.2 5.133-1.8 8.4-1.8 1.666 0 3.15.134 4.45.4 1.3.267 2.466.717 3.5 1.35 1.033.634 2.016 1.45 2.95 2.45.933 1 1.866 2.2 2.8 3.6 1.333-2.733 3.1-4.716 5.3-5.95 2.2-1.233 4.866-1.85 8-1.85 2.466 0 4.733.417 6.8 1.25 2.066.834 3.833 2 5.3 3.5a16.537 16.537 0 0 1 3.45 5.25c.833 2 1.25 4.134 1.25 6.4v34.1h-12.7zM113.883 68.184c7.933 0 11.9-5 11.9-15 0-9.933-3.967-14.9-11.9-14.9-7.934 0-11.9 4.967-11.9 14.9 0 10 3.966 15 11.9 15zm0 10.9c-4 0-7.567-.633-10.7-1.9-3.134-1.266-5.784-3.033-7.95-5.3-2.167-2.266-3.817-5-4.95-8.2-1.134-3.2-1.7-6.7-1.7-10.5 0-3.866.583-7.4 1.75-10.6 1.166-3.2 2.85-5.933 5.05-8.2 2.2-2.266 4.85-4.016 7.95-5.25 3.1-1.233 6.616-1.85 10.55-1.85 3.866 0 7.333.617 10.4 1.85 3.066 1.234 5.683 2.967 7.85 5.2 2.166 2.234 3.833 4.95 5 8.15 1.166 3.2 1.75 6.767 1.75 10.7 0 3.934-.584 7.484-1.75 10.65-1.167 3.167-2.834 5.884-5 8.15-2.167 2.267-4.8 4.017-7.9 5.25-3.1 1.234-6.55 1.85-10.35 1.85zM143.583 77.784v-49.2h12.2v5.9c1.066-1.666 2.183-2.966 3.35-3.9 1.166-.933 2.366-1.65 3.6-2.15 1.233-.5 2.483-.816 3.75-.95 1.266-.133 2.566-.2 3.9-.2h1.7v13.3c-1.2-.2-2.4-.3-3.6-.3-7.934 0-11.9 3.967-11.9 11.9v25.6h-13zM203.183 53.684c-.667.667-1.634 1.2-2.9 1.6-1.267.4-3.1.834-5.5 1.3-3.734.734-6.3 1.667-7.7 2.8-1.4 1.134-2.1 2.767-2.1 4.9 0 3.667 2.1 5.5 6.3 5.5 1.666 0 3.216-.283 4.65-.85 1.433-.566 2.666-1.333 3.7-2.3a11.529 11.529 0 0 0 2.5-3.4c.633-1.3.95-2.683.95-4.15l.1-5.4zm.9 24.1c-.4-1.266-.667-2.733-.8-4.4-1.534 1.734-3.567 3.117-6.1 4.15-2.534 1.034-5.467 1.55-8.8 1.55-5.667 0-9.817-1.25-12.45-3.75-2.634-2.5-3.95-5.75-3.95-9.75 0-3.533.566-6.35 1.7-8.45 1.133-2.1 2.7-3.75 4.7-4.95 2-1.2 4.383-2.083 7.15-2.65a154.074 154.074 0 0 1 9.05-1.55c3.266-.466 5.466-1.083 6.6-1.85 1.133-.766 1.7-2.016 1.7-3.75 0-1.6-.75-2.85-2.25-3.75-1.5-.9-3.517-1.35-6.05-1.35-3 0-5.15.667-6.45 2-1.3 1.334-2.117 3.1-2.45 5.3h-12.1c.066-2.533.483-4.866 1.25-7 .766-2.133 2-3.966 3.7-5.5 1.7-1.533 3.916-2.716 6.65-3.55 2.733-.833 6.066-1.25 10-1.25 3.866 0 7.15.434 9.85 1.3 2.7.867 4.866 2.117 6.5 3.75 1.633 1.634 2.816 3.667 3.55 6.1.733 2.434 1.1 5.184 1.1 8.25v31.1h-12.1zM245.483 67.984c3.2 0 5.85-1.216 7.95-3.65 2.1-2.433 3.15-5.75 3.15-9.95 0-10.533-3.7-15.8-11.1-15.8-7.4 0-11.1 5-11.1 15 0 4.4 1.05 7.9 3.15 10.5 2.1 2.6 4.75 3.9 7.95 3.9zm10.7 3.2c-.934 2.2-2.617 3.917-5.05 5.15-2.434 1.234-5.25 1.85-8.45 1.85-4.067 0-7.484-.716-10.25-2.15-2.767-1.433-5-3.316-6.7-5.65-1.7-2.333-2.934-5.033-3.7-8.1a38.59 38.59 0 0 1-1.15-9.4c0-3.8.566-7.283 1.7-10.45 1.133-3.166 2.666-5.866 4.6-8.1 1.933-2.233 4.2-3.966 6.8-5.2 2.6-1.233 5.4-1.85 8.4-1.85 6.133 0 10.733 2.467 13.8 7.4v-6.1h13v49.7c0 3.734-.634 7.017-1.9 9.85-1.267 2.834-3 5.2-5.2 7.1-2.2 1.9-4.8 3.35-7.8 4.35-3 1-6.2 1.5-9.6 1.5-3.4 0-6.567-.483-9.5-1.45-2.934-.966-5.45-2.333-7.55-4.1-2.1-1.766-3.75-3.916-4.95-6.45-1.2-2.533-1.8-5.4-1.8-8.6h12.1c0 3 .983 5.317 2.95 6.95 1.966 1.634 4.583 2.45 7.85 2.45 3.466 0 6.4-.95 8.8-2.85 2.4-1.9 3.6-4.483 3.6-7.75v-8.1zM274.583 11.384h8.9v25h-8.9zM317.083 43.484c-.334-2.4-1.2-4.083-2.6-5.05-1.4-.966-3.6-1.45-6.6-1.45-2.467 0-4.367.317-5.7.95-1.334.634-2 1.684-2 3.15 0 1.467.666 2.584 2 3.35 1.333.767 3.333 1.517 6 2.25 2.8.8 5.466 1.517 8 2.15 2.533.634 4.766 1.317 6.7 2.05 2.6 1.067 4.6 2.517 6 4.35 1.4 1.834 2.1 4.35 2.1 7.55 0 5.134-1.817 9.134-5.45 12-3.634 2.867-8.984 4.3-16.05 4.3-7.6 0-13.417-1.6-17.45-4.8-4.034-3.2-6.117-7.3-6.25-12.3h13.4c0 2.334.9 4.134 2.7 5.4 1.8 1.267 4.3 1.9 7.5 1.9 2.333 0 4.366-.383 6.1-1.15 1.733-.766 2.6-2.083 2.6-3.95 0-1.733-.784-2.966-2.35-3.7-1.567-.733-3.417-1.366-5.55-1.9-4.134-1-7.467-1.9-10-2.7-2.534-.8-4.667-1.766-6.4-2.9-2.334-1.466-3.95-3.133-4.85-5-.9-1.866-1.35-3.9-1.35-6.1 0-2.066.366-4 1.1-5.8.733-1.8 1.933-3.35 3.6-4.65 1.666-1.3 3.816-2.316 6.45-3.05 2.633-.733 5.816-1.1 9.55-1.1 7.133 0 12.383 1.367 15.75 4.1 3.366 2.734 5.216 6.767 5.55 12.1h-12.5z" fill="#fff" fill-rule="nonzero"/><g opacity=".7"><path d="M32.808 112.12c-.434.433-1.062.78-1.885 1.04-.824.26-2.015.541-3.575.844-2.427.477-4.095 1.084-5.005 1.82-.91.737-1.365 1.8-1.365 3.185 0 2.384 1.365 3.575 4.095 3.575a8.15 8.15 0 0 0 3.022-.552 7.518 7.518 0 0 0 2.405-1.495 7.466 7.466 0 0 0 1.625-2.21 6.075 6.075 0 0 0 .618-2.698l.065-3.51zm.585 15.664c-.26-.823-.434-1.776-.52-2.86-.997 1.127-2.319 2.026-3.965 2.698-1.647.672-3.554 1.007-5.72 1.007-3.684 0-6.381-.812-8.093-2.437-1.711-1.625-2.567-3.738-2.567-6.338 0-2.296.368-4.127 1.105-5.492a8.236 8.236 0 0 1 3.055-3.218c1.3-.78 2.849-1.354 4.647-1.722 1.799-.368 3.759-.704 5.883-1.008 2.123-.303 3.553-.704 4.29-1.202.736-.498 1.105-1.31 1.105-2.438 0-1.04-.488-1.852-1.463-2.437-.975-.585-2.286-.878-3.932-.878-1.95 0-3.348.434-4.193 1.3-.845.867-1.376 2.015-1.592 3.445h-7.865c.043-1.646.314-3.163.812-4.55a8.73 8.73 0 0 1 2.405-3.575c1.105-.996 2.546-1.765 4.323-2.307 1.776-.542 3.943-.813 6.5-.813 2.513 0 4.647.282 6.402.845 1.755.564 3.164 1.376 4.225 2.438 1.062 1.062 1.831 2.383 2.308 3.965.476 1.582.715 3.37.715 5.362v20.215h-7.865zM52.373 127.784l-11.44-31.98h9.425l6.695 21.125 6.76-21.125h8.905l-11.505 31.98h-8.84zM91.828 112.12c-.434.433-1.062.78-1.885 1.04-.824.26-2.015.541-3.575.844-2.427.477-4.095 1.084-5.005 1.82-.91.737-1.365 1.8-1.365 3.185 0 2.384 1.365 3.575 4.095 3.575a8.15 8.15 0 0 0 3.022-.552 7.518 7.518 0 0 0 2.405-1.495 7.466 7.466 0 0 0 1.625-2.21 6.075 6.075 0 0 0 .618-2.698l.065-3.51zm.585 15.664c-.26-.823-.434-1.776-.52-2.86-.997 1.127-2.319 2.026-3.965 2.698-1.647.672-3.554 1.007-5.72 1.007-3.684 0-6.381-.812-8.093-2.437-1.711-1.625-2.567-3.738-2.567-6.338 0-2.296.368-4.127 1.105-5.492a8.236 8.236 0 0 1 3.055-3.218c1.3-.78 2.849-1.354 4.647-1.722 1.799-.368 3.759-.704 5.883-1.008 2.123-.303 3.553-.704 4.29-1.202.736-.498 1.105-1.31 1.105-2.438 0-1.04-.488-1.852-1.463-2.437-.975-.585-2.286-.878-3.932-.878-1.95 0-3.348.434-4.193 1.3-.845.867-1.376 2.015-1.592 3.445h-7.865c.043-1.646.314-3.163.812-4.55a8.73 8.73 0 0 1 2.405-3.575c1.105-.996 2.546-1.765 4.323-2.307 1.776-.542 3.943-.813 6.5-.813 2.513 0 4.647.282 6.402.845 1.755.564 3.164 1.376 4.225 2.438 1.062 1.062 1.831 2.383 2.308 3.965.476 1.582.715 3.37.715 5.362v20.215h-7.865zM122.118 106.724h7.865v9.1c0 1.69-.249 3.305-.748 4.843a11.336 11.336 0 0 1-2.34 4.095c-1.061 1.192-2.405 2.134-4.03 2.827-1.625.694-3.564 1.04-5.817 1.04-2.34 0-4.334-.346-5.98-1.04-1.647-.693-3.001-1.625-4.063-2.795a10.634 10.634 0 0 1-2.307-4.095 16.8 16.8 0 0 1-.715-4.94v-28.6h8.32v8.645h17.68v5.98h-17.68v13.13c0 2.037.379 3.608 1.137 4.713.759 1.105 2.004 1.657 3.738 1.657 1.69 0 2.936-.54 3.737-1.625.802-1.083 1.203-2.62 1.203-4.615v-8.32zM152.863 112.12c-.434.433-1.062.78-1.885 1.04-.824.26-2.015.541-3.575.844-2.427.477-4.095 1.084-5.005 1.82-.91.737-1.365 1.8-1.365 3.185 0 2.384 1.365 3.575 4.095 3.575a8.15 8.15 0 0 0 3.022-.552 7.518 7.518 0 0 0 2.405-1.495 7.466 7.466 0 0 0 1.625-2.21 6.075 6.075 0 0 0 .618-2.698l.065-3.51zm.585 15.664c-.26-.823-.434-1.776-.52-2.86-.997 1.127-2.319 2.026-3.965 2.698-1.647.672-3.554 1.007-5.72 1.007-3.684 0-6.381-.812-8.093-2.437-1.711-1.625-2.567-3.738-2.567-6.338 0-2.296.368-4.127 1.105-5.492a8.236 8.236 0 0 1 3.055-3.218c1.3-.78 2.849-1.354 4.647-1.722 1.799-.368 3.759-.704 5.883-1.008 2.123-.303 3.553-.704 4.29-1.202.736-.498 1.105-1.31 1.105-2.438 0-1.04-.488-1.852-1.463-2.437-.975-.585-2.286-.878-3.932-.878-1.95 0-3.348.434-4.193 1.3-.845.867-1.376 2.015-1.592 3.445h-7.865c.043-1.646.314-3.163.812-4.55a8.73 8.73 0 0 1 2.405-3.575c1.105-.996 2.546-1.765 4.323-2.307 1.776-.542 3.943-.813 6.5-.813 2.513 0 4.647.282 6.402.845 1.755.564 3.164 1.376 4.225 2.438 1.062 1.062 1.831 2.383 2.308 3.965.476 1.582.715 3.37.715 5.362v20.215h-7.865zM165.018 127.784v-31.98h7.93v3.835c.693-1.083 1.419-1.928 2.177-2.535a9.462 9.462 0 0 1 2.34-1.397 8.974 8.974 0 0 1 2.438-.618 24.38 24.38 0 0 1 2.535-.13h1.105v8.645a14.21 14.21 0 0 0-2.34-.195c-5.157 0-7.735 2.58-7.735 7.735v16.64h-8.45zM203.888 105.49c-.217-1.56-.78-2.655-1.69-3.283-.91-.628-2.34-.943-4.29-.943-1.604 0-2.839.206-3.705.618-.867.412-1.3 1.094-1.3 2.047 0 .954.433 1.68 1.3 2.178.866.498 2.166.986 3.9 1.462 1.82.52 3.553.986 5.2 1.398 1.646.412 3.098.856 4.355 1.332 1.69.694 2.99 1.636 3.9 2.828.91 1.192 1.365 2.827 1.365 4.907 0 3.337-1.181 5.937-3.543 7.8-2.361 1.864-5.839 2.795-10.432 2.795-4.94 0-8.721-1.04-11.343-3.12-2.621-2.08-3.976-4.745-4.062-7.995h8.71c0 1.517.585 2.687 1.755 3.51 1.17.824 2.795 1.235 4.875 1.235 1.516 0 2.838-.249 3.965-.747 1.126-.498 1.69-1.354 1.69-2.568 0-1.126-.509-1.928-1.528-2.405-1.018-.476-2.221-.888-3.607-1.235-2.687-.65-4.854-1.235-6.5-1.755-1.647-.52-3.034-1.148-4.16-1.885-1.517-.953-2.568-2.036-3.153-3.25-.585-1.213-.877-2.535-.877-3.965 0-1.343.238-2.6.715-3.77.476-1.17 1.256-2.177 2.34-3.022 1.083-.845 2.481-1.506 4.192-1.983 1.712-.476 3.781-.715 6.208-.715 4.636 0 8.049.89 10.237 2.665 2.189 1.777 3.391 4.4 3.608 7.865h-8.125z" fill="#fff" fill-rule="nonzero"/></g></svg>