<svg viewBox="0 0 313 147" xmlns="http://www.w3.org/2000/svg" fill-rule="evenodd" clip-rule="evenodd" stroke-linejoin="round" stroke-miterlimit="1.414"><path d="M4.413 38.515c0-3.204.366-6.134 1.095-8.79.73-2.656 1.803-4.929 3.221-6.816 1.42-1.888 3.165-3.354 5.234-4.396 2.072-1.04 4.447-1.561 7.13-1.561 2.396 0 4.485.441 6.269 1.328 1.785.885 3.327 2.135 4.63 3.75l.664-4.298h9.57v58.516H31.328V56.404a13.24 13.24 0 0 1-4.454 3.242c-1.693.756-3.646 1.134-5.86 1.134-2.655 0-5.013-.54-7.07-1.621-2.057-1.08-3.788-2.578-5.194-4.493-1.407-1.914-2.481-4.18-3.223-6.797-.743-2.617-1.114-5.462-1.114-8.535v-.82zm10.859.819c0 1.745.157 3.385.47 4.922.312 1.536.807 2.884 1.483 4.044.678 1.158 1.558 2.077 2.637 2.753 1.08.676 2.39 1.015 3.926 1.015 1.901 0 3.457-.377 4.669-1.132 1.21-.755 2.167-1.797 2.871-3.125V29.84c-.704-1.3-1.662-2.31-2.871-3.026-1.212-.717-2.741-1.074-4.59-1.074-1.536 0-2.845.332-3.926.996-1.08.664-1.967 1.568-2.656 2.715-.69 1.146-1.199 2.493-1.524 4.042-.325 1.55-.489 3.223-.489 5.02v.82zM76.468 54.06c-1.432 2.11-3.157 3.764-5.176 4.961-2.018 1.2-4.226 1.798-6.62 1.798-2.188 0-4.193-.34-6.017-1.016a11.548 11.548 0 0 1-4.687-3.222c-1.301-1.472-2.312-3.347-3.027-5.625-.717-2.28-1.075-5.02-1.075-8.224v-25h10.86v25.08c0 1.717.124 3.162.371 4.335.248 1.172.645 2.115 1.19 2.832a4.55 4.55 0 0 0 2.15 1.542c.885.313 1.965.47 3.242.47 2.162 0 3.919-.41 5.273-1.231a7.968 7.968 0 0 0 3.086-3.378v-29.65h10.9v42.266h-9.844l-.626-5.938zM119.93 59.998a9.52 9.52 0 0 1-.665-1.796 24.215 24.215 0 0 1-.47-2.15 14.297 14.297 0 0 1-4.667 3.34c-.95.43-2 .768-3.145 1.017a17.57 17.57 0 0 1-3.71.371c-2.162 0-4.147-.313-5.957-.938-1.81-.625-3.366-1.497-4.668-2.617a11.911 11.911 0 0 1-3.048-4.003c-.73-1.55-1.093-3.237-1.093-5.06 0-4.454 1.66-7.897 4.98-10.33 3.32-2.436 8.276-3.655 14.864-3.655h6.054v-2.499c0-2.032-.664-3.64-1.992-4.824-1.328-1.185-3.242-1.777-5.743-1.777-2.213 0-3.827.475-4.842 1.425-1.016.95-1.524 2.22-1.524 3.81h-10.86c0-1.798.398-3.504 1.191-5.118.795-1.614 1.953-3.034 3.477-4.258 1.524-1.224 3.386-2.195 5.586-2.91 2.2-.717 4.72-1.074 7.559-1.074 2.551 0 4.928.312 7.129.938 2.2.623 4.107 1.548 5.723 2.772 1.614 1.224 2.877 2.768 3.788 4.629.912 1.863 1.367 4.017 1.367 6.465V49.88c0 2.266.143 4.142.431 5.627.286 1.483.703 2.76 1.249 3.827v.664h-11.015zm-10.353-7.617c1.093 0 2.11-.13 3.046-.39a11.763 11.763 0 0 0 2.54-1.016 8.918 8.918 0 0 0 1.953-1.427c.547-.533.977-1.073 1.29-1.62v-7.266h-5.548c-1.692 0-3.138.162-4.335.49-1.198.324-2.174.78-2.93 1.366-.756.586-1.316 1.29-1.68 2.109a6.503 6.503 0 0 0-.547 2.675c0 1.459.514 2.67 1.544 3.634 1.027.963 2.583 1.445 4.667 1.445zM139.797-.001h23.632v51.17h12.11v8.829h-35.742V51.17h12.655V8.865h-12.655V0zM184.428 17.732h23.01V51.17h11.444v8.828h-34.454V51.17h12.032V26.6h-12.032v-8.868zm11.251-10.82c0-.833.15-1.608.449-2.324.3-.717.722-1.328 1.27-1.836a5.892 5.892 0 0 1 1.972-1.19c.768-.288 1.621-.431 2.559-.431 1.927 0 3.456.54 4.59 1.62 1.132 1.081 1.699 2.468 1.699 4.161 0 1.694-.567 3.08-1.7 4.161-1.133 1.08-2.662 1.621-4.589 1.621-.938 0-1.79-.143-2.559-.43a5.892 5.892 0 0 1-1.973-1.191 5.223 5.223 0 0 1-1.27-1.837 5.977 5.977 0 0 1-.448-2.324zM245.467 7.38v10.352h15.781v8.01h-15.78v18.162c0 1.537.176 2.819.527 3.848.352 1.028.853 1.85 1.503 2.46.652.613 1.44 1.05 2.365 1.309.924.261 1.958.392 3.105.392.833 0 1.686-.04 2.558-.118a42.773 42.773 0 0 0 2.501-.293c.793-.117 1.537-.24 2.225-.371.69-.131 1.284-.26 1.779-.39l1.054 7.46c-.756.442-1.64.827-2.656 1.152a25.444 25.444 0 0 1-3.243.802 42.06 42.06 0 0 1-3.574.487 38.333 38.333 0 0 1-3.652.177c-2.319 0-4.42-.306-6.308-.918-1.89-.613-3.504-1.563-4.844-2.853-1.342-1.289-2.377-2.93-3.106-4.921-.73-1.992-1.094-4.382-1.094-7.168V25.74h-9.649v-8.009h9.65V7.38h10.858zM287.561 42.264l1.25 4.531 11.25-29.063h11.993l-21.446 48.595c-.468 1.067-1.074 2.225-1.816 3.475a16.306 16.306 0 0 1-2.794 3.478c-1.12 1.066-2.479 1.965-4.08 2.695-1.602.729-3.497 1.093-5.685 1.093-.521 0-1.002-.02-1.445-.059a19.074 19.074 0 0 1-2.52-.39 28.673 28.673 0 0 1-1.309-.332l1.328-8.28c.444 0 1.01.019 1.701.058.689.039 1.243.058 1.66.058.858 0 1.621-.26 2.285-.78a9.251 9.251 0 0 0 1.7-1.72c.467-.624.845-1.198 1.131-1.719.286-.52.482-.78.586-.78l2.618-4.922-17.892-40.47h11.877l9.608 24.532zM10.117 87.732l.194 3.984c.86-1.483 1.987-2.643 3.38-3.475 1.394-.834 3.079-1.264 5.058-1.29 3.88 0 6.472 1.51 7.774 4.532a9.643 9.643 0 0 1 3.3-3.261c1.368-.822 3.028-1.245 4.98-1.27 3.1 0 5.482.95 7.15 2.85 1.666 1.902 2.5 4.779 2.5 8.634v31.562h-6.875v-31.64c0-3.542-1.628-5.3-4.883-5.275-.86 0-1.602.119-2.227.352-.625.235-1.146.554-1.563.957a4.41 4.41 0 0 0-.976 1.407 6.14 6.14 0 0 0-.468 1.66v32.539h-6.875v-31.68c0-1.692-.378-2.994-1.134-3.907-.754-.91-1.953-1.352-3.594-1.328-1.51 0-2.682.3-3.514.9a5.228 5.228 0 0 0-1.837 2.382v33.633H3.632V87.732h6.485zM54.124 87.732l.196 3.984c.86-1.483 1.985-2.643 3.378-3.475 1.393-.834 3.08-1.264 5.06-1.29 3.88 0 6.47 1.51 7.773 4.532a9.612 9.612 0 0 1 3.3-3.261c1.368-.822 3.028-1.245 4.98-1.27 3.1 0 5.483.95 7.15 2.85 1.667 1.902 2.498 4.779 2.498 8.634v31.562h-6.874v-31.64c0-3.542-1.627-5.3-4.883-5.275-.859 0-1.6.119-2.226.352-.625.235-1.146.554-1.562.957a4.41 4.41 0 0 0-.977 1.407 6.208 6.208 0 0 0-.47 1.66v32.539h-6.875v-31.68c0-1.692-.376-2.994-1.132-3.907-.756-.91-1.953-1.352-3.594-1.328-1.51 0-2.682.3-3.516.9-.833.598-1.444 1.393-1.834 2.382v33.633H47.64V87.732h6.483zM93.445 108.514c0-3.152.397-6.048 1.19-8.692.795-2.643 1.929-4.914 3.4-6.816 1.47-1.9 3.247-3.386 5.331-4.452 2.084-1.069 4.415-1.602 6.993-1.602 2.526 0 4.733.422 6.621 1.27 1.888.845 3.521 2.076 4.902 3.69V69.998h7.227v60h-6.64l-.313-4.452c-1.407 1.718-3.087 3.02-5.04 3.906-1.953.885-4.231 1.328-6.836 1.328-2.552 0-4.864-.548-6.933-1.64-2.07-1.096-3.834-2.605-5.293-4.532s-2.59-4.2-3.398-6.817c-.809-2.617-1.211-5.436-1.211-8.457v-.82zm7.226.82c0 2.057.221 4.01.664 5.86.443 1.848 1.127 3.477 2.05 4.882a10.327 10.327 0 0 0 3.536 3.34c1.432.821 3.15 1.23 5.157 1.23 1.224 0 2.33-.142 3.32-.428a9.844 9.844 0 0 0 2.695-1.231 10.035 10.035 0 0 0 2.149-1.915 13.2 13.2 0 0 0 1.64-2.48v-19.61a12.233 12.233 0 0 0-3.79-4.239c-1.587-1.105-3.567-1.66-5.937-1.66-2.03 0-3.77.417-5.215 1.25a10.395 10.395 0 0 0-3.554 3.38c-.924 1.419-1.608 3.06-2.05 4.923-.444 1.86-.665 3.821-.665 5.878v.82zM167.53 86.952c1.172 0 2.345.07 3.516.214 1.172.143 2.149.346 2.93.605l-.587 4.493a35.81 35.81 0 0 0-3.281-.548 28.66 28.66 0 0 0-3.36-.194c-3.957 0-7.317.938-10.078 2.812-2.76 1.875-4.699 4.752-5.818 8.634l.038 27.03h-4.844V87.732h4.493l.313 7.345v.858a18.714 18.714 0 0 1 6.834-6.581c2.84-1.602 6.12-2.402 9.843-2.402zM184.663 87.732h19.61v38.126h14.375v4.14h-33.985v-4.14h14.923V91.912h-14.923v-4.18zm13.556-11.561c0-.965.272-1.798.82-2.501.547-.703 1.458-1.054 2.733-1.054 1.25 0 2.156.351 2.716 1.054.56.703.839 1.536.839 2.5 0 .912-.28 1.712-.84 2.402-.559.69-1.465 1.035-2.715 1.035-1.275 0-2.186-.344-2.734-1.035-.547-.69-.82-1.49-.82-2.401zM261.757 109.295c0 2.734-.332 5.397-.996 7.988-.664 2.592-1.68 4.882-3.046 6.875a15.922 15.922 0 0 1-5.177 4.805c-2.083 1.211-4.558 1.817-7.422 1.817-2.63 0-5.038-.509-7.226-1.524a14.635 14.635 0 0 1-5.508-4.415v21.407h-4.687V87.732h4.374l.196 5.782c1.483-2.084 3.308-3.698 5.467-4.844 2.162-1.146 4.597-1.718 7.306-1.718 2.891 0 5.39.591 7.5 1.776a15.21 15.21 0 0 1 5.196 4.767c1.353 1.992 2.363 4.282 3.027 6.875.664 2.59.996 5.292.996 8.104v.821zm-4.687-.821c0-2.109-.235-4.205-.705-6.289-.468-2.082-1.224-3.952-2.264-5.605a12.554 12.554 0 0 0-4.044-4.023c-1.653-1.03-3.678-1.543-6.073-1.543-1.354 0-2.624.189-3.81.566a11.77 11.77 0 0 0-3.242 1.602 12.97 12.97 0 0 0-2.617 2.46c-.768.95-1.412 2-1.933 3.145v20.938c1.093 2.188 2.656 3.919 4.686 5.195 2.033 1.275 4.362 1.915 6.994 1.915 2.37 0 4.381-.521 6.034-1.563a12.56 12.56 0 0 0 4.025-4.044c1.028-1.653 1.776-3.529 2.244-5.625.47-2.096.705-4.2.705-6.308v-.821zM301.076 119.255c0-1.301-.325-2.433-.976-3.398-.65-.964-1.542-1.79-2.676-2.48-1.132-.69-2.44-1.269-3.925-1.739a46.664 46.664 0 0 0-4.726-1.211 62.862 62.862 0 0 1-5.899-1.503c-1.902-.586-3.593-1.335-5.079-2.246-1.483-.911-2.668-2.026-3.554-3.34-.885-1.315-1.328-2.936-1.328-4.863 0-1.823.455-3.45 1.366-4.883.913-1.432 2.11-2.644 3.594-3.633 1.485-.989 3.177-1.737 5.08-2.246 1.9-.509 3.853-.761 5.859-.761 2.292 0 4.432.279 6.424.839 1.994.56 3.739 1.38 5.235 2.461a12.354 12.354 0 0 1 3.574 3.965c.887 1.563 1.369 3.347 1.446 5.351h-4.688c-.052-1.355-.415-2.571-1.093-3.652-.677-1.08-1.576-1.985-2.695-2.714-1.12-.73-2.39-1.29-3.81-1.68a16.418 16.418 0 0 0-4.393-.586c-1.406 0-2.78.15-4.122.448-1.34.3-2.54.756-3.594 1.367-1.054.613-1.9 1.381-2.54 2.305-.637.925-.955 2.013-.955 3.262-.026 1.328.28 2.442.917 3.34.64.898 1.504 1.654 2.598 2.267 1.094.61 2.377 1.12 3.848 1.522 1.47.404 3.04.775 4.706 1.114 2.137.442 4.175.982 6.114 1.621 1.94.638 3.652 1.433 5.137 2.383 1.483.95 2.656 2.115 3.516 3.496.858 1.38 1.29 3.033 1.29 4.961 0 1.978-.478 3.703-1.428 5.176-.95 1.471-2.2 2.695-3.749 3.672-1.55.976-3.32 1.706-5.314 2.186a26.056 26.056 0 0 1-6.15.724c-2.37 0-4.605-.288-6.7-.86-2.097-.572-3.946-1.4-5.548-2.481-1.601-1.081-2.884-2.402-3.848-3.965-.962-1.561-1.483-3.332-1.56-5.312h4.686c.157 1.667.657 3.06 1.505 4.18a9.512 9.512 0 0 0 3.124 2.676 13.932 13.932 0 0 0 4.044 1.405c1.457.274 2.889.412 4.296.412 1.433 0 2.858-.15 4.278-.45 1.418-.299 2.694-.755 3.826-1.367 1.134-.613 2.058-1.394 2.775-2.344.715-.95 1.088-2.09 1.112-3.419z" fill-rule="nonzero"/><path d="M0 109.998h312.054v3.984H0z"/></svg>