<svg viewBox="0 0 597 142" xmlns="http://www.w3.org/2000/svg" fill-rule="evenodd" clip-rule="evenodd" stroke-linejoin="round" stroke-miterlimit="1.414"><path d="M1.842 38.729c7.479-17.43 32.72-21.503 46.71-9.717 12.22 9.883 17.496 25.41 21.136 40.134 3.572-14.29 8.58-29.215 20.066-39.165 13.389-12.855 39.132-9.115 47.245 7.946 6.044 12.688.3 27.813-8.647 37.562C116.766 88.01 98.035 88.411 84.98 98.628c-5.41 6.744-7.613 15.459-12.955 22.304h-2.972c-5.542-6.478-8.08-14.892-13.355-21.536-11.252-9.282-26.644-10.685-38.664-18.631C4.045 71.783-3.768 54.054 1.842 38.729m12.153 5.676c-2.738 11.252 5.075 22.57 14.791 27.579 10.585 4.073 21.503 7.479 31.453 13.155-4.909-15.426-7.079-33.155-19.433-44.774-7.479-7.747-21.97-5.443-26.81 4.04m85.574-4.842c-13.388 11.352-15.726 29.75-20.2 45.643 13.322-9.182 32.554-9.015 42.204-23.172 4.04-5.776 6.944-14.49 1.702-20.5-5.843-6.311-17.161-8.381-23.706-1.97zM539.92 60.446c3.708.101 7.669 2.345 8.162 6.299l1.517.451c.827.4.455.172 1.216.722 0 0 1.467 1.241 2.124 2.792 1.694 4.005-.235 8.803.421 12.412 3.082 17.436 2.144 36.72-8.924 50.402-5.251 6.49-14.789 10.386-22.232 5.707-4.146-2.606-6.215-7.742-6.276-12.772 0 0 .52-4.492 3.82-5.779 3.736-1.457 7.989 1.661 8.192 6.114.007.129.017.258.028.387.029.289.069.577.136.86.037.155.08.308.135.457.031.083.065.166.105.245.913 1.837 5.403-.724 7.562-3.855 4.278-6.206 5.967-13.987 6.556-21.527 0 0-21.956 5.215-25.927-9.598-2.453-9.153 3.074-19.145 9.025-26.253 3.457-4.13 8.242-6.955 13.843-7.066.259-.001.259-.001.517.002zm43.971-2.849c2.539.082 4.845 1.165 7.267 1.965 1.113.38 1.279.484 1.833.815 4.226 2.523 4.991 9.834.785 12.398-2.853 1.739-6.983.548-8.553-2.573 0 0-.783-.562-1.556-.605-4.249-.239-6.567 6.858-6.471 11.163 0 0 7.102 2.686 10.701 4.601 6.635 3.531 11.498 11.553 6.464 19.469-3.081 4.845-8.683 7.783-14.299 8.823-5.663 1.048-12.502-.62-15.297-6.387-2.175-4.489-1.52-11.016 3.342-12.115 3.586-.81 7.127 2.279 7.332 6.172.064.991.533.663.886.671 3.245.078 7.519-1.327 8.239-4.408-3.652-4.574-14.614-3.363-18.246-11.272-3.019-6.576-.172-14.596 3.328-20.045 3.014-4.692 7.83-8.576 13.798-8.675.224 0 .223 0 .447.003zm-89.969-1.247c8.605.125 13.627 10.528 14.63 20.166.912 8.774-.816 17.569-.838 26.524 0 0-.238 3.171-2.41 4.793-3.606 2.692-9.637-.007-9.587-5.406.103-11.051 3.376-22.567-1.056-32.398-1.261-2.799-1.947-1.324-2.577-.908-3.241 2.14-5.205 5.801-5.22 9.932-.024 6.577 2.576 12.921 2.657 19.691 0 0-.667 4.721-4.005 5.897-3.648 1.286-7.963-1.704-7.995-5.801a20.747 20.747 0 0 0-.008-.432c-.301-8.577-3.901-17.102-1.961-25.613 1.19-5.22 4.664-9.753 8.751-12.859 2.796-2.124 5.791-3.587 9.619-3.586zm-32.186 3.297c.968.097 1.232.197 1.743.398 2.25.883 3.738 2.758 3.808 5.585v37.386c-.11 4.42-5.964 7.703-9.741 4.691-1.403-1.119-2.214-2.878-2.259-4.691V65.63c.028-1.103.137-1.435.362-2.052.861-2.367 2.834-3.946 5.788-3.946l.299.015zM416.057 6.069c5.178.416 6.803 7.31 7.469 12.377 1.677 12.742.978 25.678.603 38.625 0 0 9.493-6.307 16.076.81 7.977 8.622 5.997 22.261 5.854 32.408-.098 4.72.094 9.663-1.145 14.069-.248.882-.291 1.059-1.058 2.122 0 0-.354.559-1.403 1.313 0 0-.584.487-2 .868l-2.719-.003c-.934-.251-2.175-.998-2.175-.998-1.833-1.434-1.146-.976-1.723-1.958l-.384-.846c-.547-1.633-.382-1.721-.396-2.379-.152-7.601 2.124-19.096.409-30.172-.315-2.033-.714-4.15-1.73-5.814 0 0-3.484 4.84-5.385 10.235a63.595 63.595 0 0 0-1.719 5.734s.298 3.525.186 6.481c-.116 3.087-.524 6.163-.955 9.231 0 0-.824 4.287-3.979 5.437-3.582 1.305-7.895-1.49-8.055-5.638V86.822c.019-1.751.33-3.485.687-5.205 0 0-.248-3.135-.394-5.076-1.368-18.974 2.287-38.298-.642-57.583-.311-2.045-1.245-4.67-1.245-4.67-.473-1.331-.429-1.598-.427-2.244.009-2.754 2.123-5.35 4.878-5.874.868-.165 1.087-.102 1.372-.101zM204.856 52.562c4.429.321 7.421 6.092 4.345 9.815-1.682 2.036-4.759 1.959-7.195 2.431-10.234 1.983-18.741 14.072-14.632 23.696 2.095 4.908 10.511 6.192 15.468 4.448.912-.321.264-.23 1.52-1.037 3.559-2.29 9.341.487 9.244 5.17-.114 5.528-8.276 8.468-14.792 8.291-9.272-.252-19.076-3.967-22.574-12.391-6.994-16.849 7.61-39.297 26.93-40.39.51-.029.587-.056 1.686-.033zm111.341-1.825c4.901.114 9.654 2.506 12.245 6.937 4.238 7.246 2.947 17.029-1.616 24.168-3.387 5.301-10.043 8.259-17.305 6.937 0 0 5.15 3.915 10.577 4.22 1.803.112 4.15.075 4.15.075 4.037-3.039 11.351.848 9.422 6.604-1.311 3.911-6.425 5.641-11.086 5.496-7.231-.226-14.303-1.3-19.972-6.338-12.194-10.838-14.097-32.629-1.263-42.939 4.025-3.234 9.166-5.053 14.314-5.161.267-.001.267-.001.534.001zm-47.753-24.2c-.072-6.493-.117-13.002-.131-19.532 0 0-.126-3.07 1.434-4.898C270.92.731 271.976-.09 274.778.018c3.013.354 5.411 2.901 5.534 5.978.005 7.059.119 14.124.268 21.191 1.619.06 3.239.098 4.861.101 0 0 7.068 1.993 5.836 7.346-.69 2.995-3.752 4.677-7.106 4.647a141.056 141.056 0 0 1-3.317-.081c.185 7.83.362 15.659.435 23.484.103 11.094.401 22.196.845 33.312l.128 1.05c.081.701.293.811-.011 2.945-.375 2.636-.936 2.585-1.805 3.476 0 0-3.609 2.505-6.86 1.007 0 0-1.779-1.155-2.58-2.531l-.506-1.285c-.884-3.64-.492-7.625-.621-11.538-.556-16.826-1-33.654-1.272-50.574-2.816-.149-5.633-.263-8.456-.268 0 0-7.068-1.994-5.835-7.347.585-2.54 2.949-4.491 5.614-4.649.313-.006.312-.004.625-.004 2.634.016 5.262.121 7.889.259zm116.096 6.331V12.064c.051-1.378.184-1.604.415-2.192.923-2.353 3.364-3.891 6.033-3.791 1.37.154 1.586.303 2.155.577 2.016.971 3.312 3.142 3.397 5.406v22.233c.706.039 1.413.062 2.119.066 0 0 3.453.437 4.943 2.648 2.504 3.717-.562 9.453-5.631 9.345-.477-.01-.954-.029-1.431-.054v52.68c-.198 5.277-8.607 8.416-11.406 2.603-.357-.74-.539-1.139-.594-2.603V44.879c-2.381-.299-4.767-.527-7.165-.537 0 0-7.63-2.365-5.629-8.006.799-2.253 3.019-3.865 5.456-3.991.296-.004.296-.003.591-.002 2.256.029 4.504.244 6.747.525zM255.414 52.563c.956.072 1.219.164 1.727.346 2.612.94 3.985 3.158 3.964 6.838-.108 11.23-2.089 22.407-8.248 32.172-4.853 7.694-15.46 11.924-23.577 7.417-8.76-4.863-8.601-18.414-7.96-29.219.214-3.516.495-7.033.501-10.562 0 0 .77-4.497 3.989-5.642 3.48-1.238 7.819 1.446 8.004 5.369.394 8.311-2.315 18.853.534 28.158.722 2.356 5.895 1.882 8.095-1.509 5.161-8.045 6.649-17.914 6.666-27.387 0 0 .98-5.874 6.011-5.989l.294.008zm283.182 19.962c-2.434.358-4.003 2.722-5.534 4.919-2.566 3.683-4.999 7.922-5.039 12.18-.02 2.237 1.923 2.153 3.665 2.487 2.341.449 4.885.647 6.927-.248 0 0 1.242-6.076 1.622-11.204.172-2.389.285-4.783.54-7.158 0 0-.512.084-2.075-.933 0 0-.046-.051-.106-.043zm-222.77-9.789c-3.84.08-7.647 2.182-9.519 5.603-1.165 2.129-1.643 4.576-1.69 6.996 0 0 3.194.68 6.181 1.441 1.515.374 3.121.503 4.611.032.601-.197.577-.45.81-.736 2.641-3.25 3.679-8.541 2.01-12.062-.4-.846-1.377-1.281-2.403-1.274zm220.32 5.162l.015.202c-.01-.159-.019-.361-.015-.202zm-74.834-41.62c4.604.037 8.142 6.387 4.668 10.748-2.971 3.73-10.626 1.757-10.693-3.689-.014-3.504 2.292-6.884 5.73-7.053a7.22 7.22 0 0 1 .295-.006z" fill-rule="nonzero"/></svg>