<?xml version="1.0" encoding="UTF-8" standalone="no"?>
<!DOCTYPE svg PUBLIC "-//W3C//DTD SVG 1.1//EN" "http://www.w3.org/Graphics/SVG/1.1/DTD/svg11.dtd">
<svg width="100%" height="100%" viewBox="0 0 886 169" version="1.1" xmlns="http://www.w3.org/2000/svg" xmlns:xlink="http://www.w3.org/1999/xlink" xml:space="preserve" xmlns:serif="http://www.serif.com/" style="fill-rule:evenodd;clip-rule:evenodd;stroke-linejoin:round;stroke-miterlimit:1.41421;">
    <g transform="matrix(23.5512,0,0,23.5512,-7256.37,-11836.4)">
        <path d="M316.15,509.735L313.474,509.735L313.474,508.835L314.374,508.835L314.37,505.559L312.584,509.735L311.685,509.735L309.898,505.559L309.898,508.835L310.786,508.835L310.786,509.735L308.11,509.735L308.11,508.835L309.01,508.835L309.01,506.555L308.11,506.555L308.11,505.655L309.01,505.655L309.01,503.483L308.11,503.483L308.11,502.583L310.786,502.583L310.786,503.483L309.89,503.483L312.124,508.691L314.37,503.483L313.474,503.483L313.474,502.583L316.15,502.583L316.15,503.483L315.262,503.483L315.262,505.655L316.15,505.655L316.15,506.555L315.262,506.555L315.262,508.835L316.15,508.835L316.15,509.735Z" style="fill:rgb(217,217,217);fill-rule:nonzero;"/>
        <path d="M322.114,509.735L316.762,509.735L316.762,508.835L317.65,508.835L317.65,506.555L316.762,506.555L316.762,505.655L317.65,505.655L317.65,503.483L316.762,503.483L316.762,502.583L322.114,502.583L322.114,504.371L321.226,504.371L321.226,503.483L318.538,503.483L318.538,505.655L320.362,505.655L320.362,505.271L321.25,505.271L321.25,507.047L320.362,507.047L320.362,506.555L318.538,506.555L318.538,508.835L321.226,508.835L321.226,507.947L322.114,507.947L322.114,509.735Z" style="fill:rgb(217,217,217);fill-rule:nonzero;"/>
        <path d="M329.062,509.735L326.386,509.735L326.386,508.835L327.282,508.835L325.936,506.831L324.59,508.835L325.486,508.835L325.486,509.735L322.81,509.735L322.81,508.835L323.706,508.835L325.188,506.603L324.18,506.603L324.18,505.703L325.188,505.703L323.706,503.483L322.81,503.483L322.81,502.583L325.486,502.583L325.486,503.483L324.59,503.483L325.936,505.487L327.282,503.483L326.386,503.483L326.386,502.583L329.062,502.583L329.062,503.483L328.166,503.483L326.685,505.703L327.693,505.703L327.693,506.603L326.685,506.603L328.166,508.835L329.062,508.835L329.062,509.735Z" style="fill:rgb(217,217,217);fill-rule:nonzero;"/>
        <path d="M332.446,509.735L329.77,509.735L329.77,508.835L330.658,508.835L330.658,506.555L329.77,506.555L329.77,505.667L330.658,505.667L330.658,503.483L329.77,503.483L329.77,502.583L332.446,502.583L332.446,503.483L331.558,503.483L331.558,505.667L332.446,505.667L332.446,506.555L331.558,506.555L331.558,508.835L332.446,508.835L332.446,509.735Z" style="fill:rgb(217,217,217);fill-rule:nonzero;"/>
        <path d="M338.818,507.947C338.818,508.171 338.78,508.367 338.704,508.535C338.628,508.703 338.526,508.851 338.398,508.979C338.27,509.107 338.126,509.213 337.966,509.297C337.806,509.381 337.642,509.451 337.474,509.507C337.082,509.643 336.638,509.719 336.142,509.735C335.638,509.719 335.19,509.643 334.798,509.507C334.63,509.451 334.466,509.381 334.306,509.297C334.146,509.213 334.002,509.107 333.874,508.979C333.746,508.851 333.644,508.703 333.568,508.535C333.492,508.367 333.454,508.171 333.454,507.947L333.454,506.555L332.806,506.555L332.806,505.655L333.454,505.655L333.454,504.364C333.454,504.14 333.492,503.945 333.568,503.778C333.644,503.61 333.746,503.465 333.874,503.342C334.002,503.218 334.146,503.112 334.306,503.025C334.466,502.937 334.63,502.865 334.798,502.81C335.19,502.674 335.638,502.599 336.142,502.583C336.638,502.599 337.082,502.675 337.474,502.811C337.642,502.867 337.806,502.939 337.966,503.027C338.126,503.115 338.27,503.221 338.398,503.345C338.526,503.469 338.628,503.615 338.704,503.783C338.78,503.951 338.818,504.147 338.818,504.371L338.818,505.271L337.93,505.271L337.93,504.371C337.93,504.147 337.836,503.975 337.647,503.855C337.459,503.735 337.252,503.647 337.027,503.591C336.762,503.527 336.465,503.491 336.136,503.483C335.799,503.491 335.498,503.526 335.233,503.59C335.009,503.646 334.804,503.733 334.619,503.852C334.435,503.972 334.342,504.143 334.342,504.366L334.342,505.655L334.99,505.655L334.99,506.555L334.342,506.555L334.342,507.947C334.342,508.171 334.435,508.343 334.619,508.463C334.804,508.583 335.009,508.671 335.233,508.727C335.498,508.791 335.799,508.827 336.136,508.835C336.465,508.827 336.762,508.791 337.027,508.727C337.252,508.671 337.459,508.583 337.647,508.463C337.836,508.343 337.93,508.171 337.93,507.947L337.93,507.047L338.818,507.047L338.818,507.947Z" style="fill:rgb(217,217,217);fill-rule:nonzero;"/>
        <path d="M345.694,506.555L345.19,506.555L345.19,507.947C345.19,508.171 345.152,508.367 345.076,508.535C345,508.703 344.898,508.851 344.77,508.979C344.642,509.107 344.498,509.213 344.338,509.297C344.178,509.381 344.014,509.451 343.846,509.507C343.454,509.643 343.01,509.719 342.514,509.735C342.01,509.719 341.562,509.643 341.17,509.507C341.002,509.451 340.838,509.381 340.678,509.297C340.518,509.213 340.374,509.107 340.246,508.979C340.118,508.851 340.016,508.703 339.94,508.535C339.864,508.367 339.826,508.171 339.826,507.947L339.826,506.555L339.43,506.555L339.43,505.667L339.826,505.667L339.826,504.371C339.826,504.147 339.864,503.951 339.94,503.783C340.016,503.615 340.118,503.469 340.246,503.345C340.374,503.221 340.518,503.115 340.678,503.027C340.838,502.939 341.002,502.867 341.17,502.811C341.562,502.675 342.01,502.599 342.514,502.583C343.01,502.599 343.454,502.675 343.846,502.811C344.014,502.867 344.178,502.939 344.338,503.027C344.498,503.115 344.642,503.221 344.77,503.345C344.898,503.469 345,503.615 345.076,503.783C345.152,503.951 345.19,504.147 345.19,504.371L345.19,505.667L345.694,505.667L345.694,506.555ZM344.302,507.947L344.302,506.555L343.906,506.555L343.906,505.667L344.302,505.667L344.302,504.371C344.302,504.147 344.208,503.975 344.02,503.855C343.832,503.735 343.626,503.647 343.402,503.591C343.138,503.527 342.842,503.491 342.514,503.483C342.178,503.491 341.878,503.527 341.614,503.591C341.39,503.647 341.186,503.735 341.002,503.855C340.818,503.975 340.726,504.147 340.726,504.371L340.726,505.667L341.218,505.667L341.218,506.555L340.726,506.555L340.726,507.947C340.726,508.171 340.818,508.343 341.002,508.463C341.186,508.583 341.39,508.671 341.614,508.727C341.878,508.791 342.178,508.827 342.514,508.835C342.842,508.827 343.138,508.791 343.402,508.727C343.626,508.671 343.832,508.583 344.02,508.463C344.208,508.343 344.302,508.171 344.302,507.947Z" style="fill:rgb(217,217,217);fill-rule:nonzero;"/>
    </g>
</svg>
