<?xml version="1.0" encoding="UTF-8" standalone="no"?>
<!DOCTYPE svg PUBLIC "-//W3C//DTD SVG 1.1//EN" "http://www.w3.org/Graphics/SVG/1.1/DTD/svg11.dtd">
<svg width="100%" height="100%" viewBox="0 0 1199 106" version="1.1" xmlns="http://www.w3.org/2000/svg" xmlns:xlink="http://www.w3.org/1999/xlink" xml:space="preserve" xmlns:serif="http://www.serif.com/" style="fill-rule:evenodd;clip-rule:evenodd;stroke-linejoin:round;stroke-miterlimit:1.41421;">
    <g transform="matrix(8.58041,0,0,8.58041,-4979.33,-5500.67)">
        <path d="M589.384,641.401L580.313,641.401L580.313,643.919L583.589,643.919L583.589,653.399L586.108,653.399L586.108,643.919L589.384,643.919L589.384,641.401Z" style="fill:rgb(255,211,0);fill-rule:nonzero;"/>
        <path d="M592.564,653.399L592.564,649.631L599.501,649.631L599.501,653.399L602.032,653.399L602.032,645.804C602.032,644.58 601.6,643.536 600.749,642.684C599.897,641.833 598.853,641.401 597.629,641.401L594.424,641.401C593.212,641.401 592.168,641.833 591.304,642.696C590.453,643.548 590.021,644.592 590.021,645.804L590.021,653.399L592.564,653.399ZM592.564,647.089L592.564,645.804C592.564,645.288 592.744,644.856 593.104,644.496C593.476,644.123 593.908,643.943 594.424,643.943L597.629,643.943C598.145,643.943 598.577,644.123 598.949,644.496C599.321,644.856 599.501,645.288 599.501,645.804L599.501,647.089L592.564,647.089Z" style="fill:rgb(255,211,0);fill-rule:nonzero;"/>
        <path d="M605.416,653.399L605.416,645.803C605.416,645.287 605.596,644.855 605.956,644.495C606.328,644.123 606.76,643.943 607.276,643.943L610.481,643.943C610.997,643.943 611.429,644.123 611.801,644.495C612.173,644.855 612.353,645.287 612.353,645.803L612.353,653.399L614.884,653.399L614.884,645.803C614.884,644.579 614.452,643.536 613.601,642.684C612.749,641.833 611.705,641.401 610.481,641.401L607.276,641.401C606.052,641.401 605.008,641.833 604.156,642.684C603.305,643.536 602.873,644.579 602.873,645.803L602.873,653.399L605.416,653.399Z" style="fill:rgb(255,211,0);fill-rule:nonzero;"/>
        <path d="M623.705,641.401L623.705,643.699C623.705,644.217 623.525,644.65 623.153,645.023C622.793,645.384 622.361,645.565 621.845,645.565L618.256,645.565L618.256,641.401L615.725,641.401L615.725,653.399L618.256,653.399L618.256,648.143L621.989,648.143C622.505,648.143 622.937,648.323 623.297,648.695C623.669,649.055 623.849,649.487 623.849,650.003L623.849,653.399L626.38,653.399L626.38,650.008C626.38,648.721 625.912,647.652 624.977,646.788C625.828,645.937 626.248,644.903 626.248,643.699L626.248,641.401L623.705,641.401Z" style="fill:rgb(255,211,0);fill-rule:nonzero;"/>
        <path d="M628.045,644.587L627.734,642.732L627.734,641.072L629.122,641.072L629.122,642.732L628.797,644.587L628.045,644.587Z" style="fill:rgb(255,211,0);fill-rule:nonzero;"/>
        <path d="M632.664,645.216C632.664,645.036 632.712,644.856 632.82,644.676C633.096,644.207 633.564,643.967 634.224,643.967L637.477,643.967C638.245,643.967 638.917,644.412 639.205,645.12L641.556,644.111C641.208,643.284 640.668,642.636 639.925,642.144C639.181,641.653 638.365,641.401 637.477,641.401L634.224,641.401C633.42,641.401 632.676,641.605 631.992,642.012C630.841,642.696 630.097,643.907 630.097,645.216C630.097,645.913 630.289,646.537 630.673,647.088C631.164,647.82 631.896,648.288 632.868,648.515C633.48,648.659 634.38,648.719 635.568,648.683L635.856,648.683L636.12,648.671C636.756,648.635 637.321,648.647 637.813,648.695C638.665,648.779 639.097,649.068 639.097,649.584C639.097,649.764 639.049,649.944 638.941,650.124C638.665,650.593 638.197,650.833 637.537,650.833L633.864,650.833C633.096,650.833 632.424,650.388 632.124,649.68L629.773,650.689C630.121,651.504 630.661,652.164 631.404,652.656C632.16,653.147 632.976,653.399 633.864,653.399L637.537,653.399C638.329,653.399 639.073,653.195 639.769,652.788C640.92,652.116 641.664,650.893 641.664,649.584C641.664,648.887 641.472,648.264 641.088,647.7C640.584,646.968 639.829,646.501 638.821,646.273C638.197,646.129 637.273,646.069 636.06,646.105C636,646.105 635.952,646.105 635.892,646.117C635.832,646.117 635.808,646.117 635.808,646.117L635.508,646.117C634.512,646.117 633.972,646.117 633.888,646.105C633.072,646.021 632.664,645.721 632.664,645.216Z" style="fill:rgb(255,211,0);fill-rule:nonzero;"/>
        <path d="M655.729,649.008C655.729,649.512 655.549,649.945 655.177,650.317C654.817,650.677 654.385,650.857 653.881,650.857L650.664,650.857C650.16,650.857 649.728,650.677 649.356,650.317C648.996,649.945 648.816,649.512 648.816,649.008L648.816,645.792C648.816,645.288 648.996,644.855 649.356,644.495C649.728,644.123 650.16,643.943 650.664,643.943L653.881,643.943C654.385,643.943 654.817,644.123 655.177,644.495C655.549,644.855 655.729,645.288 655.729,645.792L658.272,645.792C658.272,644.579 657.84,643.536 656.988,642.684C656.137,641.833 655.093,641.401 653.881,641.401L650.664,641.401C649.452,641.401 648.408,641.833 647.556,642.684C646.705,643.536 646.273,644.579 646.273,645.792L646.273,649.008C646.273,650.221 646.705,651.265 647.556,652.116C648.408,652.968 649.452,653.399 650.664,653.399L653.881,653.399C655.093,653.399 656.137,652.968 656.988,652.116C657.84,651.265 658.272,650.221 658.272,649.008L655.729,649.008Z" style="fill:rgb(255,211,0);fill-rule:nonzero;"/>
        <path d="M663.504,641.401C662.292,641.401 661.248,641.833 660.396,642.684C659.545,643.536 659.113,644.579 659.113,645.792L659.113,649.008C659.113,650.221 659.545,651.265 660.396,652.116C661.248,652.968 662.292,653.399 663.504,653.399L666.721,653.399C667.933,653.399 668.977,652.968 669.828,652.116C670.68,651.265 671.112,650.221 671.112,649.008L671.112,645.792C671.112,644.579 670.68,643.536 669.828,642.684C668.977,641.833 667.933,641.401 666.721,641.401L663.504,641.401ZM666.721,643.943C667.225,643.943 667.657,644.123 668.017,644.495C668.389,644.855 668.569,645.288 668.569,645.792L668.569,649.008C668.569,649.512 668.389,649.945 668.017,650.317C667.657,650.677 667.225,650.857 666.721,650.857L663.504,650.857C663,650.857 662.568,650.677 662.196,650.317C661.836,649.945 661.656,649.512 661.656,649.008L661.656,645.792C661.656,645.288 661.836,644.855 662.196,644.495C662.568,644.123 663,643.943 663.504,643.943L666.721,643.943Z" style="fill:rgb(255,211,0);fill-rule:nonzero;"/>
        <path d="M674.484,641.401L671.953,641.401L671.953,653.399L674.484,653.399L674.484,649.763L678.457,649.763C678.973,649.763 679.405,649.943 679.765,650.315C680.125,650.675 680.305,651.107 680.305,651.623L680.305,653.399L682.848,653.399L682.848,651.629C682.848,650.558 682.5,649.619 681.816,648.792C682.548,648.156 682.932,647.353 682.992,646.392C683.004,646.128 683.016,645.828 683.016,645.48C683.016,645.06 682.992,644.712 682.944,644.423C682.788,643.428 682.272,642.648 681.42,642.084C680.761,641.641 679.981,641.425 679.057,641.425L674.484,641.425L674.484,641.401ZM674.484,643.955L679.057,643.955C679.825,643.955 680.281,644.219 680.425,644.76C680.461,644.916 680.485,645.156 680.485,645.48C680.485,645.864 680.473,646.14 680.437,646.308C680.317,646.921 679.861,647.221 679.057,647.221L674.484,647.221L674.484,643.955Z" style="fill:rgb(255,211,0);fill-rule:nonzero;"/>
        <path d="M686.34,653.399L686.34,645.803C686.34,645.287 686.52,644.855 686.88,644.495C687.252,644.123 687.684,643.943 688.2,643.943L691.405,643.943C691.921,643.943 692.353,644.123 692.725,644.495C693.097,644.855 693.277,645.287 693.277,645.803L693.277,653.399L695.808,653.399L695.808,645.803C695.808,644.579 695.376,643.536 694.524,642.684C693.673,641.833 692.629,641.401 691.405,641.401L688.2,641.401C686.976,641.401 685.932,641.833 685.08,642.684C684.229,643.536 683.797,644.579 683.797,645.803L683.797,653.399L686.34,653.399Z" style="fill:rgb(255,211,0);fill-rule:nonzero;"/>
        <path d="M702.36,647.4L702.384,646.141L702.336,646.141L702.336,646.105L702.036,646.105L701.592,646.105C701.436,646.117 701.34,646.117 701.316,646.117C700.908,646.117 700.596,646.105 700.38,646.081C699.6,645.997 699.204,645.696 699.204,645.204C699.204,645.024 699.252,644.844 699.36,644.664C699.636,644.195 700.104,643.955 700.764,643.955L703.992,643.955C704.76,643.955 705.432,644.4 705.72,645.108L708.072,644.111C707.724,643.284 707.184,642.636 706.44,642.144C705.696,641.653 704.88,641.401 703.992,641.401L700.764,641.401C699.972,641.401 699.228,641.605 698.532,642.012C697.381,642.684 696.649,643.895 696.649,645.204C696.649,646.045 696.925,646.776 697.477,647.4C696.925,648.012 696.649,648.743 696.649,649.596C696.649,650.244 696.817,650.857 697.165,651.432C697.525,652.044 698.04,652.536 698.7,652.884C699.336,653.231 700.032,653.399 700.764,653.399L703.992,653.399C704.88,653.399 705.696,653.147 706.44,652.656C707.184,652.164 707.724,651.516 708.072,650.689L705.72,649.692C705.432,650.4 704.76,650.845 703.992,650.845L700.764,650.845C700.416,650.845 700.104,650.761 699.816,650.593C699.408,650.352 699.204,650.016 699.204,649.596C699.204,649.188 699.456,648.923 699.948,648.791C700.2,648.719 700.608,648.683 701.172,648.683L702.036,648.695C702.036,648.695 702.132,648.695 702.336,648.695L702.336,648.659L702.384,648.659L702.36,647.4Z" style="fill:rgb(255,211,0);fill-rule:nonzero;"/>
        <path d="M711.408,641.401L708.877,641.401L708.877,653.399L711.408,653.399L711.408,649.763L715.381,649.763C715.897,649.763 716.329,649.943 716.689,650.315C717.049,650.675 717.229,651.107 717.229,651.623L717.229,653.399L719.772,653.399L719.772,651.629C719.772,650.558 719.424,649.619 718.74,648.792C719.472,648.156 719.856,647.353 719.916,646.392C719.928,646.128 719.94,645.828 719.94,645.48C719.94,645.06 719.916,644.712 719.868,644.423C719.712,643.428 719.196,642.648 718.344,642.084C717.685,641.641 716.905,641.425 715.981,641.425L711.408,641.425L711.408,641.401ZM711.408,643.955L715.981,643.955C716.749,643.955 717.205,644.219 717.349,644.76C717.385,644.916 717.409,645.156 717.409,645.48C717.409,645.864 717.397,646.14 717.361,646.308C717.241,646.921 716.785,647.221 715.981,647.221L711.408,647.221L711.408,643.955Z" style="fill:rgb(255,211,0);fill-rule:nonzero;"/>
    </g>
</svg>
