<?xml version="1.0" encoding="UTF-8" standalone="no"?>
<!DOCTYPE svg PUBLIC "-//W3C//DTD SVG 1.1//EN" "http://www.w3.org/Graphics/SVG/1.1/DTD/svg11.dtd">
<svg width="100%" height="100%" viewBox="0 0 1531 135" version="1.1" xmlns="http://www.w3.org/2000/svg" xmlns:xlink="http://www.w3.org/1999/xlink" xml:space="preserve" xmlns:serif="http://www.serif.com/" style="fill-rule:evenodd;clip-rule:evenodd;stroke-linejoin:round;stroke-miterlimit:1.41421;">
    <g transform="matrix(1.86169,0,0,1.86169,-278.912,-641.173)">
        <path d="M204.24,344.404L149.817,344.404L149.817,359.515L169.473,359.515L169.473,416.395L184.584,416.395L184.584,359.515L204.24,359.515L204.24,344.404Z" style="fill:white;fill-rule:nonzero;"/>
        <path d="M223.32,416.395L223.32,393.787L264.945,393.787L264.945,416.395L280.128,416.395L280.128,370.825C280.128,363.477 277.537,357.213 272.429,352.104C267.32,346.995 261.056,344.404 253.71,344.404L234.482,344.404C227.209,344.404 220.945,346.995 215.764,352.176C210.655,357.285 208.065,363.549 208.065,370.825L208.065,416.395L223.32,416.395ZM223.32,378.532L223.32,370.825C223.32,367.727 224.4,365.134 226.561,362.973C228.793,360.74 231.386,359.659 234.482,359.659L253.71,359.659C256.807,359.659 259.4,360.74 261.632,362.973C263.865,365.134 264.945,367.727 264.945,370.825L264.945,378.532L223.32,378.532Z" style="fill:white;fill-rule:nonzero;"/>
        <path d="M300.432,416.395L300.432,370.819C300.432,367.723 301.512,365.131 303.673,362.971C305.905,360.739 308.498,359.659 311.594,359.659L330.822,359.659C333.919,359.659 336.512,360.739 338.744,362.971C340.977,365.131 342.057,367.723 342.057,370.819L342.057,416.395L357.24,416.395L357.24,370.819C357.24,363.475 354.649,357.213 349.541,352.104C344.432,346.995 338.168,344.404 330.822,344.404L311.594,344.404C304.249,344.404 297.985,346.995 292.876,352.104C287.767,357.213 285.177,363.475 285.177,370.819L285.177,416.395L300.432,416.395Z" style="fill:white;fill-rule:nonzero;"/>
        <path d="M410.169,344.404L410.169,358.196C410.169,361.301 409.089,363.901 406.856,366.139C404.695,368.305 402.103,369.388 399.006,369.388L377.472,369.388L377.472,344.404L362.289,344.404L362.289,416.395L377.472,416.395L377.472,384.859L399.87,384.859C402.967,384.859 405.56,385.939 407.72,388.171C409.953,390.331 411.033,392.923 411.033,396.019L411.033,416.395L426.216,416.395L426.216,396.045C426.216,388.323 423.41,381.909 417.797,376.728C422.906,371.619 425.424,365.417 425.424,358.196L425.424,344.404L410.169,344.404Z" style="fill:white;fill-rule:nonzero;"/>
        <path d="M448.032,367.297C448.032,366.216 448.32,365.135 448.968,364.054C450.625,361.245 453.433,359.803 457.394,359.803L476.911,359.803C481.52,359.803 485.553,362.469 487.281,366.72L501.384,360.668C499.298,355.702 496.06,351.816 491.598,348.866C487.137,345.916 482.24,344.404 476.911,344.404L457.394,344.404C452.569,344.404 448.104,345.628 444.002,348.074C437.094,352.176 432.633,359.444 432.633,367.297C432.633,371.476 433.784,375.219 436.087,378.529C439.037,382.918 443.427,385.725 449.256,387.092C452.929,387.956 458.33,388.316 465.46,388.099L467.188,388.099L468.773,388.028C472.59,387.812 475.974,387.884 478.927,388.171C484.04,388.676 486.633,390.405 486.633,393.503C486.633,394.584 486.345,395.665 485.697,396.746C484.04,399.555 481.232,400.996 477.271,400.996L455.234,400.996C450.625,400.996 446.593,398.331 444.794,394.08L430.689,400.132C432.777,405.026 436.015,408.984 440.476,411.934C445.01,414.884 449.904,416.395 455.234,416.395L477.271,416.395C482.024,416.395 486.489,415.172 490.663,412.726C497.571,408.696 502.032,401.356 502.032,393.503C502.032,389.324 500.881,385.581 498.578,382.199C495.556,377.809 491.022,375.003 484.976,373.636C481.232,372.772 475.686,372.412 468.413,372.628C468.053,372.628 467.765,372.628 467.404,372.7C467.044,372.7 466.9,372.7 466.9,372.7L465.1,372.7C459.123,372.7 455.882,372.7 455.378,372.628C450.481,372.124 448.032,370.323 448.032,367.297Z" style="fill:white;fill-rule:nonzero;"/>
        <path d="M586.425,390.05C586.425,393.075 585.345,395.667 583.112,397.9C580.952,400.06 578.359,401.14 575.334,401.14L556.034,401.14C553.01,401.14 550.417,400.06 548.185,397.9C546.024,395.667 544.944,393.075 544.944,390.05L544.944,370.75C544.944,367.725 546.024,365.133 548.185,362.972C550.417,360.74 553.01,359.659 556.034,359.659L575.334,359.659C578.359,359.659 580.952,360.74 583.112,362.972C585.345,365.133 586.425,367.725 586.425,370.75L601.68,370.75C601.68,363.476 599.089,357.213 593.98,352.104C588.872,346.995 582.608,344.404 575.334,344.404L556.034,344.404C548.761,344.404 542.497,346.995 537.388,352.104C532.279,357.213 529.689,363.476 529.689,370.75L529.689,390.05C529.689,397.324 532.279,403.587 537.388,408.696C542.497,413.805 548.761,416.395 556.034,416.395L575.334,416.395C582.608,416.395 588.872,413.805 593.98,408.696C599.089,403.587 601.68,397.324 601.68,390.05L586.425,390.05Z" style="fill:white;fill-rule:nonzero;"/>
        <path d="M633.074,344.404C625.801,344.404 619.537,346.995 614.428,352.104C609.319,357.213 606.729,363.476 606.729,370.75L606.729,390.05C606.729,397.324 609.319,403.587 614.428,408.696C619.537,413.805 625.801,416.395 633.074,416.395L652.374,416.395C659.648,416.395 665.912,413.805 671.02,408.696C676.129,403.587 678.72,397.324 678.72,390.05L678.72,370.75C678.72,363.476 676.129,357.213 671.02,352.104C665.912,346.995 659.648,344.404 652.374,344.404L633.074,344.404ZM652.374,359.659C655.399,359.659 657.992,360.74 660.152,362.972C662.385,365.133 663.465,367.725 663.465,370.75L663.465,390.05C663.465,393.075 662.385,395.667 660.152,397.9C657.992,400.06 655.399,401.14 652.374,401.14L633.074,401.14C630.05,401.14 627.457,400.06 625.225,397.9C623.064,395.667 621.984,393.075 621.984,390.05L621.984,370.75C621.984,367.725 623.064,365.133 625.225,362.972C627.457,360.74 630.05,359.659 633.074,359.659L652.374,359.659Z" style="fill:white;fill-rule:nonzero;"/>
        <path d="M698.952,344.404L683.769,344.404L683.769,416.395L698.952,416.395L698.952,394.579L722.79,394.579C725.887,394.579 728.48,395.659 730.64,397.891C732.801,400.051 733.881,402.643 733.881,405.739L733.881,416.395L749.136,416.395L749.136,405.776C749.136,399.347 747.049,393.716 742.948,388.751C747.338,384.937 749.64,380.116 750,374.354C750.072,372.769 750.144,370.969 750.144,368.88C750.144,366.359 750,364.27 749.712,362.541C748.777,356.565 745.683,351.888 740.574,348.506C736.616,345.844 731.936,344.548 726.391,344.548L698.952,344.548L698.952,344.404ZM698.952,359.731L726.391,359.731C731,359.731 733.736,361.316 734.601,364.558C734.817,365.494 734.961,366.935 734.961,368.88C734.961,371.185 734.889,372.842 734.673,373.85C733.953,377.524 731.216,379.324 726.391,379.324L698.952,379.324L698.952,359.731Z" style="fill:white;fill-rule:nonzero;"/>
        <path d="M770.088,416.395L770.088,370.819C770.088,367.723 771.168,365.131 773.329,362.971C775.561,360.739 778.154,359.659 781.25,359.659L800.478,359.659C803.575,359.659 806.168,360.739 808.4,362.971C810.633,365.131 811.713,367.723 811.713,370.819L811.713,416.395L826.896,416.395L826.896,370.819C826.896,363.475 824.305,357.213 819.197,352.104C814.088,346.995 807.824,344.404 800.478,344.404L781.25,344.404C773.905,344.404 767.641,346.995 762.532,352.104C757.423,357.213 754.833,363.475 754.833,370.819L754.833,416.395L770.088,416.395Z" style="fill:white;fill-rule:nonzero;"/>
        <path d="M866.208,380.4L866.352,372.844L866.064,372.844L866.064,372.628L864.264,372.628L861.6,372.628C860.664,372.7 860.088,372.7 859.944,372.7C857.496,372.7 855.624,372.628 854.328,372.484C849.648,371.98 847.272,370.179 847.272,367.225C847.272,366.144 847.56,365.063 848.208,363.982C849.864,361.172 852.672,359.731 856.632,359.731L876,359.731C880.608,359.731 884.64,362.397 886.368,366.648L900.48,360.668C898.392,355.702 895.152,351.816 890.688,348.866C886.224,345.916 881.328,344.404 876,344.404L856.632,344.404C851.88,344.404 847.416,345.628 843.242,348.074C836.334,352.104 831.945,359.372 831.945,367.225C831.945,372.268 833.6,376.658 836.91,380.4C833.6,384.07 831.945,388.46 831.945,393.575C831.945,397.466 832.952,401.14 835.039,404.594C837.198,408.264 840.292,411.214 844.25,413.301C848.064,415.388 852.24,416.395 856.632,416.395L876,416.395C881.328,416.395 886.224,414.884 890.688,411.934C895.152,408.984 898.392,405.098 900.48,400.132L886.368,394.152C884.64,398.403 880.608,401.068 876,401.068L856.632,401.068C854.544,401.068 852.672,400.564 850.944,399.555C848.496,398.114 847.272,396.097 847.272,393.575C847.272,391.126 848.784,389.54 851.736,388.748C853.248,388.316 855.696,388.1 859.08,388.1L864.264,388.171C864.264,388.171 864.84,388.171 866.064,388.171L866.064,387.956L866.352,387.956L866.208,380.4Z" style="fill:white;fill-rule:nonzero;"/>
        <path d="M920.496,344.404L905.313,344.404L905.313,416.395L920.496,416.395L920.496,394.579L944.334,394.579C947.431,394.579 950.024,395.659 952.184,397.891C954.345,400.051 955.425,402.643 955.425,405.739L955.425,416.395L970.68,416.395L970.68,405.776C970.68,399.347 968.593,393.716 964.492,388.751C968.882,384.937 971.184,380.116 971.544,374.354C971.616,372.769 971.688,370.969 971.688,368.88C971.688,366.359 971.544,364.27 971.256,362.541C970.321,356.565 967.227,351.888 962.118,348.506C958.16,345.844 953.48,344.548 947.935,344.548L920.496,344.548L920.496,344.404ZM920.496,359.731L947.935,359.731C952.544,359.731 955.28,361.316 956.145,364.558C956.361,365.494 956.505,366.935 956.505,368.88C956.505,371.185 956.433,372.842 956.217,373.85C955.497,377.524 952.76,379.324 947.935,379.324L920.496,379.324L920.496,359.731Z" style="fill:white;fill-rule:nonzero;"/>
    </g>
</svg>
