<?xml version="1.0" encoding="UTF-8" ?>
<!DOCTYPE svg PUBLIC "-//W3C//DTD SVG 1.1//EN" "http://www.w3.org/Graphics/SVG/1.1/DTD/svg11.dtd">
<svg width="1276pt" height="311pt" viewBox="0 0 1276 311" version="1.1" xmlns="http://www.w3.org/2000/svg">
<g id="#5b5b5bff">
<path fill="#5b5b5b" opacity="1.00" d=" M 884.75 0.00 L 888.99 0.00 C 898.80 2.11 908.98 1.98 918.72 4.33 L 919.09 4.79 C 912.25 6.29 905.73 8.91 898.91 10.44 C 901.97 23.46 906.78 36.01 909.48 49.12 C 898.03 56.46 887.31 64.88 875.81 72.13 C 864.06 65.99 854.79 56.08 843.16 49.74 C 838.00 55.29 832.82 60.88 828.53 67.14 C 829.21 58.77 830.72 50.49 832.33 42.26 C 833.51 36.27 837.07 31.20 839.81 25.86 C 843.98 18.66 847.06 10.82 851.93 4.04 C 862.85 2.59 873.94 2.24 884.75 0.00 Z" />
</g>
<g id="#3b3b3bff">
<path fill="#3b3b3b" opacity="1.00" d=" M 898.91 10.44 C 905.73 8.91 912.25 6.29 919.09 4.79 C 926.60 15.77 934.02 26.82 941.50 37.83 C 941.09 42.68 940.22 47.47 939.34 52.26 C 938.36 57.44 937.86 62.85 935.20 67.52 C 932.15 63.10 927.04 61.11 922.70 58.27 C 918.16 55.41 913.55 52.62 909.48 49.12 C 906.78 36.01 901.97 23.46 898.91 10.44 Z" />
<path fill="#3b3b3b" opacity="1.00" d=" M 828.53 67.14 C 832.82 60.88 838.00 55.29 843.16 49.74 C 854.79 56.08 864.06 65.99 875.81 72.13 C 877.98 82.29 878.96 92.68 881.40 102.80 C 885.76 102.55 890.13 102.29 894.51 102.16 C 889.69 102.91 884.86 104.31 879.94 103.83 C 872.30 103.04 864.74 101.66 857.10 100.89 C 854.96 100.51 852.68 100.40 850.77 99.33 C 848.17 96.82 846.50 93.55 844.38 90.66 C 839.28 82.70 833.56 75.15 828.53 67.14 Z" />
<path fill="#3b3b3b" opacity="1.00" d=" M 895.33 102.12 C 896.89 99.88 899.75 100.29 901.92 101.32 C 899.80 102.10 897.55 102.28 895.33 102.12 Z" />
</g>
<g id="#363636ff">
<path fill="#363636" opacity="1.00" d=" M 909.48 49.12 C 913.55 52.62 918.16 55.41 922.70 58.27 C 927.04 61.11 932.15 63.10 935.20 67.52 C 930.30 77.12 924.98 86.48 919.93 95.99 C 919.07 97.64 917.90 99.41 915.86 99.58 C 911.24 100.38 906.55 100.65 901.92 101.32 C 899.75 100.29 896.89 99.88 895.33 102.12 L 894.51 102.16 C 890.13 102.29 885.76 102.55 881.40 102.80 C 878.96 92.68 877.98 82.29 875.81 72.13 C 887.31 64.88 898.03 56.46 909.48 49.12 Z" />
</g>
<g id="#000000ff">
<path fill="#000000" opacity="1.00" d=" M 67.72 65.60 C 75.15 65.68 82.60 65.44 90.02 66.08 C 97.69 66.06 105.35 65.35 113.04 65.64 C 116.60 77.21 121.14 88.43 125.10 99.86 C 128.57 111.37 133.18 122.49 137.09 133.85 C 140.59 145.35 145.10 156.51 149.09 167.85 C 153.96 183.38 160.18 198.43 165.11 213.94 C 169.87 227.54 174.91 241.04 179.63 254.66 C 170.50 256.62 161.19 254.06 151.98 254.93 C 146.69 255.49 141.36 255.40 136.05 255.28 C 132.41 242.17 127.70 229.40 123.57 216.45 C 112.08 214.89 100.56 217.49 89.06 216.09 C 82.37 215.28 75.71 216.88 69.02 216.52 C 64.24 216.83 59.45 215.17 54.74 216.42 C 50.93 229.30 46.29 241.92 42.34 254.76 C 31.94 256.77 21.40 253.76 10.97 255.27 C 7.42 255.48 3.86 255.36 0.31 255.44 C 0.38 254.45 0.52 252.46 0.59 251.46 L 1.33 251.45 C 2.46 247.93 3.47 244.36 4.98 240.99 C 5.26 239.82 5.52 238.65 5.75 237.48 L 6.36 237.46 C 7.44 233.92 8.48 230.36 9.97 226.97 C 10.36 225.80 10.61 224.60 10.71 223.37 L 11.39 223.52 C 12.44 218.71 14.81 214.33 15.81 209.51 L 16.36 209.41 C 17.44 205.88 18.51 202.33 19.98 198.93 C 20.25 197.76 20.50 196.60 20.75 195.43 L 21.37 195.47 C 22.36 191.76 23.85 188.22 24.80 184.50 L 25.66 184.38 C 25.61 183.64 25.51 182.18 25.46 181.44 L 26.35 181.44 C 27.45 177.91 28.50 174.35 29.99 170.96 C 30.32 169.82 30.59 168.68 30.78 167.51 L 31.36 167.45 C 32.32 163.75 33.87 160.23 34.81 156.52 L 35.59 156.37 C 35.62 155.79 35.70 154.62 35.73 154.03 C 37.75 149.31 39.63 144.47 40.78 139.46 L 41.39 139.50 C 42.39 135.93 43.49 132.37 44.99 128.98 C 45.21 127.80 45.48 126.63 45.77 125.47 L 46.38 125.47 C 47.36 120.65 49.98 116.36 50.79 111.50 L 51.36 111.46 C 52.37 107.89 53.54 104.36 55.01 100.95 C 55.17 99.79 55.44 98.67 55.82 97.57 L 56.35 97.40 C 57.63 92.83 59.41 88.42 60.90 83.91 C 62.35 80.27 63.58 76.56 64.92 72.89 C 65.82 70.45 66.78 68.03 67.72 65.60 M 89.90 110.54 C 81.93 134.90 73.50 159.13 65.96 183.63 C 81.62 183.38 97.28 183.61 112.94 183.57 C 111.68 178.74 109.96 174.05 108.59 169.25 C 104.63 155.21 99.11 141.66 95.32 127.56 C 93.59 121.87 91.72 116.21 89.90 110.54 Z" />
<path fill="#000000" opacity="1.00" d=" M 1073.57 77.42 C 1085.93 77.25 1098.30 77.79 1110.66 77.33 C 1110.34 90.35 1110.37 103.37 1110.62 116.39 C 1118.27 116.51 1125.92 116.66 1133.57 116.31 C 1133.25 125.07 1133.31 133.83 1133.42 142.59 C 1125.77 142.73 1118.12 142.97 1110.48 142.57 C 1110.33 160.37 1110.67 178.17 1110.56 195.98 C 1110.69 205.69 1109.60 215.60 1111.83 225.16 C 1112.41 227.74 1115.36 227.86 1117.45 228.37 C 1122.77 228.88 1128.13 228.49 1133.47 228.36 C 1133.45 237.77 1133.35 247.19 1133.53 256.61 C 1126.01 256.45 1118.50 256.89 1111.01 257.44 C 1104.19 258.01 1097.51 256.29 1090.96 254.64 C 1085.32 252.60 1079.19 249.98 1076.46 244.23 C 1076.51 243.84 1076.61 243.07 1076.66 242.68 L 1075.67 242.58 C 1074.70 238.42 1073.37 234.27 1073.54 229.96 C 1073.88 200.81 1073.38 171.66 1073.68 142.51 C 1067.25 142.68 1060.82 142.84 1054.39 142.76 C 1054.40 133.99 1054.51 125.22 1054.48 116.44 C 1060.85 116.59 1067.23 116.38 1073.60 116.46 C 1073.47 103.45 1073.83 90.43 1073.57 77.42 Z" />
<path fill="#000000" opacity="1.00" d=" M 257.08 113.02 C 268.81 111.20 281.25 112.05 291.98 117.47 C 300.07 120.94 306.58 127.10 312.26 133.68 C 321.43 145.01 324.79 159.73 326.26 173.92 C 326.50 186.30 326.45 198.82 323.52 210.93 C 320.61 223.91 314.30 236.41 304.29 245.35 C 298.37 250.55 291.40 254.63 283.88 257.01 C 274.46 259.42 264.57 259.17 254.96 258.36 C 243.46 255.68 232.52 248.41 227.15 237.69 C 227.58 261.72 227.07 285.76 227.29 309.80 C 221.49 309.74 215.73 310.67 209.93 310.27 C 203.50 309.85 196.99 309.32 190.60 310.43 C 190.85 245.34 190.64 180.25 190.71 115.16 C 202.39 113.93 214.10 115.30 225.80 115.08 C 226.52 121.69 226.47 128.36 226.11 134.99 C 232.60 123.64 244.17 115.33 257.08 113.02 M 248.53 145.68 C 242.70 147.21 237.13 150.44 233.75 155.55 C 228.65 162.62 226.97 171.44 226.34 179.96 C 226.36 190.44 225.28 201.43 229.97 211.19 C 233.33 219.27 240.74 225.35 249.19 227.44 C 257.35 229.26 266.58 228.41 273.54 223.47 C 282.89 216.41 286.88 204.37 287.68 193.09 C 287.50 185.56 288.47 177.85 286.38 170.50 C 284.28 162.20 280.41 153.73 273.11 148.80 C 266.03 143.81 256.67 143.71 248.53 145.68 Z" />
<path fill="#000000" opacity="1.00" d=" M 378.12 135.02 C 384.99 123.15 397.29 114.34 411.00 112.62 C 419.03 111.87 427.24 111.94 435.10 113.92 C 453.02 119.18 468.15 133.51 473.75 151.40 C 479.64 168.33 478.98 186.62 477.15 204.18 C 476.76 205.86 476.40 207.54 476.07 209.24 C 472.81 223.91 465.75 238.35 453.62 247.67 C 445.17 254.14 434.83 258.79 424.04 258.83 C 414.96 259.07 405.35 259.27 397.06 254.97 C 389.60 251.20 383.08 245.23 379.11 237.85 C 379.63 262.06 379.02 286.29 379.42 310.51 C 367.20 308.77 354.89 311.13 342.68 309.80 C 342.63 244.70 342.84 179.59 342.57 114.48 C 354.45 115.57 366.39 114.25 378.30 114.66 C 378.27 121.45 378.46 128.24 378.12 135.02 M 387.50 153.40 C 379.57 162.95 377.82 176.04 378.31 188.06 C 377.89 197.27 379.17 206.92 384.05 214.92 C 387.47 220.93 393.53 225.03 400.02 227.10 C 408.69 229.07 418.64 228.77 425.91 223.10 C 434.22 216.62 437.84 206.09 439.44 196.04 C 439.98 190.70 439.60 185.32 439.71 179.96 C 439.84 175.22 438.30 170.67 436.92 166.20 C 434.98 160.14 432.01 154.07 426.93 150.04 C 415.27 141.84 397.19 142.32 387.50 153.40 Z" />
<path fill="#000000" opacity="1.00" d=" M 556.12 114.09 C 562.66 112.26 569.90 110.66 576.54 112.24 C 576.99 124.78 576.58 137.35 576.68 149.90 C 564.87 149.13 551.40 148.53 541.93 156.95 C 533.25 164.89 533.07 177.57 532.50 188.46 C 532.29 210.60 532.46 232.74 532.41 254.89 C 524.92 254.96 517.43 254.73 509.95 254.99 C 505.16 255.44 500.34 255.43 495.57 254.81 C 495.66 208.11 495.49 161.42 495.65 114.73 C 507.22 114.73 518.81 114.60 530.39 114.75 C 530.41 122.83 530.39 130.90 530.43 138.98 C 536.28 128.51 544.17 117.85 556.12 114.09 Z" />
<path fill="#000000" opacity="1.00" d=" M 597.92 130.92 C 608.49 119.56 623.64 113.06 638.98 111.72 C 649.35 111.28 659.86 111.21 669.96 113.95 C 677.53 116.05 684.86 119.21 691.22 123.87 C 703.55 133.49 712.28 147.60 715.33 162.95 C 717.69 173.66 717.42 184.67 717.36 195.57 C 683.63 195.43 649.89 195.80 616.16 195.50 C 616.62 204.02 618.62 212.94 624.40 219.51 C 631.04 226.88 641.30 230.18 651.05 229.76 C 658.67 229.93 666.41 227.27 671.97 221.99 C 674.34 219.54 676.08 216.58 677.88 213.70 C 690.46 213.68 703.03 213.82 715.61 213.63 C 713.76 225.95 705.91 236.64 696.63 244.57 C 683.65 255.92 665.88 260.16 648.97 259.75 C 629.97 260.23 610.75 253.14 596.98 239.98 C 586.83 230.82 581.82 217.32 579.82 204.08 C 578.34 196.14 578.76 188.08 578.68 180.05 C 579.55 162.28 584.73 143.58 597.92 130.92 M 626.42 150.34 C 620.88 155.76 618.66 163.41 617.03 170.76 C 637.68 170.65 658.32 170.66 678.97 170.77 C 678.22 165.26 677.12 159.60 673.95 154.92 C 668.93 147.35 659.96 143.04 651.04 142.46 C 642.32 141.88 632.62 143.71 626.42 150.34 Z" />
<path fill="#000000" opacity="1.00" d=" M 747.65 122.56 C 759.60 114.08 774.66 111.42 789.05 111.67 C 798.59 112.15 808.19 113.49 817.19 116.87 C 823.82 119.74 830.32 123.34 835.40 128.58 C 844.55 138.63 848.08 152.37 849.54 165.57 C 836.87 165.85 824.20 165.41 811.54 165.64 C 810.06 158.38 807.37 150.32 800.53 146.45 C 791.12 141.08 778.30 142.04 770.05 149.18 C 764.17 154.14 761.38 161.69 759.87 169.02 C 758.46 178.89 757.61 188.96 759.15 198.88 C 760.16 207.49 762.67 216.58 769.05 222.81 C 773.82 227.30 780.48 229.33 786.97 228.73 C 792.72 229.19 798.52 227.57 803.03 223.93 C 807.70 218.21 810.19 210.99 810.91 203.70 C 823.48 203.78 836.06 203.56 848.63 203.77 C 848.54 206.27 848.37 208.77 848.21 211.27 C 843.94 227.79 834.18 243.79 818.86 252.11 C 809.36 257.86 798.00 259.64 787.05 259.76 C 773.14 260.35 758.66 257.78 746.78 250.21 C 732.00 240.47 723.98 223.18 720.90 206.22 C 718.90 191.88 719.10 177.20 721.96 162.98 C 725.54 147.10 733.98 131.86 747.65 122.56 Z" />
<path fill="#000000" opacity="1.00" d=" M 939.52 126.60 C 949.74 116.23 964.92 113.05 978.92 112.00 C 988.36 111.99 997.93 111.89 1007.21 113.92 C 1014.79 115.48 1022.09 118.33 1028.90 121.99 C 1038.55 127.26 1043.84 138.15 1044.69 148.82 C 1045.34 158.55 1045.30 168.31 1045.30 178.06 C 1044.56 197.74 1044.95 217.46 1045.44 237.14 C 1045.50 242.08 1047.66 247.21 1052.60 249.01 C 1052.66 251.13 1052.68 253.26 1052.69 255.39 C 1044.76 255.15 1036.83 254.36 1028.90 254.98 C 1023.26 255.49 1017.57 255.46 1011.99 254.50 C 1010.76 249.39 1009.45 244.28 1009.32 238.99 C 1004.74 243.90 999.41 248.07 993.86 251.81 C 982.89 258.26 969.63 260.74 957.07 258.76 C 943.79 257.17 930.54 249.56 924.94 237.03 C 920.76 228.64 920.92 218.96 921.70 209.86 C 923.00 199.15 928.49 188.56 937.69 182.60 C 950.94 173.35 967.58 172.28 983.08 170.05 C 990.50 169.05 998.93 168.93 1004.92 163.82 C 1008.75 160.75 1007.89 155.41 1007.45 151.13 C 1006.16 145.72 1000.23 143.81 995.45 142.72 C 987.52 141.51 978.82 140.44 971.41 144.30 C 965.42 147.53 962.53 154.27 961.45 160.68 C 949.49 160.71 937.54 160.90 925.58 160.65 C 926.41 148.24 930.30 135.39 939.52 126.60 M 992.11 193.41 C 982.65 194.82 972.61 195.95 964.49 201.46 C 957.89 206.15 957.04 215.56 959.52 222.72 C 961.64 229.02 968.60 232.19 974.86 232.36 C 984.46 232.50 994.53 229.39 1001.34 222.40 C 1009.14 212.73 1008.05 199.56 1008.05 187.91 C 1002.88 190.12 997.79 192.84 992.11 193.41 Z" />
<path fill="#000000" opacity="1.00" d=" M 1193.80 111.71 C 1203.95 111.50 1214.23 110.99 1224.27 112.85 C 1242.17 116.68 1258.33 128.23 1266.91 144.52 C 1267.50 145.73 1268.12 146.93 1268.79 148.12 C 1269.48 149.88 1270.17 151.66 1270.61 153.52 L 1271.55 153.36 C 1271.50 154.12 1271.39 155.64 1271.33 156.40 L 1272.52 156.37 C 1272.52 157.04 1272.51 158.39 1272.51 159.06 C 1276.20 170.86 1275.34 183.37 1275.34 195.56 C 1264.91 195.62 1254.48 195.94 1244.05 195.52 C 1234.02 195.87 1223.99 195.70 1213.97 195.54 C 1200.72 196.11 1187.47 195.19 1174.22 195.75 C 1174.52 200.33 1175.42 204.86 1176.60 209.29 C 1176.75 209.36 1177.04 209.50 1177.19 209.57 C 1178.36 214.58 1181.57 218.90 1185.33 222.31 C 1191.20 226.92 1198.49 229.80 1206.03 229.69 C 1214.07 229.90 1222.75 228.57 1228.95 222.99 C 1231.76 220.29 1233.69 216.84 1235.76 213.57 C 1241.86 213.41 1247.96 214.33 1254.06 213.86 C 1260.53 213.40 1267.03 213.63 1273.51 213.68 C 1273.06 216.30 1272.66 218.92 1272.30 221.55 L 1271.71 221.70 C 1269.08 230.17 1262.84 236.72 1256.62 242.75 C 1253.69 245.36 1250.82 248.07 1247.49 250.18 C 1245.29 251.53 1243.03 252.78 1240.62 253.72 L 1240.47 254.20 C 1234.18 255.55 1228.20 258.10 1221.86 259.26 C 1214.58 260.26 1207.24 259.60 1199.93 259.66 C 1190.88 259.74 1182.28 256.47 1174.14 252.87 C 1169.77 250.76 1165.21 248.89 1161.53 245.66 L 1160.59 245.38 C 1150.53 237.52 1143.23 226.36 1139.97 214.02 C 1136.51 201.98 1136.37 189.38 1136.67 176.96 C 1137.84 164.21 1141.37 151.60 1147.78 140.47 C 1151.96 134.20 1157.61 129.11 1163.29 124.24 C 1171.93 117.03 1183.09 114.23 1193.80 111.71 M 1188.11 147.37 C 1180.54 152.82 1176.63 161.84 1174.97 170.78 C 1185.30 170.89 1195.65 170.23 1205.98 170.99 C 1216.28 170.53 1226.60 170.45 1236.91 171.03 C 1236.44 166.61 1235.74 162.13 1233.77 158.11 C 1230.34 150.79 1223.37 145.11 1215.36 143.69 C 1206.34 141.67 1195.74 141.31 1188.11 147.37 Z" />
<path fill="#000000" opacity="1.00" d=" M 866.19 115.06 C 878.61 115.12 891.04 115.10 903.47 115.04 C 903.46 161.86 903.34 208.68 903.53 255.49 C 890.94 253.61 878.22 256.38 865.65 254.69 C 865.82 212.12 865.46 169.52 865.85 126.96 C 865.50 122.99 865.74 119.01 866.19 115.06 Z" />
</g>
</svg>
