<svg viewBox="0 0 465 98" xmlns="http://www.w3.org/2000/svg" fill-rule="evenodd" clip-rule="evenodd" stroke-linecap="round" stroke-linejoin="round" stroke-miterlimit="1.414"><g fill-rule="nonzero"><path d="M89.564 39.053h1.904c5.937 7.383 8.906 12.46 8.906 15.235h6.358c.605 0 1.24.634 1.904 1.904v1.904c0 .606-.635 1.24-1.904 1.905h-3.838c.429 2.91.859 4.814 1.289 5.712-.938 6.348-3.692 9.522-8.262 9.522h-1.26c-5.937-.664-8.906-2.988-8.906-6.973v-.644c0-4.414 3.174-8.438 9.52-12.071-1.834-4.238-3.524-6.982-5.067-8.232-2.246 3.086-6.474 10.068-12.685 20.947-3.516 4.649-5.85 6.973-7.002 6.973-1.114 0-2.168-1.055-3.164-3.164 5.39-6.836 11.318-16.152 17.783-27.95 2.636-3.378 4.11-5.068 4.424-5.068zm1.904 27.305v2.52l3.193.644h1.905c.957 0 1.59-1.055 1.904-3.164-.274-3.398-.908-5.098-1.904-5.098-.547 0-2.247 1.7-5.098 5.098zM115.802 37.149c1.699 0 2.549 1.689 2.549 5.068 3.652-3.38 7.88-5.068 12.685-5.068h3.809c6.406 0 10.635 3.809 12.685 11.426.43 2.285.645 4.189.645 5.713v18.427c-.88 1.68-1.934 2.52-3.164 2.52-1.7-.41-2.55-1.68-2.55-3.81v-4.452c0-2.715.216-5.46.646-8.232 0-10.586-2.97-15.88-8.907-15.88h-3.808c-3.692 0-7.705 2.325-12.041 6.974v22.88c-.88 1.68-1.944 2.52-3.194 2.52-1.68-.625-2.52-1.26-2.52-1.904V54.288c0-3.418-.214-7.442-.644-12.071 1.035-3.38 2.305-5.068 3.809-5.068zM172.714 38.409h7.002c5.176 0 8.769 1.699 10.78 5.097-.43 7.813-.643 13.526-.643 17.139V73.33c0 .664-.84 1.513-2.52 2.548-1.933-.82-2.998-1.67-3.193-2.548v-7.618c-5.332 6.348-10.196 9.522-14.59 9.522h-1.904c-7.637 0-12.08-4.658-13.33-13.975 2.949-15.234 9.082-22.851 18.398-22.851zm-12.686 24.14c.782 4.649 3.536 6.973 8.262 6.973h1.26c5.176 0 10.039-5.713 14.59-17.14.429-2.303.644-4.628.644-6.971l-1.904-1.29h-9.521c-5.372 0-9.395 3.809-12.071 11.426-.84 1.66-1.26 3.995-1.26 7.002zM199.773 28.272h1.904c.605 0 1.24.635 1.904 1.904v2.52c0 .664-.85 1.514-2.55 2.549h-1.258c-.664 0-1.514-.85-2.55-2.55 0-2.265.85-3.74 2.55-4.423zm0 10.137h1.904c.605 0 1.24.635 1.904 1.904.41 19.199.615 30.42.615 33.662l-1.26.645h-2.548c-1.68 0-2.52-11.221-2.52-33.662.625-1.7 1.26-2.55 1.905-2.55zM228.12 16.846h1.289c6.758 1.035 10.137 4.414 10.137 10.137 0 6.797-6.133 11.67-18.398 14.619-.43 5.899-.645 9.707-.645 11.426 0 10.156 1.064 15.234 3.193 15.234h.616c.254 0 1.523-1.27 3.808-3.808h1.905c.625 0 1.259.634 1.904 1.904-.996 5.078-3.535 7.617-7.617 7.617h-.616c-5.937 0-8.906-7.412-8.906-22.236 0-.625.215-3.584.645-8.877-1.953.84-4.073 1.26-6.358 1.26-2.11-.293-3.164-.928-3.164-1.905v-1.904c0-.977 3.174-2.031 9.522-3.164v-1.26c0-12.695 4.228-19.043 12.685-19.043zM221.148 34.6v1.289c8.457-2.13 12.685-5.303 12.685-9.521-.566-1.758-1.621-3.028-3.164-3.81h-1.904c-5.078 0-7.617 4.015-7.617 12.042zM240.267 35.889h2.519c1.27 0 2.334 1.905 3.194 5.713-.84 4.649-2.745 6.973-5.713 6.973-1.7-.625-2.55-1.26-2.55-1.905 0-2.54.85-3.808 2.55-3.808v-.645l-1.905-2.52c.254-2.538.889-3.808 1.905-3.808zM259.562 39.053c2.01 0 5.185 5.078 9.52 15.235h6.359c.605 0 1.24.634 1.904 1.904v1.904c0 .606-.635 1.24-1.904 1.905h-3.838c.429 2.91.859 4.814 1.289 5.712 0 6.348-2.97 9.522-8.907 9.522h-1.904c-5.078-.957-7.617-3.281-7.617-6.973v-1.29c0-3.768 3.174-7.577 9.52-11.425-2.674-5.488-4.364-8.232-5.067-8.232l-12.685 20.303c-2.793 5.078-5.547 7.617-8.262 7.617-1.27-1.641-1.904-2.91-1.904-3.81 5.625-6.25 11.552-15.35 17.783-27.303 2.46-3.38 4.365-5.07 5.713-5.07zm.615 29.209c.137.84.566 1.26 1.289 1.26h3.809c.957 0 1.59-1.055 1.904-3.164 0-1.27-.43-2.97-1.29-5.098-3.808 1.993-5.712 4.326-5.712 7.002zM306.472 19.366h1.904c.625 0 1.26.635 1.904 1.904v17.139h7.002l6.328-.615c1.27 1.386 1.905 2.44 1.905 3.164 0 2.109-2.744 3.164-8.233 3.164h-6.357l-1.26-.616v4.424c0 2.676-.215 5.85-.644 9.522 0 8.047 4.023 12.07 12.07 12.07h4.424c5.937 0 8.906-5.078 8.906-15.234 1.387-.84 2.656-1.26 3.809-1.26l1.904 1.26c0 10.957-3.39 17.734-10.166 20.332l-4.453.615h-5.07c-9.491 0-14.99-4.658-16.493-13.975 0-2.54-.215-3.808-.644-3.808l.644-4.424c0-1.856.205-11.172.615-27.95l.645-1.26c-.43-.741-.645-1.591-.645-2.548 0-.605.635-1.24 1.905-1.904zM361.802 38.409h7.002c5.176 0 8.769 1.699 10.78 5.097-.43 7.813-.643 13.526-.643 17.139V73.33c0 .664-.84 1.513-2.52 2.548-1.934-.82-2.998-1.67-3.193-2.548v-7.618c-5.332 6.348-10.196 9.522-14.59 9.522h-1.904c-7.637 0-12.081-4.658-13.331-13.975 2.95-15.234 9.082-22.851 18.399-22.851zm-12.686 24.14c.782 4.649 3.535 6.973 8.262 6.973h1.26c5.176 0 10.039-5.713 14.59-17.14.429-2.303.644-4.628.644-6.971l-1.904-1.29h-9.522c-5.371 0-9.394 3.809-12.07 11.426-.84 1.66-1.26 3.995-1.26 7.002zM404.974 37.794c6.25 0 10.693 3.593 13.33 10.78.859 6.583 1.289 15.264 1.289 26.046v2.519h5.068c.606 0 1.24.635 1.905 1.905v1.904c0 .605-.635 1.24-1.905 1.904h-5.068c0 8.457-3.81 13.33-11.426 14.619h-5.713c-9.023 0-14.316-3.388-15.88-10.166 0-6.27 8.468-9.863 25.402-10.781h1.259c0 .41.215.615.645.615V70.81c-4.512 3.379-8.955 5.068-13.33 5.068-10.586-1.953-15.88-6.826-15.88-14.62v-3.163c1.485-13.125 6.983-19.687 16.495-19.687 0-.41 1.27-.615 3.809-.615zm-14.59 20.947v1.904c0 5.918 2.959 8.877 8.877 8.877 0 .43.43.645 1.289.645 8.457 0 12.685-4.444 12.685-13.331v-1.29c0-8.026-3.173-12.04-9.521-12.04-8.887 0-13.33 5.079-13.33 15.235zm1.904 28.564c1.485 2.969 5.078 4.453 10.78 4.453h4.455c3.71 0 5.83-2.754 6.357-8.261v-1.26c-11.31 0-18.506 1.689-21.592 5.068z"/><path d="M446.417 39.053c2.012 0 5.186 5.078 9.522 15.235h6.357c.605 0 1.24.634 1.904 1.904v1.904c0 .606-.634 1.24-1.904 1.905h-3.838c.43 2.91.859 4.814 1.289 5.712 0 6.348-2.97 9.522-8.906 9.522h-1.904c-5.078-.957-7.618-3.281-7.618-6.973v-1.29c0-3.768 3.174-7.577 9.522-11.425-2.676-5.488-4.365-8.232-5.068-8.232l-12.686 20.303c-2.793 5.078-5.547 7.617-8.262 7.617-1.27-1.641-1.904-2.91-1.904-3.81 5.625-6.25 11.553-15.35 17.783-27.303 2.46-3.38 4.365-5.07 5.713-5.07zm.615 29.209c.137.84.567 1.26 1.289 1.26h3.809c.957 0 1.592-1.055 1.904-3.164 0-1.27-.43-2.97-1.29-5.098-3.807 1.993-5.712 4.326-5.712 7.002z"/></g><path d="M19.707 6.372c6.3-3.514 13.597-5.033 20.776-4.859 6.359.202 12.77 1.586 18.416 4.581 4.372 2.39 8.204 5.668 11.567 9.322 3.654 4.094 6.808 8.755 8.53 14.002.13.357.195.741.136 1.12-.415 3.622-1.721 7.132-3.725 10.174-1.56 2.346-3.558 4.37-5.707 6.18-2.257 1.79-4.757 3.335-7.514 4.215-.258.652-.376 1.348-.627 2.003-2.405 7.524-8.298 13.849-15.645 16.75-7.67 3.204-16.631 3.124-24.249-.202-5.737-2.388-10.707-6.53-14.198-11.662-2.842-4.173-4.719-8.983-5.524-13.963-.123-1.46-.45-2.907-.367-4.38-.076-1.01-.12-2.02-.007-3.03-.04-1.479.177-2.944.349-4.408.369-2.672.975-5.32 1.92-7.85.813-2.268 1.989-4.389 3.31-6.397 3.2-4.78 7.541-8.784 12.559-11.596m18.135-2.38a24.006 24.006 0 0 0-3.494.24 37.54 37.54 0 0 0-11.553 3.286c-6.767 3.259-12.454 8.78-15.758 15.54-1.067 2.287-1.814 4.714-2.293 7.189-.28 1.187-.35 2.409-.567 3.607-.309 2.608-.2 5.244-.063 7.854.612 6.208 3.023 12.247 6.991 17.075 4.608 5.65 11.339 9.572 18.564 10.642.933.251 1.904.163 2.851.31 1.202.165 2.41-.04 3.615-.031 1.416-.185 2.855-.26 4.238-.65a27.13 27.13 0 0 0 7.4-2.772c5.064-2.815 9.09-7.461 11.096-12.9.977-2.684 1.649-5.486 1.932-8.331.118-2.089.253-4.204-.175-6.269-.69-4.663-3.077-8.958-6.29-12.36-2.491-2.604-5.67-4.555-9.14-5.543-3.69-1.114-7.674-1.16-11.41-.236-4.484 1.282-8.367 4.41-10.733 8.408-.174.295-.428.616-.379.957-.338.264-.458.692-.623 1.07-.151.404-.374.805-.332 1.252l-.098-.032c-.45 1.19-.583 2.462-.764 3.712-.132 1.793.106 3.586.452 5.344.692 2.866 2.103 5.59 4.234 7.65 2.535 2.496 5.978 3.992 9.505 4.32 1.024-.047 2.06.09 3.073-.104 2.354-.487 4.673-1.395 6.521-2.965 2.53-2.154 3.569-5.58 3.53-8.816.08-1.63-.241-3.278-.903-4.77-1.12-2.658-3.515-4.727-6.284-5.513-1.258-.394-2.596-.492-3.906-.412-1.821.262-3.56 1.121-4.844 2.445-1.725 1.663-2.592 4.246-1.984 6.594.206.996.642 1.93 1.162 2.799a5.782 5.782 0 0 0 3.219 2.386c.763.3 1.593.174 2.392.209 1.7-.255 3.361-1.347 3.956-3.01.403-1.296.26-2.805-.594-3.893-.866-1.014-2.45-1.485-3.663-.833-.35.151-.77.17-1.126.032-.817-.382-.861-1.719-.067-2.151 1.714-1.077 4.027-.742 5.62.407 1.634 1.072 2.542 3.082 2.44 5.01.11 2.23-1.119 4.443-2.999 5.618-2.317 1.58-5.474 1.716-7.96.45-2.519-1.175-4.107-3.736-4.74-6.368-.342-1.008-.184-2.078-.226-3.12.454-4.762 4.765-8.677 9.477-9.013.623.018 1.246.015 1.87.003 3.932.26 7.679 2.51 9.725 5.886 1.273 2.073 1.9 4.514 1.927 6.936-.101 1.006-.028 2.025-.258 3.017-.437 3.16-1.997 6.22-4.529 8.208-1.59 1.368-3.552 2.206-5.53 2.841a14.467 14.467 0 0 1-6.74.405c-4.517-.674-8.749-3.158-11.503-6.806-1.857-2.482-3.002-5.46-3.464-8.514-.208-1.05-.235-2.125-.206-3.192-.078-1.733.213-3.466.695-5.125 1.576-5.302 5.536-9.74 10.416-12.262 2.54-1.315 5.38-1.987 8.223-2.184 1.604.012 3.225-.093 4.807.238 3.084.446 6.098 1.492 8.753 3.13 2.25 1.349 4.224 3.118 5.914 5.118 2.387 2.877 4.283 6.216 5.216 9.853a23.9 23.9 0 0 1 .864 5.35c-.052 1.45.104 2.91-.151 4.348-.039.93-.227 1.846-.383 2.757a26.271 26.271 0 0 0 8.778-6.622c2.418-2.711 4.075-6.073 4.83-9.622.14-.747.436-1.543.138-2.289-.878-2.583-2.164-5.013-3.682-7.274-2.801-4.238-6.322-7.989-10.329-11.107-2.288-1.74-4.729-3.321-7.405-4.394-2.068-.898-4.236-1.545-6.435-2.03-2.177-.546-4.421-.733-6.646-.975-1.399.052-2.798-.195-4.195-.008z" fill="#010101" fill-rule="nonzero" stroke="#000" stroke-width="3.0003921000000005"/></svg>