<svg viewBox="0 0 132 132" xmlns="http://www.w3.org/2000/svg"><path d="M112.2 0C123.128 0 132 8.872 132 19.8v92.4c0 10.928-8.872 19.8-19.8 19.8H19.8C8.872 132 0 123.128 0 112.2V19.8C0 8.872 8.872 0 19.8 0h92.4zm-9.018 83.533v-7.568c-.072-9.293-1.982-16.308-5.727-21.046-3.744-4.738-9.323-7.104-16.741-7.104-7.598 0-13.434 2.526-17.505 7.578-4.074 5.055-6.109 12.234-6.109 21.542v4.688c0 8.799 2.218 15.561 6.652 20.287 4.437 4.727 10.618 7.09 18.544 7.09 4.218 0 8.124-.808 11.725-2.426 3.599-1.618 6.344-3.737 8.234-6.353l-6.054-9.326c-3.454 3.526-7.763 5.289-12.923 5.289-3.564 0-6.201-1.014-7.908-3.038-1.71-2.027-2.674-5.232-2.89-9.613h30.702zM43.051 48.904v-7.253c0-4.108.828-7.261 2.482-9.463 1.654-2.199 3.954-3.297 6.898-3.297a20.156 20.156 0 0 1 4.909.598l.435-5.561C55.994 23.31 54.049 23 51.94 23c-4.653 0-8.299 1.564-10.933 4.691-2.637 3.126-3.992 7.616-4.063 13.469v7.744h-8.126v5.452h8.126v53.555h6.106V54.358h11.563v-5.454H43.051zM72.587 72.79c.221-4.255.937-7.344 2.155-9.271 1.217-1.927 3.172-2.89 5.863-2.89 2.689 0 4.579.908 5.672 2.726 1.09 1.817 1.672 4.49 1.745 8.016v1.419H72.587z"/></svg>